<svg width="24" height="24" viewBox="0 0 24 24" fill="none" xmlns="http://www.w3.org/2000/svg">
<path fill-rule="evenodd" clip-rule="evenodd" d="M20.614 5.64914C20.7137 5.73645 20.7951 5.84271 20.8534 5.96176C20.9117 6.0808 20.9457 6.21024 20.9536 6.34256C20.9614 6.47488 20.9428 6.60743 20.8989 6.73251C20.8551 6.85758 20.7868 6.97269 20.698 7.07114L10.184 18.7401C10.0948 18.839 9.98681 18.919 9.8663 18.9755C9.74579 19.032 9.6152 19.0639 9.4822 19.0693C9.3492 19.0747 9.21645 19.0535 9.09175 19.007C8.96705 18.9604 8.85291 18.8894 8.75601 18.7981L2.67201 13.0711C2.48948 12.8969 2.37897 12.6605 2.36231 12.4087C2.34564 12.1568 2.42404 11.9079 2.58201 11.7111C2.66727 11.6044 2.77333 11.5162 2.89375 11.4517C3.01416 11.3873 3.14642 11.348 3.28249 11.3362C3.41856 11.3244 3.55561 11.3404 3.68531 11.3832C3.81502 11.426 3.93467 11.4947 4.03701 11.5851L8.75701 15.8311C8.95408 16.0085 9.21354 16.1004 9.47833 16.0865C9.74311 16.0726 9.99155 15.9541 10.169 15.7571L19.212 5.73014C19.388 5.53497 19.6338 5.41696 19.8962 5.40161C20.1586 5.38626 20.4164 5.47483 20.614 5.64814V5.64914Z" fill="black"/>
</svg>
