<svg width="14" height="14" viewBox="0 0 14 14" fill="none" xmlns="http://www.w3.org/2000/svg">
<path d="M12.8962 13.9845C11.2163 13.8595 9.62313 13.4465 8.11673 12.7453C6.61034 12.0442 5.26014 11.0966 4.06613 9.90263C2.87212 8.70862 1.93149 7.36189 1.24425 5.86244C0.556997 4.36299 0.143953 2.77329 0.005115 1.09335C-0.0226526 0.801792 0.0626356 0.548412 0.26098 0.333213C0.45931 0.118014 0.707233 0.0104141 1.00475 0.0104141H3.83705C4.07307 0.0104141 4.27786 0.0833041 4.45141 0.229084C4.62495 0.374864 4.7395 0.558825 4.79503 0.780966L5.29485 2.98849C5.32262 3.16898 5.3122 3.34253 5.26361 3.50914C5.21502 3.67574 5.13518 3.81458 5.02411 3.92565L3.00402 5.96657C3.2817 6.49416 3.60102 7.00092 3.962 7.48685C4.32298 7.97278 4.7254 8.43084 5.16925 8.86101C5.58619 9.27775 6.03069 9.66314 6.50274 10.0172C6.97479 10.3712 7.47461 10.6871 8.00219 10.9647L10.0639 8.96548C10.175 8.8544 10.3138 8.77457 10.4805 8.72598C10.6471 8.67739 10.8206 8.66697 11.0011 8.69474L13.2294 9.17373C13.4655 9.24315 13.6529 9.36463 13.7917 9.53818C13.9306 9.71173 14 9.91652 14 10.1525V12.9848C14 13.2824 13.8889 13.5303 13.6668 13.7286C13.4446 13.927 13.1878 14.0122 12.8962 13.9845ZM2.31677 4.50877L3.77457 3.05097L3.4172 1.50987H1.54622C1.61564 2.03745 1.71282 2.54768 1.83778 3.04056C1.96273 3.53343 2.1224 4.02284 2.31677 4.50877ZM9.48082 11.6728C9.96814 11.8706 10.4648 12.0276 10.9709 12.1439C11.477 12.2603 11.9868 12.3531 12.5005 12.4225V10.5482L10.9386 10.215L9.48082 11.6728Z" fill="#E6252D"/>
</svg>
