<svg width="61" height="52" viewBox="0 0 61 52" fill="none" xmlns="http://www.w3.org/2000/svg">
<path d="M1.45703 14.9951C1.45703 24.5645 3.56229 34.3253 10.4522 41.2152L12.9403 43.7033H59.8302L57.3422 41.2152C50.4523 34.3253 48.347 24.5645 48.347 14.9951" stroke="white" stroke-width="2" stroke-miterlimit="10" stroke-linejoin="bevel"/>
<path d="M1.45703 14.9951C1.45703 24.5645 3.56229 34.3253 10.4522 41.2152L12.9403 43.7033H59.8302L57.3422 41.2152C50.4523 34.3253 48.347 24.5645 48.347 14.9951" stroke="white" stroke-width="2" stroke-miterlimit="10" stroke-linejoin="bevel"/>
<path d="M48.347 43.7033V51.3588H1.45703V14.9951" stroke="white" stroke-width="2" stroke-miterlimit="10"/>
<path d="M37.8209 6.38281L43.5625 6.38281L43.5625 0.641186L37.8209 0.641186L37.8209 6.38281Z" stroke="white" stroke-width="2" stroke-miterlimit="10"/>
<path d="M6.23884 6.38281L11.9805 6.38281L11.9805 0.641186L6.23884 0.641186L6.23884 6.38281Z" stroke="white" stroke-width="2" stroke-miterlimit="10"/>
<path d="M6.24172 3.51196V6.38278H11.9833V3.51196H37.8207V6.38278H43.5623V3.51196H48.347V14.9952H1.45703V3.51196H6.24172Z" stroke="white" stroke-width="2" stroke-miterlimit="10"/>
</svg>
