<svg width="64" height="60" viewBox="0 0 64 60" fill="none" xmlns="http://www.w3.org/2000/svg">
<path d="M59.4833 29.9998C59.4833 45.7116 46.7244 58.4708 31.0131 58.4708C15.3018 58.4708 2.54297 45.7116 2.54297 29.9998C2.54297 14.288 15.3018 1.52881 31.0131 1.52881C38.9215 1.52881 45.9863 4.69225 51.1531 9.85921" stroke="white" stroke-width="2.27765" stroke-miterlimit="10"/>
<path d="M31.0151 49.5075C41.7887 49.5075 50.5224 40.7735 50.5224 29.9996C50.5224 19.2257 41.7887 10.4917 31.0151 10.4917C20.2415 10.4917 11.5078 19.2257 11.5078 29.9996C11.5078 40.7735 20.2415 49.5075 31.0151 49.5075Z" stroke="white" stroke-opacity="0.25" stroke-width="1.13882" stroke-miterlimit="10"/>
<path d="M39.4493 26.8364H34.1771V21.564H27.8504V26.8364H22.5781V33.1633H27.8504V38.4357H34.1771V33.1633H39.4493V26.8364Z" stroke="white" stroke-width="2.27765" stroke-miterlimit="10"/>
<path d="M63.4556 30.7379L59.5032 25.1499L55.5508 30.7379H63.4556Z" fill="white"/>
</svg>
