<svg width="58" height="56" viewBox="0 0 58 56" fill="none" xmlns="http://www.w3.org/2000/svg">
<path d="M28.9451 45.507C41.0613 45.507 43.8403 33.9466 44.3961 30.1672C44.5072 29.5003 44.9518 28.8333 45.5076 28.4999C46.8415 27.8329 48.9535 26.0544 48.9535 22.275C48.9535 15.4944 43.3956 20.2742 43.3956 18.9403C43.3956 15.6055 40.0609 11.1592 33.3914 11.1592C28.9451 11.1592 21.1641 12.2708 21.1641 3.37817" stroke="white" stroke-width="2.4" stroke-miterlimit="10"/>
<path d="M28.9459 45.507C16.9409 45.507 14.1619 33.9466 13.495 30.0561C13.3838 29.3891 12.9392 28.7222 12.3834 28.3887C11.0495 27.7218 8.9375 25.9433 8.9375 22.1639C8.9375 15.3833 13.3838 23.2755 18.9417 11.0481" stroke="white" stroke-width="2.4" stroke-miterlimit="10"/>
<path d="M54.398 36.5046C51.9525 44.8415 46.9504 51.0663 40.0586 54.2899" stroke="white" stroke-width="2.4" stroke-miterlimit="10"/>
<path d="M48.2132 41.0618V41.1043L48.2322 41.1423C48.3242 41.3264 48.5062 41.4085 48.6849 41.4085C48.8594 41.4085 49.0407 41.333 49.1819 41.1945L54.1851 36.9365L55.8893 43.2209L55.894 43.2382L55.9021 43.2543C56.0479 43.546 56.3383 43.6872 56.6188 43.6872H56.6613L56.6993 43.6682C56.9911 43.5224 57.1323 43.232 57.1323 42.9515V42.927L57.1258 42.9034L55.1303 35.6975C55.1215 35.5903 55.0645 35.5013 54.9954 35.4322C54.9206 35.3574 54.8181 35.2915 54.6985 35.2317C54.5507 35.1578 54.4133 35.1473 54.2871 35.1978C54.1826 35.2396 54.1039 35.3186 54.0536 35.369C54.0526 35.37 54.0517 35.371 54.0507 35.372L48.3867 40.2585L48.3864 40.2582L48.377 40.2675L48.3742 40.2704C48.3488 40.2957 48.3251 40.3195 48.3063 40.3404C48.2864 40.3625 48.2636 40.3904 48.2461 40.4255C48.2189 40.4798 48.2139 40.5354 48.2131 40.5776C48.1568 40.7095 48.1559 40.8209 48.175 40.9164C48.1824 40.9535 48.1934 40.9898 48.2007 41.0137C48.2023 41.0189 48.2037 41.0235 48.2048 41.0275C48.2131 41.0555 48.2132 41.0619 48.2132 41.0618Z" fill="white" stroke="white" stroke-width="0.36"/>
<path d="M28.9451 45.507C41.0613 45.507 43.8403 33.9466 44.3961 30.1672C44.5072 29.5003 44.9518 28.8333 45.5076 28.4999C46.8415 27.8329 48.9535 26.0544 48.9535 22.275C48.9535 15.4944 43.3956 20.2742 43.3956 18.9403C43.3956 15.6055 40.0609 11.1592 33.3914 11.1592C28.9451 11.1592 21.1641 12.2708 21.1641 3.37817" stroke="white" stroke-width="2.4" stroke-miterlimit="10"/>
<path d="M18.1615 54.4003C11.2697 51.2878 6.04525 44.9518 3.71094 36.615" stroke="white" stroke-width="2.4" stroke-miterlimit="10"/>
<path d="M1.98598 43.2537L1.99401 43.2377L1.99871 43.2203L3.70296 36.9359L8.70611 41.1939C8.84736 41.3325 9.02861 41.408 9.20308 41.408C9.37306 41.408 9.54597 41.3337 9.64169 41.1681C9.78618 41.01 9.78609 40.8435 9.78603 40.7341L9.78603 40.7277C9.78603 40.7243 9.78606 40.7205 9.78609 40.7166C9.78641 40.6732 9.78692 40.6037 9.75313 40.5361C9.73559 40.501 9.71282 40.4731 9.69293 40.451C9.67408 40.4301 9.65034 40.4063 9.62497 40.381L9.62215 40.3781L9.6225 40.3778L9.61246 40.3691L3.94848 35.4826C3.94752 35.4816 3.94655 35.4806 3.94556 35.4796C3.89531 35.4292 3.81661 35.3502 3.71204 35.3084C3.58588 35.2579 3.44845 35.2684 3.30069 35.3423C3.18106 35.4021 3.07864 35.4679 3.00381 35.5428C2.93468 35.6119 2.87764 35.7009 2.86888 35.8081L0.873404 43.014L0.866875 43.0376V43.0621C0.866875 43.2005 0.900886 43.3393 0.955352 43.4482C0.982538 43.5026 1.01848 43.5569 1.06474 43.6001C1.11 43.6423 1.17959 43.6867 1.26919 43.6867C1.5497 43.6867 1.84011 43.5455 1.98598 43.2537Z" fill="white" stroke="white" stroke-width="0.36"/>
<path d="M28.9459 45.507C16.9409 45.507 14.1619 33.9466 13.495 30.0561C13.3838 29.3891 12.9392 28.7222 12.3834 28.3887C11.0495 27.7218 8.9375 25.9433 8.9375 22.1639C8.9375 15.3833 13.3838 23.2755 18.9417 11.0481" stroke="white" stroke-width="2.4" stroke-miterlimit="10"/>
<path d="M40.6172 1.59985C40.6172 1.59985 50.9549 6.60196 47.3978 18.607" stroke="white" stroke-width="2.4" stroke-miterlimit="10"/>
<path d="M33.7219 34.7246C31.1652 37.2812 26.9412 37.2812 24.2734 34.7246" stroke="white" stroke-width="2.4" stroke-miterlimit="10"/>
<path d="M33.3906 23.8315C35.2803 25.7212 38.1704 25.7212 40.0601 23.8315L41.1717 24.3873" stroke="white" stroke-width="2.4" stroke-miterlimit="10"/>
<path d="M24.4998 23.8315C22.6101 25.7212 19.72 25.7212 17.8303 23.8315L16.7188 24.3873" stroke="white" stroke-width="2.4" stroke-miterlimit="10"/>
</svg>
