<svg width="58" height="60" viewBox="0 0 58 60" fill="none" xmlns="http://www.w3.org/2000/svg">
<g clip-path="url(#clip0_1267_1449)">
<path d="M0.785156 26.3323H57.2115" stroke="white" stroke-width="2" stroke-miterlimit="10"/>
<path d="M12.0703 31.975V14.1067" stroke="white" stroke-width="2" stroke-miterlimit="10"/>
<path d="M14.4249 0.94043V14.1066H9.72266V0.94043" stroke="white" stroke-width="2" stroke-miterlimit="10"/>
<path d="M7.37109 0.94043H16.7755" stroke="white" stroke-width="2" stroke-miterlimit="10"/>
<path d="M9.72266 8.46387H14.4249" stroke="white" stroke-width="2" stroke-miterlimit="10"/>
<path d="M45.9258 31.9748V14.1064" stroke="white" stroke-width="2" stroke-miterlimit="10"/>
<path d="M48.2764 0.94043V14.1066H43.5742V0.94043" stroke="white" stroke-width="2" stroke-miterlimit="10"/>
<path d="M41.2227 0.94043H50.627" stroke="white" stroke-width="2" stroke-miterlimit="10"/>
<path d="M43.5742 8.46387H48.2764" stroke="white" stroke-width="2" stroke-miterlimit="10"/>
<path d="M42.5417 44.2007C42.5417 35.8308 36.6169 29.812 28.9994 29.812C20.6294 29.812 15.457 35.8308 15.457 44.2007C15.457 52.5706 22.3222 59.4358 30.6921 59.4358C39.062 59.4358 45.9273 52.6647 45.9273 44.2007V31.975" stroke="white" stroke-miterlimit="10"/>
<path d="M42.5405 44.2006C42.5405 52.5705 35.6753 59.4357 27.3054 59.4357C18.9355 59.4357 12.0703 52.6645 12.0703 44.2006V31.9749" stroke="white" stroke-miterlimit="10"/>
<path d="M0.785156 21.1599C7.83845 21.1599 7.83845 24.9217 14.8917 24.9217C21.945 24.9217 21.945 21.1599 28.9983 21.1599C36.0516 21.1599 36.0516 24.9217 43.1049 24.9217C50.1582 24.9217 50.1582 21.1599 57.2115 21.1599" stroke="white" stroke-width="2" stroke-miterlimit="10"/>
</g>
<defs>
<clipPath id="clip0_1267_1449">
<rect width="56.4263" height="60" fill="white" transform="translate(0.785156)"/>
</clipPath>
</defs>
</svg>
