<svg width="66" height="62" viewBox="0 0 66 62" fill="none" xmlns="http://www.w3.org/2000/svg">
<path d="M36.4834 7.18158C38.1904 7.18158 39.5742 5.79779 39.5742 4.09079C39.5742 2.38379 38.1904 1 36.4834 1C34.7764 1 33.3926 2.38379 33.3926 4.09079C33.3926 5.79779 34.7764 7.18158 36.4834 7.18158Z" stroke="white" stroke-width="2" stroke-miterlimit="10"/>
<path d="M6.60642 57.6645C8.31341 57.6645 9.69721 56.2807 9.69721 54.5737C9.69721 52.8667 8.31341 51.4829 6.60642 51.4829C4.89942 51.4829 3.51562 52.8667 3.51562 54.5737C3.51562 56.2807 4.89942 57.6645 6.60642 57.6645Z" stroke="white" stroke-width="2" stroke-miterlimit="10"/>
<path d="M5.57613 33.4535C7.85213 33.4535 9.69719 31.6085 9.69719 29.3325C9.69719 27.0565 7.85213 25.2114 5.57613 25.2114C3.30014 25.2114 1.45508 27.0565 1.45508 29.3325C1.45508 31.6085 3.30014 33.4535 5.57613 33.4535Z" stroke="white" stroke-width="2" stroke-miterlimit="10"/>
<path d="M53.2129 60.9999C55.4888 60.9999 57.3339 59.1549 57.3339 56.8789C57.3339 54.6029 55.4888 52.7578 53.2129 52.7578C50.9369 52.7578 49.0918 54.6029 49.0918 56.8789C49.0918 59.1549 50.9369 60.9999 53.2129 60.9999Z" stroke="white" stroke-width="2" stroke-miterlimit="10"/>
<path d="M37.7588 58.9394C38.8968 58.9394 39.8193 58.0169 39.8193 56.8789C39.8193 55.7409 38.8968 54.8184 37.7588 54.8184C36.6208 54.8184 35.6982 55.7409 35.6982 56.8789C35.6982 58.0169 36.6208 58.9394 37.7588 58.9394Z" stroke="white" stroke-width="2" stroke-miterlimit="10"/>
<path d="M29.2725 15.4237L34.4238 6.15137" stroke="white" stroke-width="2" stroke-miterlimit="10"/>
<path d="M61.455 20.8198C63.162 20.8198 64.5458 19.436 64.5458 17.729C64.5458 16.022 63.162 14.6382 61.455 14.6382C59.7481 14.6382 58.3643 16.022 58.3643 17.729C58.3643 19.436 59.7481 20.8198 61.455 20.8198Z" stroke="white" stroke-width="2" stroke-miterlimit="10"/>
<path d="M53.2129 29.0619L59.3945 19.7896" stroke="white" stroke-width="2" stroke-miterlimit="10"/>
<path d="M7.63672 52.5131L13.8183 43.2407" stroke="white" stroke-width="2" stroke-miterlimit="10"/>
<path d="M13.8183 18.5146C15.5253 18.5146 16.9091 17.1308 16.9091 15.4238C16.9091 13.7168 15.5253 12.333 13.8183 12.333C12.1113 12.333 10.7275 13.7168 10.7275 15.4238C10.7275 17.1308 12.1113 18.5146 13.8183 18.5146Z" stroke="white" stroke-width="2" stroke-miterlimit="10"/>
<path d="M29.5808 15.4238H16.9086C16.9086 17.1753 15.5693 18.5146 13.8178 18.5146C13.1997 18.5146 12.5815 18.3086 12.0664 17.9995L7.5332 25.7265C8.87255 26.4477 9.69676 27.787 9.69676 29.3324C9.69676 30.8778 8.87255 32.2171 7.5332 32.9383L13.5087 43.241H29.5808L37.6169 29.3324L29.5808 15.4238Z" stroke="white" stroke-width="2" stroke-miterlimit="10"/>
<path d="M53.2132 52.7576C54.0374 52.7576 54.8616 52.9636 55.4797 53.4788L61.5583 42.9701L53.5222 29.0615H37.4501L29.4141 42.9701L36.5229 55.2302C36.832 54.9211 37.3471 54.8181 37.7592 54.8181C38.8925 54.8181 39.8197 55.7454 39.8197 56.8786H49.0921C49.0921 54.6121 50.9466 52.7576 53.2132 52.7576Z" stroke="white" stroke-width="2" stroke-miterlimit="10"/>
<path d="M14.8477 25.7266H21.0292" stroke="white" stroke-miterlimit="10"/>
<path d="M23.0898 25.7266H29.2714" stroke="white" stroke-miterlimit="10"/>
<path d="M14.8477 29.8477H29.2713" stroke="white" stroke-miterlimit="10"/>
<path d="M14.8477 33.9688H21.0292" stroke="white" stroke-miterlimit="10"/>
<path d="M27.2109 33.9688H29.2715" stroke="white" stroke-miterlimit="10"/>
<path d="M23.0898 33.9688H25.1504" stroke="white" stroke-miterlimit="10"/>
<path d="M37.7588 39.3643H43.9404" stroke="white" stroke-miterlimit="10"/>
<path d="M46.001 39.3643H52.1826" stroke="white" stroke-miterlimit="10"/>
<path d="M37.7588 43.4854H52.1825" stroke="white" stroke-miterlimit="10"/>
<path d="M37.7588 47.6064H43.9404" stroke="white" stroke-miterlimit="10"/>
<path d="M50.1221 47.6064H52.1826" stroke="white" stroke-miterlimit="10"/>
<path d="M46.001 47.6064H48.0615" stroke="white" stroke-miterlimit="10"/>
</svg>
