<svg width="58" height="62" viewBox="0 0 58 62" fill="none" xmlns="http://www.w3.org/2000/svg">
<path d="M29.0001 60.9998C45.4052 60.9998 49.2026 45.2024 50.114 39.8859C50.2659 38.9745 50.8735 38.0631 51.633 37.6074C53.4558 36.696 56.3419 34.2657 56.3419 29.1011C56.3419 19.8353 48.7469 26.3669 48.7469 24.5441C48.7469 19.9872 44.19 13.9112 35.076 13.9112C29.0001 13.9112 18.3672 15.4302 18.3672 3.27832" stroke="white" stroke-width="2" stroke-miterlimit="10"/>
<path d="M29 61.0002C12.5949 61.0002 8.79744 45.2027 7.88605 40.0382C7.73415 39.1268 7.12656 38.2154 6.36706 37.7597C4.54428 36.8483 1.6582 34.4179 1.6582 29.2533C1.6582 19.9875 7.73415 30.7723 15.3291 14.0635" stroke="white" stroke-width="2" stroke-miterlimit="10"/>
<path d="M29.0001 60.9998C45.4052 60.9998 49.2026 45.2024 50.114 39.8859C50.2659 38.9745 50.8735 38.0631 51.633 37.6074C53.4558 36.696 56.3419 34.2657 56.3419 29.1011C56.3419 19.8353 48.7469 26.3669 48.7469 24.5441C48.7469 19.9872 44.19 13.9112 35.076 13.9112C29.0001 13.9112 18.3672 15.4302 18.3672 3.27832" stroke="white" stroke-width="2" stroke-miterlimit="10"/>
<path d="M29 61.0002C12.5949 61.0002 8.79744 45.2027 7.88605 40.0382C7.73415 39.1268 7.12656 38.2154 6.36706 37.7597C4.54428 36.8483 1.6582 34.4179 1.6582 29.2533C1.6582 19.9875 7.73415 30.7723 15.3291 14.0635" stroke="white" stroke-width="2" stroke-miterlimit="10"/>
<path d="M44.9492 1C44.9492 1 59.0758 7.83544 54.215 24.2405" stroke="white" stroke-width="2" stroke-miterlimit="10"/>
<path d="M35.3792 46.2656C31.8855 49.7593 26.1133 49.7593 22.4678 46.2656" stroke="white" stroke-width="2" stroke-miterlimit="10"/>
<path d="M35.0762 31.3794C37.6585 33.9617 41.6078 33.9617 44.1901 31.3794L45.7091 32.1389" stroke="white" stroke-width="2" stroke-miterlimit="10"/>
<path d="M22.9239 31.3794C20.3416 33.9617 16.3923 33.9617 13.81 31.3794L12.291 32.1389" stroke="white" stroke-width="2" stroke-miterlimit="10"/>
<path d="M37.0508 52.646L42.671 61.0004" stroke="white" stroke-miterlimit="10"/>
<path d="M35.835 56.4432L36.5945 56.5951L37.202 52.9495L40.8476 53.709L40.9995 52.9495L36.5945 51.8862L35.835 56.4432Z" fill="white"/>
<path d="M44.1904 48.8481L49.8107 57.3545" stroke="white" stroke-miterlimit="10"/>
<path d="M45.8604 57.0513L46.0123 56.2918L49.6578 57.0513L50.2654 53.4058L51.0249 53.5577L50.2654 57.9627L45.8604 57.0513Z" fill="white"/>
<path d="M20.9494 52.646L15.3291 61.0004" stroke="white" stroke-miterlimit="10"/>
<path d="M16.999 52.9495L17.1509 53.709L20.7965 52.9495L21.4041 56.5951L22.1636 56.4432L21.4041 51.8862L16.999 52.9495Z" fill="white"/>
<path d="M13.8097 48.8481L8.18945 57.3545" stroke="white" stroke-miterlimit="10"/>
<path d="M6.97461 53.5572L7.7341 53.4053L8.3417 57.0508L11.9873 56.2913L12.1392 57.0508L7.7341 57.9622L6.97461 53.5572Z" fill="white"/>
</svg>
