<svg width="58" height="60" viewBox="0 0 58 60" fill="none" xmlns="http://www.w3.org/2000/svg">
<g clip-path="url(#clip0_396_5219)">
<path d="M0.787109 26.3325H57.2134" stroke="white" stroke-width="2" stroke-miterlimit="10"/>
<path d="M12.0723 31.9748V14.1064" stroke="white" stroke-width="2" stroke-miterlimit="10"/>
<path d="M14.4249 0.94043V14.1066H9.72266V0.94043" stroke="white" stroke-width="2" stroke-miterlimit="10"/>
<path d="M7.37109 0.94043H16.7755" stroke="white" stroke-width="2" stroke-miterlimit="10"/>
<path d="M9.72266 8.46387H14.4249" stroke="white" stroke-width="2" stroke-miterlimit="10"/>
<path d="M45.9277 31.9748V14.1064" stroke="white" stroke-width="2" stroke-miterlimit="10"/>
<path d="M48.2784 0.94043V14.1066H43.5762V0.94043" stroke="white" stroke-width="2" stroke-miterlimit="10"/>
<path d="M41.2266 0.94043H50.631" stroke="white" stroke-width="2" stroke-miterlimit="10"/>
<path d="M43.5762 8.46387H48.2784" stroke="white" stroke-width="2" stroke-miterlimit="10"/>
<path d="M42.5417 44.2007C42.5417 35.8308 36.6169 29.812 28.9994 29.812C20.6294 29.812 15.457 35.8308 15.457 44.2007C15.457 52.5706 22.3222 59.4358 30.6921 59.4358C39.062 59.4358 45.9273 52.6647 45.9273 44.2007V31.975" stroke="white" stroke-miterlimit="10"/>
<path d="M42.5425 44.2008C42.5425 52.5707 35.6773 59.4359 27.3074 59.4359C18.9375 59.4359 12.0723 52.6648 12.0723 44.2008V31.9751" stroke="white" stroke-miterlimit="10"/>
<path d="M0.787109 21.1597C7.8404 21.1597 7.8404 24.9214 14.8937 24.9214C21.947 24.9214 21.947 21.1597 29.0003 21.1597C36.0536 21.1597 36.0536 24.9214 43.1069 24.9214C50.1601 24.9214 50.1601 21.1597 57.2134 21.1597" stroke="white" stroke-width="2" stroke-miterlimit="10"/>
</g>
<defs>
<clipPath id="clip0_396_5219">
<rect width="56.4263" height="60" fill="white" transform="translate(0.787109)"/>
</clipPath>
</defs>
</svg>
