<svg width="302" height="598" viewBox="0 0 302 598" fill="none" xmlns="http://www.w3.org/2000/svg">
<path d="M195.043 434.197C204.629 431.601 219.731 455.363 219.731 481.467C219.731 507.572 213.383 548.845 205.976 548.845C198.57 548.845 178.113 438.783 195.043 434.197Z" fill="white" fill-opacity="0.4" stroke="white" stroke-width="0.5" stroke-miterlimit="10"/>
<path d="M6.31805 466.587C16.1936 457.416 80.7371 507.155 87.0856 535.729C91.8294 557.078 91.318 600.637 74.0359 596.757C56.7537 592.877 9.84501 580.883 7.02344 563.95C4.20186 547.017 -4.58734 476.715 6.31805 466.587Z" fill="white" fill-opacity="0.4" stroke="white" stroke-width="0.5" stroke-miterlimit="10"/>
<path d="M42.824 265.565C35.1704 284.844 8.76753 378.139 26.2472 384.094C58.3426 395.029 106.309 387.621 130.645 375.627C145.088 368.509 122.964 286.255 111.6 263.801C97.1393 235.228 52.3468 241.577 42.824 265.565Z" fill="white" fill-opacity="0.4" stroke="white" stroke-width="0.5" stroke-miterlimit="10"/>
<path d="M41.7655 122.344C58.3423 147.743 146.975 140.529 168.736 125.519C178.965 118.464 186.639 84.0128 174.732 75.4265C167.149 69.9587 146.34 82.6581 104.017 81.2471C80.0331 80.4463 61.8692 69.0768 52.8755 74.1918C41.1412 80.8661 36.2458 113.885 41.7655 122.344Z" fill="white" fill-opacity="0.4" stroke="white" stroke-width="0.5" stroke-miterlimit="10"/>
<path d="M91.3205 1.52166C85.9736 5.80067 97.796 39.3272 68.7479 60.0803C41.5902 79.4822 182.034 82.1668 159.038 60.7858C133.997 37.5035 145.988 14.5739 140.698 7.87139C138.053 4.52014 124.075 6.42153 113.54 5.40205C102.607 4.34376 93.9657 -0.594921 91.3205 1.52166Z" fill="white" fill-opacity="0.4" stroke="white" stroke-width="0.5" stroke-miterlimit="10"/>
<path d="M234.517 175.312C235.003 168.962 271.197 192.244 282.836 205.649C294.475 219.054 305.649 256.447 299.766 254.33C298.231 253.78 284.247 237.549 268.023 218.349C254.62 202.474 234.34 177.583 234.517 175.312Z" fill="white" fill-opacity="0.4" stroke="white" stroke-width="0.5" stroke-miterlimit="10"/>
</svg>
