<svg width="313" height="450" viewBox="0 0 313 450" fill="none" xmlns="http://www.w3.org/2000/svg">
<path d="M240.85 401.096L240.85 401.096C240.606 403.522 241.58 405.016 242.94 405.472C244.317 405.934 246.227 405.384 247.945 403.419L248.133 403.583L247.945 403.419C251.245 399.647 266.5 379.333 273.517 364.288C277.025 356.766 284.195 337.221 289.916 319.404C292.776 310.497 295.271 302.03 296.764 295.721C297.511 292.564 298.005 289.958 298.169 288.11C298.252 287.183 298.25 286.464 298.164 285.967C298.073 285.444 297.912 285.283 297.786 285.251L240.85 401.096ZM240.85 401.096C241.853 391.058 244.74 361.976 242.858 345.775L240.85 401.096ZM251.146 327.716L251.278 327.928C249.024 329.333 246.718 332.089 245.073 335.363C243.43 338.635 242.466 342.388 242.858 345.774L251.146 327.716ZM251.146 327.716L251.278 327.928C268.626 317.111 279.817 306.292 286.924 298.237M251.146 327.716L286.924 298.237M286.924 298.237C290.234 294.486 292.657 291.335 294.4 289.069M286.924 298.237L294.4 289.069M294.4 289.069C294.528 288.902 294.652 288.741 294.773 288.584M294.4 289.069L294.773 288.584M294.773 288.584C295.658 287.435 296.343 286.557 296.869 285.982M294.773 288.584L296.869 285.982M296.869 285.982C297.133 285.693 297.346 285.492 297.516 285.372M296.869 285.982L297.516 285.372M297.516 285.372C297.698 285.244 297.773 285.248 297.786 285.251L297.516 285.372Z" fill="white" fill-opacity="0.4" stroke="white" stroke-width="0.5"/>
<path d="M74.718 396.565L74.718 396.566C74.9279 398.708 74.0878 400.014 72.9347 400.411C71.7674 400.812 70.1338 400.337 68.6544 398.603L68.4642 398.765L68.6544 398.603C65.8071 395.265 52.6393 377.285 46.5829 363.971C43.5551 357.314 37.3652 340.013 32.4263 324.242C29.9573 316.358 27.8035 308.864 26.5149 303.28C25.8703 300.486 25.4445 298.18 25.3023 296.546C25.231 295.726 25.2327 295.092 25.3067 294.655C25.3438 294.436 25.3965 294.283 25.4554 294.183C25.5119 294.088 25.5654 294.056 25.609 294.045C25.6085 294.045 25.6083 294.045 25.6083 294.045C25.6084 294.045 25.6637 294.04 25.8101 294.146C25.954 294.25 26.1363 294.426 26.3636 294.681C26.8166 295.189 27.4076 295.965 28.1716 296.983C28.2758 297.121 28.3832 297.264 28.4937 297.412C29.9984 299.418 32.0908 302.208 34.9488 305.529C41.0854 312.661 50.749 322.24 65.7285 331.817L65.8631 331.607L65.7285 331.817C67.6676 333.057 69.6559 335.491 71.0743 338.386C72.4916 341.28 73.3221 344.598 72.9844 347.59L74.718 396.565ZM74.718 396.565C73.852 387.681 71.3594 361.935 72.9844 347.59L74.718 396.565Z" fill="white" fill-opacity="0.4" stroke="white" stroke-width="0.5"/>
<path d="M194.183 165.995L194.183 165.995C189.158 162.81 187.182 158.739 187.426 154.348C187.671 149.935 190.162 145.153 194.178 140.585C202.207 131.451 216.234 123.279 230.045 120.747L230.054 120.745L230.063 120.742C250.981 115.264 270.24 121.142 284.285 128.405C291.306 132.035 297.018 136.009 300.975 139.075C302.953 140.608 304.492 141.914 305.536 142.836C306.058 143.297 306.456 143.662 306.723 143.911C306.856 144.036 306.957 144.131 307.025 144.196C307.037 144.208 307.048 144.219 307.059 144.228C307.076 144.245 307.09 144.258 307.1 144.269L307.119 144.287L307.124 144.291L307.125 144.292C307.125 144.293 307.125 144.293 307.3 144.114L307.125 144.293L307.142 144.309L307.161 144.322C312.298 147.764 313.339 151.385 312.47 153.824C311.597 156.277 308.752 157.69 305.764 156.675L305.683 156.911L305.764 156.675C273.157 145.591 248.584 150.077 230.471 156.256C225.944 157.8 221.822 159.449 218.082 160.986C217.335 161.292 216.604 161.594 215.888 161.89C213.014 163.078 210.386 164.164 207.982 165.041C204.979 166.137 202.347 166.899 200.051 167.123C197.758 167.347 195.819 167.033 194.183 165.995Z" fill="white" fill-opacity="0.4" stroke="white" stroke-width="0.5"/>
<path d="M118.813 165.995L118.813 165.995C123.838 162.81 125.814 158.739 125.57 154.348C125.325 149.935 122.834 145.153 118.818 140.585C110.789 131.451 96.7616 123.279 82.951 120.747L82.9418 120.745L82.9328 120.742C62.015 115.264 42.7558 121.142 28.7109 128.405C21.6898 132.035 15.9776 136.009 12.021 139.075C10.0429 140.608 8.50401 141.914 7.4603 142.836C6.93847 143.297 6.54045 143.662 6.27323 143.911C6.13962 144.036 6.03871 144.131 5.97139 144.196C5.95898 144.208 5.94771 144.219 5.93758 144.228C5.92024 144.245 5.90627 144.258 5.89568 144.269L5.87693 144.287L5.87236 144.291L5.87128 144.292C5.87108 144.293 5.87101 144.293 5.69598 144.114L5.87101 144.293L5.85442 144.309L5.83512 144.322C0.697792 147.764 -0.342728 151.385 0.525787 153.824C1.3991 156.277 4.24451 157.69 7.23243 156.675L7.3129 156.911L7.23245 156.675C39.8395 145.591 64.4117 150.077 82.5255 156.256C87.0517 157.8 91.1739 159.449 94.9142 160.986C95.6609 161.292 96.3922 161.594 97.1082 161.89C99.9817 163.078 102.61 164.164 105.014 165.041C108.017 166.137 110.649 166.899 112.946 167.123C115.238 167.347 117.177 167.033 118.813 165.995Z" fill="white" fill-opacity="0.4" stroke="white" stroke-width="0.5"/>
<path d="M201.326 208.593L201.326 208.594C206.363 211.953 218.607 217.192 240.879 217.192C251.631 217.192 262.039 214.908 270.448 212.139C278.854 209.372 285.281 206.115 288.07 204.154C290.752 202.268 293.252 202.628 294.72 204.049C296.196 205.478 296.7 208.047 295.239 210.728C293.244 214.388 286.877 221.52 277.377 227.739C267.883 233.953 255.29 239.236 240.854 239.236C213.634 239.236 199.109 222.976 194.36 217.66C193.941 217.191 193.599 216.808 193.33 216.528C190.839 213.934 190.879 210.614 192.482 208.621C193.283 207.625 194.482 206.948 195.979 206.85C197.479 206.752 199.297 207.234 201.326 208.593Z" fill="white" fill-opacity="0.4" stroke="white" stroke-width="0.5"/>
<path d="M113.67 208.593L113.67 208.594C108.633 211.953 96.3894 217.192 74.1168 217.192C63.3646 217.192 52.9568 214.908 44.5476 212.139C36.1425 209.372 29.7151 206.115 26.9261 204.154C24.2438 202.268 21.7441 202.628 20.2763 204.049C18.7999 205.478 18.2958 208.047 19.757 210.728C21.7521 214.388 28.1195 221.52 37.6196 227.739C47.1126 233.953 59.7061 239.236 74.1419 239.236C101.362 239.236 115.887 222.976 120.636 217.66C121.055 217.191 121.398 216.808 121.666 216.528C124.157 213.934 124.118 210.614 122.514 208.621C121.713 207.625 120.514 206.948 119.017 206.85C117.517 206.752 115.699 207.234 113.67 208.593Z" fill="white" fill-opacity="0.4" stroke="white" stroke-width="0.5"/>
<path d="M199.106 238.647L199.106 238.647C199.655 238.022 200.505 237.743 201.698 237.757C202.892 237.772 204.387 238.081 206.167 238.586C207.89 239.075 209.861 239.741 212.063 240.485L212.27 240.556C214.553 241.327 217.076 242.177 219.806 242.989C230.727 246.241 244.994 248.917 260.762 243.744C273.254 239.645 282.291 233.39 289.472 228.419C289.797 228.194 290.118 227.972 290.435 227.753C294.107 225.216 297.275 223.085 300.187 221.825C303.092 220.569 305.713 220.194 308.303 221.131C310.812 222.04 311.947 224.916 312.011 229.134C312.075 233.328 311.074 238.722 309.457 244.449C306.223 255.899 300.547 268.6 296.126 275.527L296.337 275.662L296.126 275.527C287.639 288.831 279.991 298.177 273.085 304.407C266.179 310.637 260.027 313.742 254.531 314.587C243.564 316.275 235.065 308.977 228.249 299.134L228.249 299.134C221.628 289.599 213.36 275.541 207.244 263.303C204.185 257.184 201.669 251.527 200.166 247.123C199.414 244.919 198.919 243.04 198.734 241.578C198.641 240.847 198.627 240.229 198.693 239.733C198.759 239.234 198.903 238.878 199.106 238.647Z" fill="white" fill-opacity="0.4" stroke="white" stroke-width="0.5"/>
<path d="M117.159 239.289L117.159 239.289C116.611 238.665 115.761 238.385 114.568 238.4C113.374 238.414 111.879 238.724 110.099 239.228C108.376 239.717 106.404 240.384 104.202 241.128L103.995 241.198C101.712 241.97 99.1898 242.819 96.4598 243.632C85.5389 246.884 71.2719 249.559 55.5041 244.386C43.0113 240.288 33.9742 234.032 26.7934 229.061C26.4688 228.837 26.1481 228.615 25.8309 228.396C22.1587 225.858 18.991 223.727 16.0786 222.468C13.1733 221.212 10.5527 220.836 7.96234 221.774C5.45348 222.682 4.3185 225.559 4.25441 229.777C4.19069 233.971 5.19174 239.365 6.80908 245.091C10.0431 256.542 15.7184 269.243 20.1397 276.17L19.929 276.304L20.1397 276.17C28.6267 289.474 36.2748 298.819 43.1808 305.049C50.0869 311.28 56.2386 314.384 61.7344 315.23C72.7018 316.917 81.2003 309.619 88.0166 299.777L88.0168 299.776C94.6376 290.241 102.906 276.183 109.022 263.946C112.08 257.826 114.596 252.17 116.1 247.765C116.852 245.562 117.347 243.683 117.532 242.22C117.624 241.489 117.638 240.872 117.572 240.375C117.506 239.877 117.363 239.521 117.159 239.289Z" fill="white" fill-opacity="0.4" stroke="white" stroke-width="0.5"/>
<path d="M230.223 330.996L230.224 330.996C230.718 330.787 231.122 330.409 231.363 329.929C231.604 329.449 231.667 328.898 231.539 328.377L231.539 328.375C225.063 301.279 213.388 287.274 209.321 282.395C209.023 282.037 208.766 281.728 208.554 281.467M230.223 330.996L208.748 281.309M230.223 330.996C228.192 331.862 226.061 332.698 223.829 333.503M230.223 330.996L206.534 281.972M208.554 281.467C208.554 281.467 208.554 281.467 208.554 281.467L208.748 281.309M208.554 281.467C208.554 281.467 208.555 281.467 208.555 281.467L208.748 281.309M208.554 281.467C208.416 281.298 208.233 281.171 208.025 281.102C207.818 281.034 207.595 281.025 207.383 281.079C207.171 281.132 206.978 281.244 206.828 281.403L206.646 281.231M208.748 281.309C208.58 281.103 208.357 280.949 208.104 280.865C207.851 280.781 207.58 280.771 207.322 280.836C207.064 280.901 206.829 281.038 206.646 281.231M206.646 281.231L206.828 281.403C206.678 281.561 206.576 281.758 206.534 281.972M206.646 281.231L206.534 281.972M206.534 281.972L204.817 292.291C204.817 292.292 204.817 292.292 204.817 292.292C204.795 292.435 204.802 292.58 204.838 292.719C204.875 292.859 204.939 292.99 205.028 293.103C206.018 294.365 215.547 307.311 220.854 331.822L220.854 331.825C220.919 332.142 221.051 332.442 221.242 332.704C221.432 332.966 221.677 333.184 221.959 333.343C222.241 333.502 222.554 333.599 222.877 333.627C223.199 333.654 223.524 333.612 223.829 333.503M223.829 333.503C223.829 333.503 223.829 333.503 223.829 333.503L223.914 333.739M223.829 333.503C223.829 333.503 223.829 333.503 223.829 333.503L223.914 333.739M223.914 333.739C223.575 333.86 223.214 333.906 222.856 333.876C222.497 333.845 222.15 333.738 221.836 333.561C221.523 333.384 221.251 333.142 221.04 332.851C220.828 332.56 220.681 332.227 220.609 331.875L230.321 331.226C228.286 332.094 226.15 332.931 223.914 333.739Z" fill="white" fill-opacity="0.4" stroke="white" stroke-width="0.5"/>
<path d="M85.7731 332.996L85.7725 332.996C85.2781 332.787 84.8742 332.409 84.6331 331.929C84.392 331.449 84.3295 330.898 84.4567 330.377L84.457 330.375C90.9332 303.279 102.608 289.274 106.675 284.395C106.973 284.037 107.23 283.728 107.442 283.467M85.7731 332.996L107.248 283.309M85.7731 332.996C87.8039 333.862 89.9353 334.698 92.1674 335.503M85.7731 332.996L109.462 283.972M107.442 283.467C107.442 283.467 107.442 283.467 107.442 283.467L107.248 283.309M107.442 283.467C107.442 283.467 107.442 283.467 107.441 283.467L107.248 283.309M107.442 283.467C107.58 283.298 107.763 283.171 107.971 283.102C108.178 283.034 108.401 283.025 108.613 283.079C108.825 283.132 109.018 283.244 109.168 283.403L109.35 283.231M107.248 283.309C107.416 283.103 107.639 282.949 107.892 282.865C108.145 282.781 108.416 282.771 108.674 282.836C108.932 282.901 109.167 283.038 109.35 283.231M109.35 283.231L109.168 283.403C109.318 283.561 109.42 283.758 109.462 283.972M109.35 283.231L109.462 283.972M109.462 283.972L111.179 294.291C111.179 294.292 111.179 294.292 111.179 294.292C111.201 294.435 111.194 294.58 111.158 294.719C111.121 294.859 111.057 294.99 110.968 295.103C109.978 296.365 100.449 309.311 95.1425 333.822L95.1418 333.825C95.0771 334.142 94.945 334.442 94.7543 334.704C94.5637 334.966 94.3191 335.184 94.037 335.343C93.7549 335.502 93.4418 335.599 93.1192 335.627C92.7968 335.654 92.4722 335.612 92.1674 335.503M92.1674 335.503C92.1672 335.503 92.1669 335.503 92.1667 335.503L92.0826 335.739M92.1674 335.503C92.1674 335.503 92.1675 335.503 92.1675 335.503L92.0826 335.739M92.0826 335.739C92.4213 335.86 92.7821 335.906 93.1405 335.876C93.4988 335.845 93.8465 335.738 94.1598 335.561C94.4731 335.384 94.7448 335.142 94.9565 334.851C95.1682 334.56 95.3149 334.227 95.3868 333.875L85.6751 333.226C87.7105 334.094 89.8463 334.931 92.0826 335.739Z" fill="white" fill-opacity="0.4" stroke="white" stroke-width="0.5"/>
<path d="M216.758 421.783L216.758 421.783C224.886 390.743 225.571 365.283 223.137 345.435C223.077 344.928 223.191 344.415 223.459 343.981C223.728 343.546 224.135 343.216 224.615 343.042C226.862 342.241 229.016 341.417 231.078 340.571L231.08 340.571C231.397 340.438 231.741 340.38 232.084 340.4C232.428 340.421 232.762 340.52 233.062 340.689C233.361 340.858 233.618 341.094 233.813 341.377C234.008 341.661 234.135 341.985 234.186 342.326C236.823 360.762 236.97 383.943 232.013 412.693C231.905 413.316 231.572 414.01 231.054 414.745C230.537 415.477 229.845 416.236 229.039 416.986C227.426 418.485 225.372 419.933 223.388 421.048C221.397 422.166 219.507 422.932 218.219 423.095C217.565 423.178 217.136 423.096 216.91 422.907C216.709 422.74 216.592 422.416 216.758 421.783Z" fill="white" fill-opacity="0.4" stroke="white" stroke-width="0.5"/>
<path d="M99.2377 423.783L99.2376 423.783C91.1101 392.743 90.4247 367.283 92.859 347.435C92.9187 346.928 92.8051 346.415 92.5367 345.981C92.2683 345.546 91.8608 345.216 91.3807 345.042C89.1345 344.241 86.9801 343.417 84.9176 342.571L84.9162 342.571C84.5986 342.438 84.255 342.38 83.9116 342.4C83.5682 342.421 83.234 342.52 82.9344 342.689C82.6348 342.858 82.3778 343.094 82.183 343.377C81.9882 343.661 81.8606 343.985 81.81 344.326C79.1728 362.762 79.0261 385.943 83.9833 414.693C84.0907 415.316 84.4236 416.01 84.9422 416.745C85.4592 417.477 86.1509 418.236 86.9573 418.986C88.5702 420.485 90.6245 421.933 92.6082 423.048C94.5987 424.166 96.4891 424.932 97.777 425.095C98.4309 425.178 98.86 425.096 99.0861 424.907C99.2869 424.74 99.4037 424.416 99.2377 423.783Z" fill="white" fill-opacity="0.4" stroke="white" stroke-width="0.5"/>
<path d="M158.246 311.335C158.258 311.585 158.258 311.585 158.259 311.585L158.259 311.585L158.262 311.585L158.274 311.584L158.32 311.582C158.36 311.58 158.419 311.576 158.498 311.572C158.654 311.562 158.886 311.548 159.187 311.527C159.789 311.484 160.668 311.416 161.778 311.309C163.996 311.097 167.136 310.735 170.824 310.138C178.198 308.943 187.773 306.803 196.554 303.023C198.138 302.342 199.48 302.402 200.634 302.917C201.799 303.437 202.799 304.43 203.665 305.659C205.064 307.645 206.069 310.177 206.848 312.14C207.035 312.612 207.209 313.051 207.372 313.442L207.373 313.443L207.603 313.345C207.373 313.443 207.373 313.443 207.373 313.444L207.374 313.444L207.375 313.447L207.379 313.457L207.396 313.496L207.462 313.653C207.52 313.791 207.606 313.994 207.714 314.255C207.931 314.778 208.241 315.533 208.613 316.464C209.358 318.327 210.349 320.891 211.338 323.699C212.327 326.506 213.313 329.554 214.047 332.385C214.782 335.221 215.259 337.819 215.242 339.736C215.227 341.234 214.623 342.836 213.75 343.794C213.315 344.271 212.83 344.571 212.336 344.641C211.852 344.711 211.318 344.566 210.762 344.073L210.596 344.26L210.762 344.073C185.989 322.135 169.326 322.424 162.118 324.196L162.117 324.196C159.636 324.82 157.028 324.722 154.6 323.915C147.508 321.504 130.755 319.9 105.731 342.053L105.73 342.054C105.178 342.549 104.647 342.695 104.164 342.627C103.672 342.558 103.186 342.259 102.75 341.781C101.874 340.823 101.265 339.219 101.25 337.716C101.233 335.803 101.71 333.333 102.444 330.689C103.178 328.05 104.163 325.255 105.152 322.7C106.14 320.145 107.131 317.833 107.875 316.159C108.247 315.322 108.557 314.645 108.774 314.178C108.883 313.944 108.968 313.763 109.026 313.64L109.092 313.5L109.109 313.465L109.113 313.456L109.114 313.454L109.115 313.453C109.115 313.453 109.115 313.453 108.898 313.349L109.115 313.453L109.12 313.442C109.283 313.051 109.457 312.612 109.645 312.14C110.423 310.177 111.428 307.645 112.828 305.659C113.693 304.43 114.693 303.437 115.859 302.917C117.013 302.402 118.354 302.342 119.938 303.023C128.72 306.803 138.294 308.943 145.668 310.138C149.356 310.735 152.496 311.097 154.715 311.309C155.824 311.416 156.703 311.484 157.305 311.527C157.606 311.548 157.838 311.562 157.995 311.572C158.073 311.576 158.133 311.58 158.173 311.582L158.218 311.584L158.23 311.585L158.233 311.585L158.234 311.585C158.234 311.585 158.234 311.585 158.246 311.335ZM158.246 311.335L158.258 311.585L158.246 311.586L158.234 311.585L158.246 311.335Z" fill="white" fill-opacity="0.4" stroke="white" stroke-width="0.5"/>
<path d="M201.783 428.151C201.783 435.575 196.987 440.844 189.116 444.27C181.239 447.698 170.332 449.255 158.245 449.255C146.158 449.255 135.251 447.698 127.374 444.27C119.503 440.844 114.707 435.575 114.707 428.151C114.707 420.692 119.545 412.403 127.433 405.968C135.313 399.538 146.206 394.989 158.245 394.989C170.284 394.989 181.176 399.538 189.057 405.968C196.945 412.403 201.783 420.692 201.783 428.151Z" fill="white" fill-opacity="0.4" stroke="white" stroke-width="0.5"/>
<path d="M29.3568 99.4129C27.1341 96.1307 26.1796 90.8932 26.254 84.6068C26.3283 78.3309 27.4273 71.0513 29.2703 63.7214C32.9592 49.0501 39.612 34.2414 46.9273 26.8959C56.0734 17.7122 73.0068 10.9628 93.7833 6.55496C114.548 2.14968 139.105 0.0921607 163.454 0.259424C187.802 0.426689 211.932 2.81868 231.84 7.30739C241.794 9.55175 250.687 12.3191 258.022 15.5917C265.36 18.8655 271.123 22.6379 274.833 26.884L275.021 26.7195L274.833 26.884C276.62 28.9301 279.315 33.5872 282.154 39.674C284.99 45.752 287.959 53.2303 290.302 60.8998C292.646 68.5713 294.359 76.4234 294.691 83.2522C295.024 90.0925 293.967 95.8483 290.834 99.3874C290.463 99.806 289.872 100.226 289.056 100.64C288.242 101.054 287.218 101.456 285.995 101.845C283.547 102.623 280.321 103.344 276.424 104.007C268.63 105.334 258.179 106.425 245.961 107.287C221.527 109.01 190.05 109.813 158.686 109.746C127.322 109.679 96.0782 108.742 72.1105 106.985C60.1258 106.107 49.9662 105.024 42.5227 103.744C38.8001 103.103 35.7644 102.415 33.5221 101.681C32.4009 101.314 31.4846 100.937 30.7825 100.553C30.0763 100.166 29.6077 99.7833 29.3568 99.4129Z" fill="white" fill-opacity="0.4" stroke="white" stroke-width="0.5"/>
</svg>
