<svg width="234" height="60" viewBox="0 0 234 60" fill="none" xmlns="http://www.w3.org/2000/svg">
<path d="M20.889 18.4618L21.4974 18.5895L19.3587 25.3029L0 25.3029L0 24.6279H0.94028C1.99733 24.6279 2.75324 24.2874 3.20801 23.6063C3.46613 23.2171 3.59519 22.3172 3.59519 20.9064L3.59519 4.94383C3.59519 3.39926 3.42311 2.43239 3.07896 2.04321C2.5996 1.50808 1.88671 1.24052 0.94028 1.24052L0 1.24052L0 0.56553L11.3202 0.56553V1.24052C9.99278 1.22836 9.05865 1.34997 8.51783 1.60538C7.98931 1.86078 7.62672 2.18307 7.43006 2.57225C7.2334 2.96143 7.13507 3.89182 7.13507 5.36341L7.13507 20.9064C7.13507 21.9158 7.2334 22.609 7.43006 22.9861C7.57755 23.2415 7.80494 23.43 8.11222 23.5516C8.4195 23.6732 9.37822 23.734 10.9884 23.734L12.8136 23.734C14.7311 23.734 16.0769 23.5942 16.8513 23.3144C17.6256 23.0347 18.3324 22.5421 18.9715 21.8368C19.6107 21.1192 20.2498 19.9942 20.889 18.4618Z" fill="#333333"/>
<path d="M39.5847 1.24052V0.56553L48.4344 0.56553V1.24052L47.4941 1.24052C46.5108 1.24052 45.7549 1.64794 45.2264 2.46279C44.9683 2.83981 44.8392 3.71547 44.8392 5.08977V15.1234C44.8392 17.6044 44.5872 19.5321 44.0833 20.9064C43.5916 22.2685 42.6145 23.4421 41.1518 24.4272C39.7015 25.4002 37.7226 25.8867 35.2152 25.8867C32.4865 25.8867 30.4154 25.4184 29.0019 24.482C27.5884 23.5455 26.5867 22.2867 25.9967 20.7057C25.6034 19.6233 25.4067 17.5922 25.4067 14.6126L25.4067 4.94383C25.4067 3.42358 25.1916 2.42631 24.7614 1.95199C24.3435 1.47768 23.6614 1.24052 22.715 1.24052H21.7747V0.56553L32.5787 0.56553V1.24052L31.62 1.24052C30.5875 1.24052 29.85 1.56281 29.4075 2.20739C29.1003 2.64522 28.9466 3.55737 28.9466 4.94383L28.9466 15.7254C28.9466 16.6862 29.0327 17.7868 29.2047 19.0273C29.3891 20.2679 29.7148 21.2347 30.1819 21.928C30.649 22.6212 31.3188 23.1928 32.1915 23.6428C33.0765 24.0928 34.1581 24.3178 35.4364 24.3178C37.0711 24.3178 38.5338 23.9651 39.8244 23.2597C41.115 22.5543 41.9938 21.6543 42.4608 20.5598C42.9402 19.453 43.1799 17.5862 43.1799 14.9592V4.94383C43.1799 3.39926 43.0078 2.43239 42.6637 2.04321C42.1843 1.50808 41.4714 1.24052 40.525 1.24052H39.5847Z" fill="#333333"/>
<path d="M63.5165 11.6025L68.8816 19.5199C70.3689 21.7091 71.4689 23.0955 72.1818 23.6793C72.907 24.2509 73.8227 24.5671 74.9289 24.6279V25.3029H64.1986V24.6279C64.9115 24.6158 65.4401 24.5428 65.7842 24.409C66.0423 24.2995 66.2513 24.1354 66.4111 23.9164C66.5832 23.6854 66.6692 23.4543 66.6692 23.2232C66.6692 22.9435 66.6139 22.6638 66.5033 22.384C66.4172 22.1773 66.0792 21.6422 65.4892 20.7787L61.2487 14.4301L56.0127 21.0706C55.4596 21.7759 55.1277 22.2503 55.0171 22.4935C54.9065 22.7246 54.8512 22.9678 54.8512 23.2232C54.8512 23.6124 55.0171 23.9347 55.349 24.1901C55.6808 24.4455 56.3138 24.5914 57.2479 24.6279V25.3029L48.3798 25.3029V24.6279C49.0067 24.5671 49.5475 24.4394 50.0023 24.2448C50.7643 23.9286 51.4895 23.5029 52.1778 22.9678C52.8661 22.4327 53.6528 21.6118 54.5377 20.505L60.4375 13.1349L55.5149 6.00191C54.1751 4.06817 53.0382 2.80333 52.1041 2.20739C51.1699 1.59929 50.0944 1.277 48.8776 1.24052V0.56553L60.4375 0.56553V1.24052C59.4542 1.277 58.7782 1.43511 58.4095 1.71483C58.053 1.99456 57.8748 2.30469 57.8748 2.64522C57.8748 3.09521 58.1698 3.75196 58.7598 4.61545L62.5946 10.289L67.0379 4.72491C67.5542 4.06817 67.8676 3.61818 67.9782 3.37494C68.1011 3.1317 68.1626 2.88238 68.1626 2.62698C68.1626 2.37158 68.0888 2.14658 67.9413 1.95199C67.757 1.69659 67.5234 1.52024 67.2407 1.42295C66.958 1.31349 66.3742 1.25268 65.4892 1.24052V0.56553L74.3574 0.56553V1.24052C73.6568 1.277 73.0852 1.38646 72.6427 1.56889C71.979 1.84861 71.3706 2.22563 70.8175 2.69995C70.2644 3.17426 69.4839 4.04992 68.476 5.32693L63.5165 11.6025Z" fill="#333333"/>
<path d="M82.5256 1.9155V11.6937L88.0198 11.6937C89.4456 11.6937 90.3982 11.4809 90.8775 11.0552C91.5167 10.4957 91.8731 9.51063 91.9469 8.09985H92.629V16.7105H91.9469C91.7748 15.5065 91.6027 14.7342 91.4306 14.3937C91.2094 13.968 90.8468 13.6335 90.3429 13.3903C89.8389 13.1471 89.0646 13.0254 88.0198 13.0254L82.5256 13.0254V21.18C82.5256 22.2746 82.5748 22.9435 82.6731 23.1867C82.7715 23.4178 82.9435 23.6063 83.1894 23.7523C83.4352 23.886 83.9022 23.9529 84.5906 23.9529H88.831C90.2445 23.9529 91.2708 23.8556 91.91 23.661C92.5491 23.4665 93.1637 23.0834 93.7537 22.5117C94.5157 21.7577 95.2962 20.6206 96.0952 19.1003H96.8326L94.6755 25.3029L75.409 25.3029V24.6279H76.294C76.8839 24.6279 77.4432 24.4881 77.9717 24.2083C78.365 24.0137 78.6293 23.7219 78.7645 23.3327C78.912 22.9435 78.9857 22.1469 78.9857 20.9429V4.87085C78.9857 3.30197 78.826 2.33509 78.5064 1.97023C78.0639 1.48376 77.3264 1.24052 76.294 1.24052H75.409V0.56553L94.6755 0.56553L94.9521 5.98367H94.233C93.9749 4.68234 93.6861 3.78844 93.3665 3.30197C93.0592 2.81549 92.5983 2.44455 91.9837 2.18915C91.4921 2.00672 90.6256 1.9155 89.3841 1.9155L82.5256 1.9155Z" fill="#333333"/>
<path d="M104.687 1.9155V11.639L109.241 11.639C110.286 11.639 111.048 11.414 111.528 10.964C112.019 10.5018 112.345 9.59577 112.505 8.24579H113.187V16.6193H112.505C112.492 15.6585 112.363 14.9531 112.118 14.5031C111.884 14.0531 111.552 13.7187 111.122 13.4997C110.704 13.2687 110.077 13.1531 109.241 13.1531L104.687 13.1531V20.9246C104.687 22.1773 104.767 23.0043 104.927 23.4056C105.05 23.7097 105.308 23.9712 105.702 24.1901C106.242 24.482 106.808 24.6279 107.398 24.6279H108.301V25.3029L97.5708 25.3029V24.6279H98.4558C99.4883 24.6279 100.238 24.33 100.705 23.734C101 23.3448 101.148 22.4084 101.148 20.9246V4.94383C101.148 3.69115 101.068 2.86414 100.908 2.46279C100.785 2.15874 100.533 1.89726 100.152 1.67835C99.6235 1.38646 99.0581 1.24052 98.4558 1.24052H97.5708V0.56553L116.174 0.56553L116.413 6.00191H115.768C115.448 4.84653 115.074 4.00128 114.643 3.46615C114.225 2.91886 113.703 2.5236 113.076 2.28036C112.462 2.03712 111.503 1.9155 110.2 1.9155L104.687 1.9155Z" fill="#333333"/>
<path d="M131.698 17.0206H122.019L120.323 20.9246C119.905 21.8854 119.696 22.603 119.696 23.0773C119.696 23.4543 119.874 23.7887 120.23 24.0806C120.599 24.3604 121.386 24.5428 122.59 24.6279V25.3029L114.718 25.3029V24.6279C115.763 24.4455 116.439 24.2083 116.746 23.9164C117.373 23.3327 118.067 22.1469 118.829 20.3591L127.624 0L128.269 0L136.971 20.578C137.672 22.232 138.305 23.3083 138.87 23.807C139.448 24.2935 140.247 24.5671 141.267 24.6279V25.3029H131.403V24.6279C132.399 24.5793 133.069 24.4151 133.413 24.1354C133.769 23.8556 133.948 23.5151 133.948 23.1138C133.948 22.5786 133.702 21.7334 133.21 20.578L131.698 17.0206ZM131.182 15.6707L126.942 5.67354L122.59 15.6707L131.182 15.6707Z" fill="#333333"/>
<path d="M163.687 0L164.258 8.40998H163.687C162.925 5.89246 161.837 4.08033 160.424 2.97359C159.01 1.86686 157.314 1.31349 155.335 1.31349C153.676 1.31349 152.176 1.73308 150.836 2.57225C149.497 3.39926 148.44 4.72491 147.665 6.5492C146.903 8.37349 146.522 10.6417 146.522 13.3538C146.522 15.5916 146.885 17.5314 147.61 19.1733C148.335 20.8152 149.423 22.0739 150.873 22.9496C152.336 23.8252 154.001 24.2631 155.87 24.2631C157.492 24.2631 158.924 23.9225 160.165 23.2415C161.407 22.5482 162.771 21.18 164.258 19.1368L164.83 19.5017C163.576 21.703 162.114 23.3144 160.442 24.336C158.77 25.3576 156.785 25.8684 154.487 25.8684C150.345 25.8684 147.137 24.3482 144.863 21.3077C143.167 19.0456 142.319 16.3821 142.319 13.3173C142.319 10.8484 142.878 8.58025 143.996 6.51272C145.115 4.44519 146.651 2.84589 148.606 1.71483C150.572 0.571611 152.717 0 155.04 0C156.847 0 158.629 0.43783 160.387 1.31349C160.903 1.58105 161.272 1.71483 161.493 1.71483C161.825 1.71483 162.114 1.59929 162.359 1.36822C162.679 1.03985 162.906 0.583773 163.042 0L163.687 0Z" fill="#333333"/>
<path d="M173.275 1.9155V11.6937H178.769C180.195 11.6937 181.147 11.4809 181.627 11.0552C182.266 10.4957 182.622 9.51063 182.696 8.09985H183.378V16.7105H182.696C182.524 15.5065 182.352 14.7342 182.18 14.3937C181.959 13.968 181.596 13.6335 181.092 13.3903C180.588 13.1471 179.814 13.0254 178.769 13.0254H173.275V21.18C173.275 22.2746 173.324 22.9435 173.422 23.1867C173.521 23.4178 173.693 23.6063 173.939 23.7523C174.184 23.886 174.651 23.9529 175.34 23.9529H179.58C180.994 23.9529 182.02 23.8556 182.659 23.661C183.298 23.4665 183.913 23.0834 184.503 22.5117C185.265 21.7577 186.045 20.6206 186.844 19.1003H187.582L185.425 25.3029H166.158V24.6279H167.043C167.633 24.6279 168.192 24.4881 168.721 24.2083C169.114 24.0137 169.379 23.7219 169.514 23.3327C169.661 22.9435 169.735 22.1469 169.735 20.9429V4.87085C169.735 3.30197 169.575 2.33509 169.256 1.97023C168.813 1.48376 168.076 1.24052 167.043 1.24052L166.158 1.24052V0.56553L185.425 0.56553L185.701 5.98367L184.982 5.98367C184.724 4.68234 184.435 3.78844 184.116 3.30197C183.808 2.81549 183.348 2.44455 182.733 2.18915C182.241 2.00672 181.375 1.9155 180.133 1.9155L173.275 1.9155Z" fill="#333333"/>
<path d="M224.161 40.8836C224.31 40.9204 224.365 41.0493 224.328 41.2702C224.328 41.4543 224.272 41.5464 224.161 41.5464H217.128C215.677 41.5464 213.369 40.3681 210.207 38.0117C207.267 40.81 203.583 42.2091 199.155 42.2091C196.773 42.2091 194.764 41.8409 193.126 41.1045C191.526 40.3313 190.317 39.3372 189.498 38.1221C188.717 36.8702 188.326 35.5263 188.326 34.0903C188.326 32.0652 188.977 30.2979 190.28 28.7882C191.582 27.2786 193.48 25.6401 195.973 23.8728C195.341 22.9891 194.782 22.0686 194.299 21.1113C193.219 18.8653 192.68 16.8586 192.68 15.0912C192.68 13.3975 193.071 11.851 193.852 10.4519C194.671 9.05273 195.806 7.94813 197.257 7.13809C198.745 6.29123 200.457 5.8678 202.392 5.8678C204.364 5.8678 206.002 6.30964 207.304 7.19332C208.606 8.077 209.258 9.45775 209.258 11.3356C209.258 12.7347 208.886 14.005 208.141 15.1464C207.434 16.2879 206.56 17.282 205.518 18.1289C204.476 18.9757 203.025 20.0251 201.164 21.277L200.048 21.995C202.653 26.0452 206.56 30.0769 211.769 34.0903C212.737 32.1757 213.221 30.0033 213.221 27.5732C213.221 25.9899 212.923 24.8301 212.328 24.0937C211.769 23.3205 210.69 22.9339 209.09 22.9339C208.979 22.9339 208.904 22.8234 208.867 22.6025C208.867 22.3816 208.941 22.2711 209.09 22.2711L221.258 22.2159C221.407 22.2159 221.482 22.3263 221.482 22.5473C221.482 22.7682 221.407 22.8786 221.258 22.8786C220.03 22.8786 219.119 23.0075 218.523 23.2652C217.928 23.4862 217.5 23.836 217.239 24.3146C216.979 24.7565 216.7 25.4744 216.402 26.4686C215.36 29.9665 214.151 32.7648 212.774 34.8635C215.081 36.5204 217.221 37.8644 219.193 38.8953C221.165 39.9263 222.821 40.5891 224.161 40.8836ZM196.531 11.9983C196.531 14.8703 197.536 17.9448 199.545 21.2217C201.294 19.8226 202.653 18.4234 203.62 17.0243C204.625 15.6251 205.127 14.0602 205.127 12.3297C205.127 10.7096 204.699 9.43934 203.843 8.51884C202.987 7.59834 201.871 7.13809 200.494 7.13809C197.852 7.13809 196.531 8.75817 196.531 11.9983ZM202.225 40.2209C205.053 40.2209 207.453 39.2819 209.425 37.4041L207.974 36.2443C205.816 34.5874 203.713 32.7464 201.666 30.7213C199.657 28.6594 197.927 26.6159 196.475 24.5908C195.248 25.6585 194.28 26.7816 193.573 27.9598C192.903 29.1012 192.568 30.3715 192.568 31.7707C192.568 33.2803 192.978 34.6794 193.796 35.9681C194.615 37.2568 195.75 38.2878 197.201 39.061C198.652 39.8342 200.327 40.2209 202.225 40.2209Z" fill="#E6252D"/>
<path d="M53.7191 52.5751L54.3275 52.7028L52.1888 59.4162H32.8301V58.7412H33.7704C34.8274 58.7412 35.5833 58.4007 36.0381 57.7196C36.2962 57.3305 36.4253 56.4305 36.4253 55.0197V39.0572C36.4253 37.5126 36.2532 36.5457 35.909 36.1565C35.4297 35.6214 34.7168 35.3538 33.7704 35.3538H32.8301V34.6789H44.1503V35.3538C42.8229 35.3417 41.8887 35.4633 41.3479 35.7187C40.8194 35.9741 40.4568 36.2964 40.2601 36.6856C40.0635 37.0748 39.9651 38.0051 39.9651 39.4767V55.0197C39.9651 56.0291 40.0635 56.7224 40.2601 57.0994C40.4076 57.3548 40.635 57.5433 40.9423 57.6649C41.2496 57.7865 42.2083 57.8473 43.8185 57.8473H45.6437C47.5611 57.8473 48.907 57.7075 49.6814 57.4278C50.4557 57.148 51.1625 56.6555 51.8016 55.9501C52.4408 55.2325 53.0799 54.1075 53.7191 52.5751Z" fill="#333333"/>
<path d="M72.4148 35.3538V34.6789H81.2645V35.3538H80.3242C79.3409 35.3538 78.585 35.7613 78.0565 36.5761C77.7983 36.9531 77.6693 37.8288 77.6693 39.2031V49.2367C77.6693 51.7177 77.4173 53.6454 76.9134 55.0197C76.4217 56.3818 75.4446 57.5555 73.9819 58.5406C72.5315 59.5135 70.5527 60 68.0452 60C65.3166 60 63.2455 59.5318 61.832 58.5953C60.4185 57.6588 59.4168 56.4001 58.8268 54.819C58.4335 53.7366 58.2368 51.7056 58.2368 48.7259V39.0572C58.2368 37.5369 58.0217 36.5396 57.5915 36.0653C57.1736 35.591 56.4915 35.3538 55.545 35.3538H54.6048V34.6789L65.4088 34.6789V35.3538H64.4501C63.4176 35.3538 62.6801 35.6761 62.2376 36.3207C61.9303 36.7585 61.7767 37.6707 61.7767 39.0572V49.8387C61.7767 50.7995 61.8627 51.9002 62.0348 53.1407C62.2192 54.3812 62.5449 55.3481 63.012 56.0413C63.479 56.7345 64.1489 57.3061 65.0216 57.7561C65.9066 58.2061 66.9882 58.4311 68.2665 58.4311C69.9012 58.4311 71.3639 58.0784 72.6545 57.373C73.945 56.6676 74.8239 55.7677 75.2909 54.6731C75.7703 53.5663 76.01 51.6995 76.01 49.0725V39.0572C76.01 37.5126 75.8379 36.5457 75.4937 36.1565C75.0144 35.6214 74.3015 35.3538 73.3551 35.3538H72.4148Z" fill="#333333"/>
<path d="M96.3466 45.7158L101.712 53.6332C103.199 55.8224 104.299 57.2088 105.012 57.7926C105.737 58.3642 106.653 58.6804 107.759 58.7412V59.4162H97.0287V58.7412C97.7416 58.7291 98.2702 58.6561 98.6143 58.5223C98.8724 58.4129 99.0814 58.2487 99.2412 58.0298C99.4132 57.7987 99.4993 57.5676 99.4993 57.3365C99.4993 57.0568 99.444 56.7771 99.3334 56.4974C99.2473 56.2906 98.9093 55.7555 98.3193 54.892L94.0788 48.5435L88.8428 55.1839C88.2897 55.8893 87.9578 56.3636 87.8472 56.6068C87.7366 56.8379 87.6812 57.0811 87.6812 57.3365C87.6812 57.7257 87.8472 58.048 88.179 58.3034C88.5109 58.5588 89.1439 58.7048 90.078 58.7412V59.4162L81.2099 59.4162V58.7412C81.8368 58.6804 82.3776 58.5527 82.8323 58.3581C83.5944 58.0419 84.3196 57.6163 85.0079 57.0811C85.6962 56.546 86.4828 55.7251 87.3678 54.6184L93.2676 47.2482L88.345 40.1152C87.0052 38.1815 85.8683 36.9167 84.9342 36.3207C84 35.7126 82.9245 35.3903 81.7077 35.3538V34.6789H93.2676V35.3538C92.2843 35.3903 91.6083 35.5484 91.2396 35.8282C90.8831 36.1079 90.7049 36.418 90.7049 36.7585C90.7049 37.2085 90.9999 37.8653 91.5899 38.7288L95.4247 44.4023L99.868 38.8382C100.384 38.1815 100.698 37.7315 100.808 37.4883C100.931 37.245 100.993 36.9957 100.993 36.7403C100.993 36.4849 100.919 36.2599 100.771 36.0653C100.587 35.8099 100.354 35.6336 100.071 35.5363C99.7881 35.4268 99.2043 35.366 98.3193 35.3538V34.6789L107.187 34.6789V35.3538C106.487 35.3903 105.915 35.4998 105.473 35.6822C104.809 35.9619 104.201 36.339 103.648 36.8133C103.094 37.2876 102.314 38.1633 101.306 39.4403L96.3466 45.7158Z" fill="#333333"/>
<path d="M115.356 36.0288V45.807H120.85C122.276 45.807 123.228 45.5942 123.708 45.1685C124.347 44.6091 124.703 43.624 124.777 42.2132H125.459V50.8238H124.777C124.605 49.6198 124.433 48.8475 124.261 48.507C124.039 48.0813 123.677 47.7469 123.173 47.5036C122.669 47.2604 121.895 47.1388 120.85 47.1388H115.356V55.2933C115.356 56.3879 115.405 57.0568 115.503 57.3001C115.602 57.5311 115.774 57.7196 116.019 57.8656C116.265 57.9994 116.732 58.0663 117.421 58.0663H121.661C123.075 58.0663 124.101 57.969 124.74 57.7744C125.379 57.5798 125.994 57.1967 126.584 56.6251C127.346 55.871 128.126 54.7339 128.925 53.2136H129.663L127.506 59.4162H108.239V58.7412H109.124C109.714 58.7412 110.273 58.6014 110.802 58.3217C111.195 58.1271 111.459 57.8352 111.595 57.446C111.742 57.0568 111.816 56.2602 111.816 55.0562V38.9842C111.816 37.4153 111.656 36.4484 111.336 36.0836C110.894 35.5971 110.157 35.3538 109.124 35.3538H108.239V34.6789H127.506L127.782 40.097H127.063C126.805 38.7957 126.516 37.9018 126.197 37.4153C125.889 36.9288 125.428 36.5579 124.814 36.3025C124.322 36.12 123.456 36.0288 122.214 36.0288H115.356Z" fill="#333333"/>
<path d="M147.234 46.7921C148.967 47.157 150.264 47.7408 151.124 48.5435C152.316 49.6624 152.912 51.0306 152.912 52.6481C152.912 53.8765 152.519 55.0562 151.732 56.1872C150.946 57.3061 149.864 58.1271 148.488 58.65C147.123 59.1608 145.034 59.4162 142.219 59.4162H130.419V58.7412H131.36C132.404 58.7412 133.154 58.4129 133.609 57.7561C133.892 57.3305 134.033 56.4244 134.033 55.0379V39.0572C134.033 37.5247 133.855 36.5579 133.498 36.1565C133.019 35.6214 132.306 35.3538 131.36 35.3538H130.419V34.6789H141.223C143.239 34.6789 144.855 34.8248 146.072 35.1167C147.916 35.5545 149.323 36.3329 150.294 37.4518C151.265 38.5585 151.751 39.8355 151.751 41.2828C151.751 42.5233 151.37 43.6361 150.608 44.6212C149.846 45.5942 148.721 46.3178 147.234 46.7921ZM137.573 45.807C138.028 45.8922 138.544 45.9591 139.122 46.0077C139.712 46.0442 140.357 46.0624 141.057 46.0624C142.852 46.0624 144.198 45.8739 145.095 45.4969C146.005 45.1077 146.699 44.5179 147.179 43.7273C147.658 42.9368 147.898 42.0733 147.898 41.1368C147.898 39.6896 147.301 38.4551 146.109 37.4335C144.917 36.4119 143.178 35.9011 140.892 35.9011C139.662 35.9011 138.556 36.0349 137.573 36.3025V45.807ZM137.573 57.6284C138.999 57.9568 140.406 58.121 141.795 58.121C144.02 58.121 145.716 57.6284 146.884 56.6433C148.051 55.646 148.635 54.4177 148.635 52.9582C148.635 51.9975 148.371 51.0731 147.842 50.1853C147.314 49.2975 146.453 48.5982 145.261 48.0874C144.069 47.5766 142.594 47.3212 140.836 47.3212C140.074 47.3212 139.423 47.3334 138.882 47.3577C138.341 47.382 137.905 47.4246 137.573 47.4854V57.6284Z" fill="#333333"/>
<path d="M168.031 34.1133C171.276 34.1133 174.085 35.3356 176.457 37.7802C178.841 40.2125 180.034 43.253 180.034 46.9016C180.034 50.6596 178.835 53.7792 176.439 56.2602C174.042 58.7412 171.141 59.9818 167.736 59.9818C164.295 59.9818 161.4 58.7717 159.053 56.3514C156.717 53.9312 155.55 50.7995 155.55 46.9563C155.55 43.028 156.902 39.8234 159.606 37.3423C161.953 35.1897 164.762 34.1133 168.031 34.1133ZM167.681 35.4451C165.444 35.4451 163.65 36.266 162.297 37.9079C160.614 39.9511 159.772 42.9429 159.772 46.8834C159.772 50.9211 160.644 54.0285 162.39 56.2055C163.729 57.8595 165.499 58.6865 167.699 58.6865C170.047 58.6865 171.983 57.7805 173.507 55.9683C175.044 54.1562 175.812 51.2981 175.812 47.3942C175.812 43.1618 174.97 40.0058 173.286 37.9261C171.934 36.2721 170.066 35.4451 167.681 35.4451Z" fill="#333333"/>
<path d="M181.399 59.4162V58.7412H182.339C183.396 58.7412 184.146 58.4068 184.588 57.7379C184.859 57.3365 184.994 56.4366 184.994 55.0379V39.0572C184.994 37.5126 184.822 36.5457 184.478 36.1565C183.998 35.6214 183.286 35.3538 182.339 35.3538H181.399V34.6789L191.576 34.6789C195.312 34.6789 198.152 35.0984 200.094 35.9376C202.048 36.7768 203.615 38.1754 204.795 40.1335C205.987 42.0916 206.584 44.3537 206.584 46.9198C206.584 50.3617 205.527 53.238 203.412 55.5487C201.04 58.1271 197.427 59.4162 192.572 59.4162H181.399ZM188.534 57.6284C190.095 57.969 191.404 58.1392 192.461 58.1392C195.312 58.1392 197.679 57.148 199.559 55.1656C201.44 53.1832 202.38 50.4955 202.38 47.1023C202.38 43.6848 201.44 40.9909 199.559 39.0207C197.679 37.0504 195.263 36.0653 192.313 36.0653C191.207 36.0653 189.947 36.2417 188.534 36.5944V57.6284Z" fill="#333333"/>
<path d="M225.279 34.6789L234 34.6789V35.3538H233.521C233.201 35.3538 232.734 35.4937 232.119 35.7734C231.505 36.0532 230.946 36.4545 230.442 36.9775C229.938 37.5004 229.317 38.3518 228.579 39.5315L222.551 48.9266V55.1292C222.551 56.6494 222.723 57.598 223.067 57.975C223.534 58.4858 224.271 58.7412 225.279 58.7412H226.091V59.4162H215.471V58.7412H216.356C217.413 58.7412 218.163 58.425 218.605 57.7926C218.876 57.4034 219.011 56.5156 219.011 55.1292V49.2732L212.152 38.9112C211.341 37.695 210.788 36.9349 210.493 36.6308C210.21 36.3268 209.614 35.9619 208.705 35.5363C208.459 35.4147 208.102 35.3538 207.635 35.3538V34.6789H218.329V35.3538H217.775C217.198 35.3538 216.663 35.4876 216.171 35.7552C215.692 36.0228 215.452 36.4241 215.452 36.9592C215.452 37.397 215.827 38.1876 216.577 39.3308L221.795 47.3029L226.699 39.6774C227.436 38.5342 227.805 37.6829 227.805 37.1234C227.805 36.7829 227.713 36.4788 227.529 36.2113C227.357 35.9437 227.105 35.7369 226.773 35.591C226.441 35.4329 225.943 35.3538 225.279 35.3538V34.6789Z" fill="#333333"/>
</svg>
