<svg width="100" height="720" viewBox="0 0 100 720" fill="none" xmlns="http://www.w3.org/2000/svg">
<path d="M71.3178 639.916L71.8111 637.584L97.7449 645.783L97.7449 720L95.1374 720L95.1374 716.395C95.1374 712.343 93.8219 709.445 91.191 707.701C89.6876 706.712 86.2109 706.217 80.7611 706.217L19.098 706.217C13.1313 706.217 9.39629 706.877 7.89288 708.196C5.8257 710.034 4.79211 712.767 4.79211 716.395L4.79211 720L2.18464 720L2.18464 676.601L4.79211 676.601C4.74512 681.69 5.21494 685.271 6.20155 687.344C7.18816 689.371 8.43317 690.761 9.93657 691.515C11.44 692.269 15.0341 692.646 20.7188 692.646L80.7611 692.646C84.6606 692.646 87.3385 692.269 88.7949 691.515C89.7815 690.949 90.5097 690.078 90.9796 688.899C91.4494 687.721 91.6843 684.046 91.6843 677.873L91.6843 670.875C91.6843 663.524 91.144 658.364 90.0634 655.396C88.9828 652.427 87.0801 649.718 84.3552 647.267C81.5833 644.817 77.2375 642.366 71.3178 639.916Z" fill="#333333"/>
<path d="M4.7921 568.241L2.18463 568.241L2.18463 534.313L4.7921 534.313L4.7921 537.918C4.7921 541.688 6.36598 544.586 9.51373 546.612C10.9702 547.601 14.3528 548.096 19.6617 548.096L58.4214 548.096C68.0056 548.096 75.4522 549.062 80.7611 550.994C86.023 552.879 90.5567 556.625 94.3622 562.233C98.1207 567.793 100 575.38 100 584.993C100 595.454 98.1912 603.394 94.5736 608.813C90.9561 614.232 86.0935 618.072 79.9859 620.334C75.8045 621.842 67.9587 622.596 56.4482 622.596L19.098 622.596C13.2253 622.596 9.37279 623.421 7.54052 625.07C5.70824 626.672 4.7921 629.287 4.7921 632.916L4.7921 636.521L2.18463 636.521L2.18463 595.1L4.7921 595.1L4.7921 598.776C4.7921 602.734 6.03711 605.561 8.52713 607.258C10.2185 608.436 13.7421 609.025 19.098 609.025L60.747 609.025C64.4585 609.025 68.7104 608.695 73.5025 608.035C78.2946 607.328 82.0296 606.08 84.7075 604.289C87.3855 602.498 89.5936 599.93 91.3319 596.585C93.0702 593.192 93.9394 589.045 93.9394 584.144C93.9394 577.877 92.5769 572.27 89.852 567.322C87.1271 562.374 83.6505 559.005 79.4221 557.214C75.1468 555.376 67.9352 554.458 57.7872 554.458L19.0979 554.458C13.1313 554.458 9.39628 555.117 7.89288 556.437C5.82569 558.274 4.7921 561.008 4.7921 564.636L4.7921 568.241Z" fill="#333333"/>
<path d="M44.8203 476.491L75.4052 455.923C83.8619 450.221 89.2177 446.003 91.4729 443.27C93.681 440.49 94.9025 436.98 95.1374 432.739L97.7449 432.739L97.7449 473.876L95.1374 473.876C95.0904 471.143 94.8085 469.117 94.2917 467.797C93.8689 466.808 93.2347 466.007 92.389 465.394C91.4963 464.734 90.6037 464.405 89.711 464.405C88.6305 464.405 87.5499 464.617 86.4693 465.041C85.6707 465.371 83.6035 466.666 80.2678 468.928L55.7435 485.185L81.3953 505.259C84.1203 507.38 85.9525 508.652 86.8922 509.076C87.7848 509.5 88.7244 509.712 89.7111 509.712C91.2145 509.712 92.4595 509.076 93.4461 507.804C94.4327 506.532 94.9965 504.105 95.1374 500.524L97.7449 500.524L97.7449 534.522L95.1374 534.522C94.9025 532.119 94.4092 530.046 93.6575 528.302C92.436 525.38 90.7916 522.6 88.7244 519.961C86.6573 517.323 83.486 514.307 79.2107 510.914L50.7399 488.295L23.1853 507.168C15.7153 512.304 10.8292 516.663 8.52712 520.244C6.17805 523.825 4.93304 527.949 4.7921 532.614L2.18463 532.614L2.18463 488.295L4.7921 488.295C4.93304 492.065 5.5438 494.657 6.62437 496.071C7.70495 497.437 8.90297 498.12 10.2185 498.12C11.9568 498.12 14.4938 496.989 17.8294 494.728L39.7463 480.026L18.2523 462.991C15.7153 461.012 13.977 459.81 13.0373 459.386C12.0977 458.915 11.1346 458.679 10.148 458.679C9.16137 458.679 8.29221 458.962 7.54051 459.527C6.5539 460.234 5.87267 461.13 5.49682 462.213C5.07398 463.297 4.83908 465.536 4.7921 468.928L2.18463 468.928L2.18462 434.93L4.79209 434.93C4.93304 437.616 5.35587 439.807 6.06059 441.503C7.14117 444.048 8.59759 446.38 10.4299 448.501C12.2621 450.621 15.6448 453.614 20.5779 457.478L44.8203 476.491Z" fill="#333333"/>
<path d="M7.39956 403.614L45.1726 403.614L45.1726 382.551C45.1726 377.085 44.3505 373.433 42.7061 371.595C40.545 369.145 36.7395 367.778 31.2896 367.495L31.2896 364.88L64.5525 364.88L64.5525 367.495C59.9013 368.155 56.918 368.815 55.6025 369.475C53.9582 370.323 52.6662 371.713 51.7266 373.645C50.7869 375.577 50.3171 378.545 50.3171 382.551L50.3171 403.614L81.8182 403.614C86.0465 403.614 88.6305 403.426 89.5701 403.049C90.4627 402.672 91.191 402.012 91.7547 401.07C92.2715 400.127 92.5299 398.337 92.5299 395.698L92.5299 379.441C92.5299 374.022 92.1541 370.087 91.4024 367.637C90.6507 365.186 89.1708 362.83 86.9626 360.568C84.0498 357.647 79.657 354.655 73.7843 351.592L73.7843 348.764L97.7449 357.034L97.7449 430.898L95.1374 430.898L95.1374 427.505C95.1374 425.243 94.5971 423.099 93.5165 421.073C92.7648 419.565 91.6373 418.552 90.1339 418.034C88.6305 417.468 85.5532 417.186 80.902 417.186L18.8161 417.186C12.7554 417.186 9.02042 417.798 7.61098 419.023C5.73172 420.72 4.79209 423.547 4.79209 427.505L4.79209 430.898L2.18462 430.898L2.18462 357.034L23.1149 355.974L23.1149 358.731C18.0878 359.72 14.6347 360.828 12.7554 362.053C10.8762 363.231 9.44325 364.998 8.45664 367.354C7.75192 369.239 7.39956 372.561 7.39956 377.32L7.39956 403.614Z" fill="#333333"/>
<path d="M7.39956 318.651L44.9612 318.651L44.9612 301.192C44.9612 297.186 44.0921 294.265 42.3537 292.427C40.5685 290.542 37.0683 289.294 31.8534 288.681L31.8534 286.066L64.2001 286.066L64.2001 288.681C60.4886 288.728 57.7637 289.223 56.0253 290.165C54.287 291.061 52.995 292.333 52.1494 293.982C51.2567 295.584 50.8104 297.988 50.8104 301.192L50.8104 318.651L80.8315 318.651C85.6706 318.651 88.8654 318.344 90.4158 317.732C91.5903 317.26 92.6004 316.271 93.4461 314.763C94.5736 312.69 95.1374 310.522 95.1374 308.26L95.1374 304.797L97.7449 304.797L97.7449 345.934L95.1374 345.934L95.1374 342.541C95.1374 338.583 93.9864 335.709 91.6843 333.918C90.1809 332.787 86.5633 332.222 80.8315 332.222L19.0979 332.222C14.2589 332.222 11.0641 332.528 9.51372 333.141C8.33919 333.612 7.32909 334.578 6.48342 336.039C5.35587 338.065 4.79209 340.232 4.79209 342.541L4.79209 345.934L2.18462 345.934L2.18462 274.615L23.1853 273.696L23.1853 276.17C18.7221 277.395 15.4569 278.832 13.3897 280.482C11.2755 282.084 9.74863 284.087 8.809 286.49C7.86937 288.846 7.39956 292.521 7.39956 297.516L7.39956 318.651Z" fill="#E6252D"/>
<path d="M65.7505 215.097L65.7505 252.206L80.8315 258.709C84.5431 260.311 87.315 261.112 89.1473 261.112C90.6037 261.112 91.8957 260.429 93.0232 259.062C94.1038 257.648 94.8085 254.633 95.1374 250.015L97.7449 250.015L97.7449 280.196L95.1374 280.196C94.4327 276.191 93.5165 273.599 92.389 272.421C90.1339 270.018 85.5532 267.355 78.6469 264.434L-2.13872e-05 230.718L-2.14953e-05 228.244L79.4926 194.882C85.882 192.196 90.0399 189.769 91.9661 187.601C93.8454 185.387 94.9025 182.324 95.1374 178.413L97.7449 178.413L97.7449 216.228L95.1374 216.228C94.9495 212.411 94.3152 209.843 93.2347 208.524C92.1541 207.157 90.8386 206.474 89.2882 206.474C87.221 206.474 83.9558 207.416 79.4926 209.301L65.7505 215.097ZM60.5356 217.076L21.9168 233.333L60.5356 250.015L60.5356 217.076Z" fill="#E6252D"/>
<path d="M-2.74307e-05 92.4594L32.4876 90.2682L32.4876 92.4593C22.7625 95.3809 15.7622 99.5512 11.4869 104.97C7.21162 110.389 5.07397 116.892 5.07397 124.479C5.07397 130.84 6.69483 136.589 9.93655 141.725C13.1313 146.862 18.2523 150.914 25.2995 153.883C32.3467 156.804 41.1087 158.265 51.5856 158.265C60.2302 158.265 67.7237 156.875 74.0662 154.095C80.4087 151.315 85.2713 147.144 88.654 141.584C92.0366 135.976 93.7279 129.591 93.7279 122.429C93.7279 116.209 92.4125 110.719 89.7815 105.96C87.1036 101.2 81.8182 95.97 73.9253 90.2682L75.3347 88.077C83.8384 92.8835 90.0634 98.491 94.0098 104.9C97.9563 111.308 99.9295 118.918 99.9295 127.73C99.9295 143.61 94.0568 155.909 82.3115 164.627C73.5729 171.13 63.284 174.381 51.4447 174.381C41.9074 174.381 33.1454 172.237 25.1585 167.949C17.1717 163.661 10.9936 157.77 6.62436 150.278C2.2081 142.739 -2.55923e-05 134.516 -2.59816e-05 125.61C-2.62844e-05 118.683 1.69131 111.85 5.07397 105.112C6.10756 103.133 6.62436 101.719 6.62436 100.871C6.62436 99.5983 6.17803 98.491 5.28539 97.5485C4.01689 96.3234 2.25508 95.4516 -2.73225e-05 94.9332L-2.74307e-05 92.4594Z" fill="#E6252D"/>
<path d="M7.39955 55.7014L45.1726 55.7014L45.1726 34.6378C45.1726 29.1717 44.3505 25.5197 42.7061 23.6819C40.545 21.2316 36.7395 19.865 31.2896 19.5823L31.2896 16.967L64.5525 16.967L64.5525 19.5823C59.9013 20.2421 56.918 20.9017 55.6025 21.5615C53.9582 22.4097 52.6662 23.7997 51.7265 25.7317C50.7869 27.6638 50.3171 30.6324 50.3171 34.6378L50.3171 55.7014L81.8181 55.7014C86.0465 55.7014 88.6305 55.5128 89.5701 55.1359C90.4627 54.7589 91.1909 54.0992 91.7547 53.1567C92.2715 52.2143 92.5299 50.4237 92.5299 47.7848L92.5299 31.5278C92.5299 26.1088 92.1541 22.174 91.4024 19.7237C90.6507 17.2734 89.1707 14.9172 86.9626 12.6554C84.0498 9.73382 79.657 6.74157 73.7843 3.67865L73.7843 0.851315L97.7449 9.12127L97.7449 82.985L95.1374 82.985L95.1374 79.5922C95.1374 77.3304 94.5971 75.1863 93.5165 73.16C92.7648 71.6521 91.6373 70.639 90.1339 70.1207C88.6305 69.5552 85.5532 69.2725 80.902 69.2725L18.816 69.2725C12.7554 69.2725 9.02041 69.8851 7.61097 71.1102C5.73171 72.8066 4.79208 75.634 4.79208 79.5922L4.79208 82.985L2.18461 82.985L2.18461 9.12128L23.1148 8.06103L23.1148 10.8176C18.0878 11.8072 14.6347 12.9146 12.7554 14.1398C10.8762 15.3178 9.44324 17.0849 8.45663 19.441C7.75191 21.3259 7.39955 24.6479 7.39955 29.4073L7.39955 55.7014Z" fill="#E6252D"/>
</svg>
