<svg width="40" height="280" viewBox="0 0 40 280" fill="none" xmlns="http://www.w3.org/2000/svg">
<path d="M28.5271 248.819L28.7245 247.911L39.098 251.104L39.098 280L38.055 280L38.055 278.596C38.055 277.019 37.5288 275.89 36.4764 275.211C35.875 274.826 34.4844 274.634 32.3044 274.634L7.63918 274.634C5.25252 274.634 3.75852 274.89 3.15715 275.404C2.33028 276.12 1.91684 277.184 1.91684 278.596L1.91684 280L0.873855 280L0.873854 263.102L1.91684 263.102C1.89805 265.084 2.08598 266.478 2.48062 267.286C2.87526 268.075 3.37327 268.616 3.97463 268.909C4.57599 269.203 6.01362 269.35 8.28753 269.35L32.3044 269.35C33.8642 269.35 34.9354 269.203 35.518 268.909C35.9126 268.689 36.2039 268.35 36.3918 267.891C36.5797 267.432 36.6737 266.001 36.6737 263.598L36.6737 260.873C36.6737 258.011 36.4576 256.002 36.0254 254.846C35.5931 253.691 34.832 252.636 33.7421 251.682C32.6333 250.727 30.895 249.773 28.5271 248.819Z" fill="#333333"/>
<path d="M1.91684 220.913L0.873852 220.913L0.873852 207.703L1.91684 207.703L1.91684 209.106C1.91684 210.574 2.54639 211.702 3.80549 212.491C4.38806 212.877 5.74113 213.069 7.86469 213.069L23.3686 213.069C27.2023 213.069 30.1809 213.445 32.3044 214.198C34.4092 214.932 36.2227 216.39 37.7449 218.573C39.2483 220.738 40 223.692 40 227.435C40 231.508 39.2765 234.599 37.8295 236.709C36.3824 238.819 34.4374 240.315 31.9944 241.195C30.3218 241.782 27.1835 242.076 22.5793 242.076L7.63918 242.076C5.29011 242.076 3.74912 242.397 3.01621 243.039C2.2833 243.663 1.91684 244.681 1.91684 246.094L1.91684 247.497L0.873853 247.497L0.873853 231.37L1.91684 231.37L1.91684 232.801C1.91684 234.343 2.41484 235.443 3.41085 236.104C4.08738 236.563 5.49683 236.792 7.63918 236.792L24.2988 236.792C25.7834 236.792 27.4841 236.663 29.401 236.407C31.3178 236.131 32.8118 235.645 33.883 234.948C34.9542 234.251 35.8374 233.251 36.5328 231.948C37.2281 230.627 37.5758 229.013 37.5758 227.105C37.5758 224.665 37.0308 222.481 35.9408 220.555C34.8508 218.628 33.4602 217.317 31.7688 216.619C30.0587 215.904 27.1741 215.546 23.1149 215.546L7.63918 215.546C5.25252 215.546 3.75851 215.803 3.15715 216.317C2.33028 217.032 1.91684 218.096 1.91684 219.509L1.91684 220.913Z" fill="#333333"/>
<path d="M17.9281 185.19L30.1621 177.182C33.5447 174.962 35.6871 173.32 36.5891 172.256C37.4724 171.173 37.961 169.806 38.055 168.155L39.098 168.155L39.098 184.172L38.055 184.172C38.0362 183.108 37.9234 182.319 37.7167 181.805C37.5476 181.42 37.2939 181.108 36.9556 180.869C36.5985 180.613 36.2415 180.484 35.8844 180.484C35.4522 180.484 35.02 180.567 34.5877 180.732C34.2683 180.86 33.4414 181.365 32.1071 182.245L22.2974 188.575L32.5581 196.391C33.6481 197.217 34.381 197.712 34.7569 197.877C35.1139 198.042 35.4898 198.125 35.8844 198.125C36.4858 198.125 36.9838 197.877 37.3784 197.382C37.7731 196.886 37.9986 195.941 38.055 194.547L39.098 194.547L39.098 207.784L38.055 207.784C37.961 206.849 37.7637 206.041 37.463 205.363C36.9744 204.225 36.3167 203.143 35.4898 202.115C34.6629 201.088 33.3944 199.914 31.6843 198.593L20.296 189.786L9.27413 197.134C6.28611 199.134 4.33169 200.831 3.41085 202.225C2.47122 203.62 1.97322 205.225 1.91684 207.041L0.873852 207.041L0.873851 189.786L1.91684 189.786C1.97322 191.254 2.21752 192.263 2.64975 192.813C3.08198 193.345 3.56119 193.611 4.08738 193.611C4.78271 193.611 5.79751 193.171 7.13178 192.29L15.8985 186.566L7.30091 179.934C6.28611 179.163 5.59079 178.695 5.21494 178.53C4.83908 178.347 4.45384 178.255 4.05919 178.255C3.66455 178.255 3.31689 178.365 3.0162 178.585C2.62156 178.86 2.34907 179.209 2.19873 179.631C2.02959 180.053 1.93563 180.924 1.91684 182.245L0.873851 182.245L0.87385 169.008L1.91684 169.008C1.97322 170.054 2.14235 170.907 2.42424 171.568C2.85647 172.558 3.43904 173.466 4.17195 174.292C4.90486 175.118 6.25792 176.283 8.23114 177.787L17.9281 185.19Z" fill="#333333"/>
<path d="M2.95983 156.816L18.0691 156.816L18.0691 148.614C18.0691 146.486 17.7402 145.064 17.0824 144.349C16.218 143.395 14.6958 142.863 12.5159 142.753L12.5159 141.734L25.821 141.734L25.821 142.753C23.9605 143.009 22.7672 143.266 22.241 143.523C21.5833 143.853 21.0665 144.395 20.6906 145.147C20.3148 145.899 20.1268 147.055 20.1268 148.614L20.1268 156.816L32.7273 156.816C34.4186 156.816 35.4522 156.742 35.828 156.595C36.1851 156.449 36.4764 156.192 36.7019 155.825C36.9086 155.458 37.012 154.761 37.012 153.733L37.012 147.404C37.012 145.294 36.8616 143.762 36.561 142.808C36.2603 141.854 35.6683 140.936 34.7851 140.056C33.6199 138.918 31.8628 137.753 29.5137 136.56L29.5137 135.46L39.098 138.68L39.098 167.438L38.055 167.438L38.055 166.117C38.055 165.237 37.8388 164.402 37.4066 163.613C37.1059 163.026 36.6549 162.631 36.0536 162.43C35.4522 162.209 34.2213 162.099 32.3608 162.099L7.52642 162.099C5.10218 162.099 3.60817 162.338 3.04439 162.815C2.29269 163.475 1.91684 164.576 1.91684 166.117L1.91684 167.438L0.87385 167.438L0.873849 138.68L9.24594 138.267L9.24594 139.34C7.23514 139.725 5.85388 140.157 5.10218 140.634C4.35048 141.092 3.7773 141.78 3.38266 142.698C3.10077 143.431 2.95983 144.725 2.95983 146.578L2.95983 156.816Z" fill="#333333"/>
<path d="M2.95982 123.735L17.9845 123.735L17.9845 116.937C17.9845 115.378 17.6368 114.24 16.9415 113.525C16.2274 112.791 14.8273 112.305 12.7414 112.066L12.7414 111.048L25.6801 111.048L25.6801 112.066C24.1954 112.085 23.1055 112.277 22.4101 112.644C21.7148 112.993 21.198 113.488 20.8598 114.13C20.5027 114.754 20.3242 115.69 20.3242 116.937L20.3242 123.735L32.3326 123.735C34.2683 123.735 35.5462 123.616 36.1663 123.377C36.6361 123.194 37.0402 122.808 37.3784 122.221C37.8294 121.414 38.055 120.57 38.055 119.689L38.055 118.341L39.098 118.341L39.098 134.358L38.055 134.358L38.055 133.037C38.055 131.496 37.5945 130.376 36.6737 129.679C36.0723 129.239 34.6253 129.019 32.3326 129.019L7.63918 129.019C5.70354 129.019 4.42564 129.138 3.80549 129.377C3.33568 129.56 2.93164 129.936 2.59337 130.505C2.14235 131.294 1.91684 132.138 1.91684 133.037L1.91684 134.358L0.873848 134.358L0.873847 106.59L9.27413 106.232L9.27413 107.195C7.48883 107.672 6.18275 108.232 5.35588 108.874C4.51021 109.498 3.89945 110.277 3.5236 111.213C3.14775 112.13 2.95982 113.562 2.95982 115.506L2.95982 123.735Z" fill="#E6252D"/>
<path d="M26.3002 83.4165L26.3002 97.8647L32.3326 100.397C33.8172 101.02 34.926 101.332 35.6589 101.332C36.2415 101.332 36.7583 101.066 37.2093 100.534C37.6415 99.9837 37.9234 98.8095 38.055 97.0115L39.0979 97.0115L39.098 108.763L38.055 108.763C37.7731 107.203 37.4066 106.194 36.9556 105.735C36.0536 104.8 34.2213 103.763 31.4588 102.626L-8.32709e-06 89.4985L-8.36919e-06 88.5353L31.797 75.5456C34.3528 74.4999 36.016 73.555 36.7865 72.711C37.5382 71.8487 37.961 70.6562 38.055 69.1334L39.0979 69.1334L39.0979 83.8568L38.055 83.8568C37.9798 82.3707 37.7261 81.3708 37.2939 80.8571C36.8616 80.325 36.3354 80.059 35.7153 80.059C34.8884 80.059 33.5823 80.4259 31.797 81.1598L26.3002 83.4165ZM24.2142 84.187L8.76673 90.5167L24.2142 97.0115L24.2142 84.187Z" fill="#E6252D"/>
<path d="M-1.06801e-05 35.6675L12.9951 34.8144L12.9951 35.6675C9.10499 36.805 6.3049 38.4287 4.59477 40.5386C2.88465 42.6485 2.02959 45.1804 2.02959 48.1342C2.02959 50.6111 2.67793 52.8494 3.97462 54.8492C5.25252 56.849 7.30091 58.4269 10.1198 59.5827C12.9387 60.7202 16.4435 61.289 20.6342 61.289C24.0921 61.289 27.0895 60.7477 29.6265 59.6653C32.1635 58.5828 34.1085 56.9591 35.4616 54.7942C36.8146 52.6109 37.4912 50.1249 37.4912 47.3362C37.4912 44.9144 36.965 42.7769 35.9126 40.9239C34.8414 39.0709 32.7273 37.0344 29.5701 34.8144L30.1339 33.9613C33.5353 35.8326 36.0254 38.0159 37.6039 40.5111C39.1825 43.0063 39.9718 45.9693 39.9718 49.4002C39.9718 55.5831 37.6227 60.3716 32.9246 63.7658C29.4292 66.2977 25.3136 67.5636 20.5779 67.5636C16.763 67.5636 13.2582 66.7289 10.0634 65.0593C6.86868 63.3897 4.39745 61.0964 2.64974 58.1792C0.883241 55.2437 -9.96435e-06 52.0421 -1.01159e-05 48.5746C-1.02338e-05 45.8776 0.676522 43.2173 2.02959 40.5937C2.44302 39.8231 2.64974 39.2727 2.64974 38.9424C2.64974 38.4471 2.47121 38.0159 2.11415 37.649C1.60675 37.172 0.902033 36.8325 -1.0638e-05 36.6307L-1.06801e-05 35.6675Z" fill="#E6252D"/>
<path d="M2.95982 21.3558L18.0691 21.3558L18.0691 13.1548C18.0691 11.0265 17.7402 9.60461 17.0824 8.8891C16.218 7.93506 14.6958 7.40298 12.5158 7.29291L12.5158 6.27466L25.821 6.27466L25.821 7.29291C23.9605 7.54977 22.7672 7.80661 22.241 8.06348C21.5833 8.39371 21.0665 8.93497 20.6906 9.68716C20.3148 10.4394 20.1268 11.5952 20.1268 13.1548L20.1268 21.3558L32.7273 21.3558C34.4186 21.3558 35.4522 21.2824 35.828 21.1356C36.1851 20.9889 36.4764 20.732 36.7019 20.3651C36.9086 19.9981 37.012 19.301 37.012 18.2735L37.012 11.9438C37.012 9.83395 36.8616 8.30197 36.5609 7.34793C36.2603 6.39389 35.6683 5.47656 34.785 4.59592C33.6199 3.4584 31.8628 2.29336 29.5137 1.10083L29.5137 -1.29009e-06L39.0979 3.21991L39.0979 31.9787L38.055 31.9787L38.055 30.6577C38.055 29.7771 37.8388 28.9423 37.4066 28.1533C37.1059 27.5662 36.6549 27.1718 36.0535 26.97C35.4522 26.7498 34.2213 26.6397 32.3608 26.6397L7.52642 26.6397C5.10217 26.6397 3.60816 26.8782 3.04439 27.3553C2.29268 28.0157 1.91683 29.1166 1.91683 30.6577L1.91683 31.9787L0.873844 31.9787L0.873843 3.21991L9.24594 2.8071L9.24594 3.88037C7.23513 4.26566 5.85388 4.69684 5.10217 5.17386C4.35047 5.63251 3.7773 6.32053 3.38265 7.23785C3.10076 7.97174 2.95982 9.2652 2.95982 11.1183L2.95982 21.3558Z" fill="#E6252D"/>
</svg>
