<svg width="100" height="776" viewBox="0 0 100 776" fill="none" xmlns="http://www.w3.org/2000/svg">
<path d="M71.3178 695.489L71.8111 693.144L97.7449 701.387L97.7449 776L95.1374 776L95.1374 772.376C95.1374 768.302 93.8219 765.388 91.191 763.636C89.6876 762.641 86.2109 762.143 80.7611 762.143L19.098 762.143C13.1313 762.143 9.39629 762.807 7.89288 764.133C5.8257 765.981 4.79211 768.728 4.79211 772.376L4.79211 776L2.18464 776L2.18464 732.369L4.79211 732.369C4.74512 737.486 5.21494 741.086 6.20155 743.17C7.18816 745.207 8.43317 746.605 9.93657 747.363C11.44 748.121 15.0341 748.5 20.7188 748.5L80.7611 748.5C84.6606 748.5 87.3385 748.121 88.7949 747.363C89.7815 746.794 90.5097 745.918 90.9796 744.734C91.4494 743.549 91.6843 739.854 91.6843 733.648L91.6843 726.613C91.6843 719.223 91.144 714.036 90.0634 711.051C88.9828 708.067 87.0801 705.343 84.3552 702.879C81.5833 700.416 77.2375 697.953 71.3178 695.489Z" fill="#333333"/>
<path d="M4.7921 623.432L2.18463 623.432L2.18463 589.323L4.7921 589.323L4.7921 592.947C4.7921 596.737 6.36598 599.65 9.51373 601.687C10.9702 602.682 14.3528 603.18 19.6617 603.18L58.4214 603.18C68.0056 603.18 75.4522 604.151 80.7611 606.093C86.023 607.988 90.5567 611.754 94.3622 617.392C98.1207 622.982 100 630.609 100 640.273C100 650.79 98.1912 658.772 94.5736 664.22C90.9561 669.668 86.0935 673.529 79.9859 675.803C75.8046 677.319 67.9587 678.077 56.4482 678.077L19.098 678.077C13.2253 678.077 9.37279 678.906 7.54052 680.564C5.70824 682.174 4.7921 684.804 4.7921 688.451L4.7921 692.076L2.18463 692.076L2.18463 650.434L4.7921 650.434L4.7921 654.13C4.7921 658.109 6.03711 660.951 8.52713 662.657C10.2185 663.841 13.7421 664.433 19.098 664.433L60.747 664.433C64.4585 664.433 68.7104 664.102 73.5025 663.438C78.2946 662.728 82.0296 661.472 84.7075 659.672C87.3855 657.872 89.5936 655.29 91.3319 651.927C93.0702 648.516 93.9394 644.347 93.9394 639.42C93.9394 633.12 92.5769 627.482 89.852 622.508C87.1271 617.534 83.6505 614.147 79.4221 612.346C75.1468 610.499 67.9352 609.575 57.7872 609.575L19.0979 609.575C13.1313 609.575 9.39628 610.238 7.89288 611.565C5.82569 613.412 4.7921 616.16 4.7921 619.808L4.7921 623.432Z" fill="#333333"/>
<path d="M44.8203 531.193L75.4052 510.515C83.8619 504.783 89.2177 500.543 91.4729 497.795C93.681 495 94.9025 491.471 95.1374 487.207L97.7449 487.207L97.7449 528.564L95.1374 528.564C95.0904 525.816 94.8085 523.779 94.2917 522.453C93.8689 521.458 93.2347 520.653 92.389 520.037C91.4963 519.374 90.6037 519.042 89.7111 519.042C88.6305 519.042 87.5499 519.255 86.4693 519.682C85.6707 520.013 83.6035 521.316 80.2678 523.59L55.7435 539.934L81.3953 560.115C84.1203 562.246 85.9525 563.525 86.8922 563.952C87.7848 564.378 88.7244 564.591 89.7111 564.591C91.2145 564.591 92.4595 563.952 93.4461 562.673C94.4327 561.394 94.9965 558.954 95.1374 555.354L97.7449 555.354L97.7449 589.533L95.1374 589.533C94.9025 587.117 94.4092 585.033 93.6575 583.28C92.436 580.343 90.7916 577.548 88.7244 574.895C86.6573 572.242 83.486 569.21 79.2107 565.799L50.7399 543.06L23.1853 562.033C15.7153 567.197 10.8292 571.579 8.52712 575.179C6.17805 578.78 4.93304 582.925 4.7921 587.615L2.18463 587.615L2.18463 543.06L4.7921 543.06C4.93304 546.85 5.5438 549.456 6.62437 550.877C7.70495 552.251 8.90297 552.938 10.2185 552.938C11.9568 552.938 14.4938 551.801 17.8294 549.527L39.7463 534.746L18.2523 517.621C15.7153 515.631 13.977 514.423 13.0373 513.997C12.0977 513.523 11.1346 513.286 10.148 513.286C9.16137 513.286 8.29221 513.57 7.54051 514.139C6.5539 514.849 5.87267 515.75 5.49682 516.839C5.07398 517.929 4.83908 520.179 4.7921 523.59L2.18463 523.59L2.18462 489.41L4.7921 489.41C4.93304 492.11 5.35587 494.313 6.06059 496.019C7.14117 498.577 8.59759 500.922 10.4299 503.053C12.2621 505.185 15.6448 508.193 20.5779 512.078L44.8203 531.193Z" fill="#333333"/>
<path d="M7.39956 457.928L45.1726 457.928L45.1726 436.752C45.1726 431.257 44.3505 427.585 42.7061 425.738C40.545 423.274 36.7395 421.9 31.2896 421.616L31.2896 418.987L64.5525 418.987L64.5525 421.616C59.9013 422.279 56.918 422.943 55.6025 423.606C53.9582 424.459 52.6662 425.856 51.7266 427.798C50.7869 429.741 50.3171 432.725 50.3171 436.752L50.3171 457.928L81.8182 457.928C86.0465 457.928 88.6305 457.738 89.5701 457.359C90.4628 456.98 91.191 456.317 91.7547 455.37C92.2715 454.422 92.5299 452.622 92.5299 449.969L92.5299 433.625C92.5299 428.177 92.1541 424.222 91.4024 421.758C90.6507 419.295 89.1708 416.926 86.9626 414.652C84.0498 411.715 79.657 408.707 73.7843 405.628L73.7843 402.785L97.7449 411.099L97.7449 485.357L95.1374 485.357L95.1374 481.946C95.1374 479.672 94.5971 477.517 93.5166 475.479C92.7648 473.964 91.6373 472.945 90.1339 472.424C88.6305 471.855 85.5532 471.571 80.902 471.571L18.8161 471.571C12.7554 471.571 9.02042 472.187 7.61098 473.419C5.73172 475.124 4.79209 477.967 4.79209 481.946L4.79209 485.357L2.18462 485.357L2.18462 411.099L23.1149 410.033L23.1149 412.805C18.0878 413.8 14.6347 414.913 12.7554 416.145C10.8762 417.329 9.44325 419.105 8.45664 421.474C7.75192 423.369 7.39956 426.709 7.39956 431.493L7.39956 457.928Z" fill="#333333"/>
<path d="M48.9781 335.062C50.3876 328.383 52.6427 323.385 55.7435 320.069C60.0658 315.474 65.3512 313.176 71.5997 313.176C76.3448 313.176 80.902 314.692 85.2713 317.724C89.5936 320.756 92.7648 324.925 94.785 330.23C96.7583 335.489 97.7449 343.542 97.7449 354.391L97.7449 399.869L95.1374 399.869L95.1374 396.245C95.1374 392.218 93.8689 389.328 91.3319 387.576C89.6876 386.486 86.1874 385.941 80.8316 385.941L19.0979 385.941C13.1783 385.941 9.44325 386.628 7.89287 388.002C5.82568 389.85 4.79209 392.597 4.79209 396.245L4.79209 399.869L2.18462 399.869L2.18462 358.228C2.18462 350.459 2.7484 344.229 3.87595 339.539C5.56728 332.433 8.57409 327.009 12.8964 323.266C17.1717 319.524 22.1048 317.653 27.6955 317.653C32.4877 317.653 36.7864 319.121 40.5919 322.058C44.3505 324.996 47.1459 329.33 48.9781 335.062ZM45.1726 372.298C45.5015 370.545 45.7599 368.555 45.9478 366.329C46.0888 364.055 46.1592 361.568 46.1592 358.867C46.1592 351.951 45.431 346.764 43.9746 343.305C42.4712 339.8 40.1926 337.123 37.1388 335.276C34.085 333.428 30.7493 332.504 27.1318 332.504C21.541 332.504 16.7724 334.802 12.8259 339.397C8.87947 343.992 6.90625 350.696 6.90625 359.507C6.90625 364.244 7.42305 368.508 8.45664 372.298L45.1726 372.298ZM90.8386 372.298C92.1071 366.802 92.7413 361.378 92.7413 356.025C92.7413 347.45 90.8386 340.913 87.0331 336.413C83.1806 331.912 78.4355 329.662 72.7977 329.662C69.0862 329.662 65.5156 330.68 62.086 332.717C58.6563 334.754 55.9549 338.071 53.9817 342.666C52.0084 347.261 51.0218 352.946 51.0218 359.72C51.0218 362.657 51.0688 365.168 51.1628 367.253C51.2567 369.337 51.4212 371.019 51.6561 372.298L90.8386 372.298Z" fill="#E6252D"/>
<path d="M-2.27778e-05 254.904C-2.33245e-05 242.398 4.72161 231.573 14.1649 222.43C23.5612 213.239 35.3065 208.644 49.401 208.644C63.9182 208.644 75.969 213.263 85.5532 222.501C95.1374 231.739 99.9295 242.919 99.9295 256.041C99.9295 269.306 95.2549 280.462 85.9055 289.51C76.5562 298.511 64.4585 303.012 49.6124 303.012C34.4374 303.012 22.0578 297.801 12.4736 287.378C4.15784 278.33 -2.2227e-05 267.505 -2.27778e-05 254.904ZM5.14445 256.254C5.14445 264.876 8.31569 271.793 14.6582 277.004C22.5511 283.494 34.1085 286.739 49.3305 286.739C64.9283 286.739 76.9321 283.375 85.3418 276.648C91.7312 271.485 94.926 264.663 94.926 256.183C94.926 247.135 91.4259 239.674 84.4256 233.799C77.4254 227.878 66.3848 224.917 51.3037 224.917C34.9542 224.917 22.7625 228.162 14.7287 234.652C8.33918 239.863 5.14444 247.064 5.14445 256.254Z" fill="#E6252D"/>
<path d="M97.7449 203.383L95.1374 203.383L95.1374 199.759C95.1374 195.685 93.8454 192.795 91.2614 191.09C89.711 190.047 86.2344 189.526 80.8315 189.526L19.0979 189.526C13.1313 189.526 9.39626 190.189 7.89286 191.516C5.82567 193.363 4.79208 196.111 4.79208 199.759L4.79208 203.383L2.18461 203.383L2.18461 164.158C2.18461 149.756 3.80547 138.813 7.04719 131.328C10.2889 123.796 15.6918 117.756 23.2558 113.208C30.8198 108.613 39.5583 106.315 49.4714 106.315C62.7672 106.315 73.8783 110.389 82.8048 118.537C92.7648 127.68 97.7449 141.608 97.7449 160.321L97.7449 203.383ZM90.8386 175.883C92.1541 169.866 92.8118 164.821 92.8118 160.747C92.8118 149.756 88.9828 140.637 81.3248 133.389C73.6669 126.141 63.284 122.517 50.1762 122.517C36.9744 122.517 26.568 126.141 18.957 133.389C11.346 140.637 7.54049 149.946 7.54049 161.315C7.54049 165.579 8.22173 170.435 9.58419 175.883L90.8386 175.883Z" fill="#E6252D"/>
<path d="M2.1846 34.2577L2.1846 0.646362L4.79207 0.646362L4.79207 2.4939C4.79207 3.72559 5.33236 5.52582 6.41293 7.89447C7.49351 10.2631 9.04389 12.4186 11.0641 14.3609C13.0843 16.3032 16.373 18.6956 20.9302 21.538L57.2234 44.7745L81.1839 44.7745C87.0566 44.7745 90.7211 44.1113 92.1776 42.7848C94.1508 40.9847 95.1374 38.1423 95.1374 34.2577L95.1374 31.131L97.7449 31.131L97.7449 72.0615L95.1374 72.0615L95.1374 68.6506C95.1374 64.5765 93.9159 61.6868 91.4728 59.9813C89.9694 58.9391 86.5398 58.418 81.1839 58.418L58.5623 58.418L18.5341 84.8522C13.836 87.9789 10.8997 90.1107 9.72513 91.2477C8.55059 92.3373 7.14115 94.6348 5.4968 98.1404C5.02699 99.0879 4.79208 100.462 4.79208 102.262L2.18461 102.262L2.18461 61.0472L4.79208 61.0472L4.79208 63.179C4.79208 65.4056 5.30887 67.4662 6.34246 69.3612C7.37606 71.2087 8.92644 72.1326 10.9936 72.1326C12.685 72.1326 15.7388 70.6877 20.155 67.7979L50.9513 47.6879L21.494 28.7861C17.0777 25.9437 13.789 24.5225 11.6279 24.5225C10.3124 24.5225 9.13786 24.8778 8.10427 25.5884C7.07067 26.2516 6.27199 27.2227 5.70821 28.5018C5.09745 29.7808 4.79208 31.6995 4.79208 34.2577L2.1846 34.2577Z" fill="#E6252D"/>
</svg>
