<svg width="172" height="175" viewBox="0 0 172 175" fill="none" xmlns="http://www.w3.org/2000/svg">
<path d="M171.147 168.617C171.858 168.794 172.124 169.415 171.947 170.479C171.947 171.365 171.68 171.809 171.147 171.809H137.557C130.626 171.809 119.607 166.135 104.501 154.787C90.4608 168.262 72.8663 175 51.7173 175C40.343 175 30.746 173.227 22.9262 169.681C15.2842 165.957 9.50816 161.17 5.59826 155.319C1.86609 149.291 0 142.819 0 135.904C0 126.152 3.11015 117.642 9.33044 110.372C15.5507 103.103 24.6146 95.2128 36.522 86.7021C33.5007 82.4468 30.8349 78.0142 28.5245 73.4043C23.3705 62.5886 20.7936 52.9255 20.7936 44.4149C20.7936 36.2589 22.6596 28.8121 26.3918 22.0745C30.3017 15.3369 35.7223 10.0177 42.6534 6.11702C49.7623 2.03901 57.9376 0 67.1792 0C76.5985 0 84.4183 2.12766 90.6386 6.38298C96.8588 10.6383 99.969 17.2872 99.969 26.3298C99.969 33.0674 98.1918 39.1844 94.6373 44.6809C91.2606 50.1773 87.0841 54.9645 82.1079 59.0425C77.1316 63.1206 70.2005 68.1738 61.3143 74.2021L55.9826 77.6596C68.4232 97.1631 87.0841 116.578 111.965 135.904C116.586 126.684 118.896 116.223 118.896 104.521C118.896 96.8972 117.475 91.312 114.631 87.766C111.965 84.0425 106.811 82.1808 99.1693 82.1808C98.6361 82.1808 98.2806 81.6489 98.1029 80.5851C98.1029 79.5213 98.4584 78.9894 99.1693 78.9894L157.285 78.7234C157.995 78.7234 158.351 79.2553 158.351 80.3191C158.351 81.383 157.995 81.9149 157.285 81.9149C151.42 81.9149 147.066 82.5355 144.222 83.7766C141.378 84.8404 139.335 86.5248 138.091 88.8298C136.846 90.9574 135.514 94.4149 134.092 99.2021C129.116 116.046 123.34 129.521 116.764 139.628C127.783 147.606 138.002 154.078 147.421 159.043C156.84 164.007 164.749 167.199 171.147 168.617ZM39.1879 29.5213C39.1879 43.3511 43.9864 58.156 53.5834 73.9362C61.9363 67.1986 68.4232 60.461 73.044 53.7234C77.8425 46.9858 80.2418 39.4504 80.2418 31.117C80.2418 23.3156 78.198 17.1986 74.1104 12.766C70.0227 8.33333 64.6911 6.11702 58.1153 6.11702C45.497 6.11702 39.1879 13.9184 39.1879 29.5213ZM66.3794 165.426C79.8864 165.426 91.3495 160.904 100.769 151.862L93.8376 146.277C83.5297 138.298 73.4883 129.433 63.7136 119.681C54.1166 109.752 45.8525 99.9113 38.9213 90.1596C33.0564 95.3014 28.4356 100.709 25.0589 106.383C21.8599 111.879 20.2604 117.996 20.2604 124.734C20.2604 132.004 22.2153 138.741 26.1252 144.947C30.0351 151.152 35.4557 156.117 42.3869 159.84C49.318 163.564 57.3156 165.426 66.3794 165.426Z" fill="#FAF7F5"/>
</svg>
