<svg width="363" height="604" viewBox="0 0 363 604" fill="none" xmlns="http://www.w3.org/2000/svg">
<path d="M343.632 70.7434L344.159 70.8659C345.039 71.1148 345.836 71.457 346.557 71.8836L346.811 71.4532C347.631 71.9384 348.362 72.5292 349.012 73.2155L348.649 73.5593C349.995 74.9815 350.995 76.8513 351.717 79.0925L352.193 78.9392C352.471 79.8044 352.708 80.7191 352.908 81.6777L352.418 81.7797C352.831 83.7581 353.084 85.9344 353.219 88.2607L353.719 88.2317C353.772 89.1541 353.808 90.0984 353.827 91.0615L353.327 91.0716C353.37 93.1826 353.336 95.387 353.255 97.6522L353.754 97.6702C353.721 98.6036 353.679 99.5468 353.631 100.497L353.132 100.472C353.023 102.638 352.882 104.842 352.732 107.06L353.231 107.094C353.179 107.87 353.125 108.648 353.072 109.426C353.061 109.591 353.049 109.755 353.038 109.92L352.539 109.886C352.388 112.093 352.238 114.303 352.113 116.484L352.612 116.513C352.558 117.463 352.508 118.407 352.465 119.343L351.965 119.321C351.914 120.435 351.872 121.538 351.843 122.628L351.843 122.628C351.812 123.779 351.798 124.913 351.798 126.03L352.298 126.03C352.298 127.01 352.309 127.977 352.331 128.931L351.832 128.942C351.886 131.285 352.004 133.552 352.173 135.742L352.672 135.703C352.748 136.682 352.834 137.646 352.929 138.595L352.432 138.645C352.667 140.986 352.958 143.233 353.289 145.384L353.783 145.308C353.933 146.282 354.091 147.236 354.255 148.17L353.762 148.256C354.176 150.604 354.63 152.826 355.101 154.92L355.589 154.81C355.807 155.782 356.029 156.726 356.253 157.643L355.767 157.761C356.346 160.137 356.932 162.327 357.484 164.328L357.966 164.195C358.208 165.073 358.444 165.915 358.669 166.72C358.695 166.812 358.721 166.904 358.746 166.995L358.265 167.129C358.984 169.7 359.587 171.871 359.961 173.652L360.45 173.549C360.682 174.652 360.827 175.61 360.859 176.42L360.359 176.439C360.416 177.89 360.085 178.615 359.454 178.949L359.454 178.949C358.812 179.289 357.925 179.186 356.73 178.464L356.471 178.892C355.755 178.459 354.988 177.848 354.182 177.082L354.526 176.72C353.169 175.432 351.686 173.688 350.134 171.607L349.733 171.906C349.173 171.154 348.605 170.361 348.032 169.531L348.444 169.247C347.23 167.489 345.992 165.567 344.756 163.537L344.329 163.797C343.828 162.974 343.328 162.134 342.83 161.281L343.262 161.029C342.139 159.103 341.026 157.107 339.944 155.085L339.504 155.321C339.044 154.461 338.589 153.597 338.142 152.731L338.586 152.502C337.532 150.461 336.518 148.413 335.562 146.403L335.111 146.617C334.686 145.723 334.273 144.837 333.874 143.962L334.329 143.754C333.337 141.582 332.429 139.479 331.631 137.504L331.167 137.691C330.789 136.756 330.435 135.849 330.109 134.977L330.577 134.801C330.154 133.671 329.777 132.601 329.453 131.604L329.453 131.604C329.113 130.56 328.786 129.512 328.473 128.464L327.994 128.607C327.723 127.701 327.463 126.793 327.213 125.886L327.695 125.753C327.108 123.622 326.578 121.49 326.108 119.37L325.62 119.478C325.415 118.553 325.221 117.63 325.039 116.71L325.529 116.612C325.096 114.427 324.728 112.26 324.428 110.127L323.933 110.196C323.801 109.254 323.682 108.318 323.576 107.389L324.073 107.332C323.819 105.098 323.643 102.909 323.549 100.781L323.05 100.803C323.008 99.8474 322.982 98.9038 322.973 97.9738L323.473 97.9688C323.45 95.696 323.528 93.5074 323.71 91.425L323.211 91.3815C323.295 90.42 323.401 89.4804 323.53 88.565L324.025 88.6344C324.346 86.3439 324.809 84.2119 325.418 82.2711L324.941 82.1214C325.232 81.193 325.557 80.3063 325.916 79.4651L326.375 79.6612C327.288 77.5218 328.418 75.6979 329.772 74.2407L329.405 73.9003C330.059 73.197 330.765 72.5738 331.524 72.0372L331.813 72.4456C333.493 71.2589 335.449 70.5111 337.705 70.2804L337.654 69.783C338.548 69.6916 339.485 69.6788 340.468 69.7489L340.432 70.2476C341.446 70.3199 342.512 70.483 343.632 70.7434Z" fill="white" fill-opacity="0.3" stroke="white" stroke-dasharray="7 3"/>
<path d="M15.1682 71.8836C15.8892 71.457 16.6856 71.1148 17.5659 70.8659L18.0927 70.7434C19.213 70.483 20.279 70.3199 21.2922 70.2476L21.2567 69.7489C22.2393 69.6788 23.1771 69.6916 24.0708 69.783L24.0199 70.2804C26.2762 70.5111 28.2319 71.2589 29.9118 72.4456L30.2003 72.0372C30.96 72.5738 31.6659 73.197 32.3193 73.9003L31.953 74.2406C33.3068 75.6979 34.437 77.5218 35.3492 79.6612L35.8092 79.4651C36.1679 80.3063 36.4926 81.193 36.7839 82.1214L36.3068 82.2711C36.9157 84.2119 37.3784 86.3439 37.6998 88.6344L38.1949 88.565C38.3234 89.4804 38.4294 90.42 38.5133 91.3815L38.0152 91.425C38.197 93.5074 38.2747 95.696 38.2522 97.9688L38.7522 97.9738C38.743 98.9038 38.7171 99.8474 38.6749 100.803L38.1754 100.781C38.0814 102.909 37.9058 105.098 37.6517 107.332L38.1485 107.389C38.0429 108.318 37.9238 109.254 37.7914 110.196L37.2963 110.127C36.9967 112.26 36.629 114.427 36.1958 116.612L36.6862 116.71C36.5039 117.63 36.31 118.553 36.1048 119.478L35.6166 119.37C35.1465 121.49 34.6166 123.622 34.0294 125.753L34.5115 125.886C34.2616 126.793 34.0013 127.701 33.7309 128.607L33.2518 128.464C32.9388 129.512 32.6122 130.56 32.2722 131.604L32.2722 131.604C31.9478 132.601 31.5711 133.671 31.148 134.801L31.6162 134.977C31.2896 135.849 30.9358 136.756 30.5576 137.691L30.094 137.504C29.2956 139.479 28.3875 141.582 27.3961 143.754L27.851 143.962C27.4515 144.837 27.0387 145.723 26.6142 146.617L26.1625 146.403C25.2072 148.413 24.1925 150.461 23.1383 152.502L23.5825 152.731C23.1353 153.597 22.6811 154.461 22.2212 155.321L21.7803 155.085C20.6986 157.107 19.5862 159.103 18.4626 161.029L18.8945 161.281C18.3966 162.134 17.8965 162.974 17.3958 163.797L16.9687 163.537C15.733 165.567 14.4952 167.489 13.281 169.247L13.6924 169.531C13.1196 170.361 12.5517 171.154 11.9914 171.906L11.5905 171.607C10.0386 173.688 8.55563 175.432 7.19868 176.72L7.54287 177.082C6.73648 177.848 5.96964 178.459 5.25372 178.892L4.99512 178.464C3.79986 179.186 2.91311 179.289 2.27069 178.949L2.27047 178.949C1.63977 178.615 1.30878 177.89 1.36555 176.439L0.865928 176.42C0.897623 175.61 1.04305 174.652 1.27467 173.549L1.764 173.652C2.13807 171.871 2.74091 169.7 3.46019 167.129L2.97868 166.995C3.00416 166.904 3.02979 166.812 3.05555 166.72C3.2809 165.915 3.51646 165.073 3.75863 164.195L4.24063 164.328C4.79235 162.327 5.37906 160.137 5.95795 157.761L5.47216 157.643C5.6955 156.726 5.91764 155.782 6.13613 154.81L6.62395 154.92C7.09496 152.826 7.54922 150.604 7.96227 148.256L7.46984 148.17C7.63421 147.236 7.79203 146.282 7.94173 145.308L8.43592 145.384C8.76657 143.233 9.05784 140.986 9.29318 138.645L8.79568 138.595C8.89099 137.646 8.97708 136.682 9.05286 135.703L9.55137 135.742C9.72075 133.552 9.83876 131.285 9.89313 128.942L9.39327 128.931C9.41541 127.977 9.42695 127.01 9.42707 126.03L9.92707 126.03C9.9272 124.913 9.9125 123.779 9.88174 122.628L9.88174 122.628C9.85243 121.538 9.81054 120.435 9.7593 119.321L9.25983 119.343C9.21675 118.407 9.16703 117.463 9.11259 116.513L9.61177 116.484C9.48672 114.303 9.33682 112.093 9.18543 109.886L8.6866 109.92C8.67532 109.755 8.66402 109.59 8.65273 109.426C8.59936 108.648 8.546 107.87 8.49365 107.094L8.99252 107.06C8.843 104.842 8.70197 102.638 8.59289 100.472L8.09352 100.497C8.04564 99.5468 8.0039 98.6036 7.97027 97.6702L8.46994 97.6522C8.38834 95.387 8.35481 93.1826 8.39752 91.0716L7.89763 91.0615C7.91711 90.0984 7.95238 89.1541 8.00612 88.2317L8.50527 88.2607C8.64078 85.9344 8.89407 83.7581 9.30627 81.7797L8.81678 81.6777C9.01653 80.7191 9.25338 79.8044 9.53211 78.9392L10.008 79.0925C10.73 76.8513 11.7293 74.9815 13.0761 73.5593L12.7131 73.2155C13.3629 72.5292 14.0936 71.9384 14.9136 71.4532L15.1682 71.8836Z" fill="white" fill-opacity="0.3" stroke="white" stroke-dasharray="7 3"/>
<path d="M350.408 197.898L350.408 197.898C349.733 199.017 348.962 199.901 348.103 200.582L348.414 200.974C347.564 201.649 346.626 202.142 345.607 202.473L345.452 201.997C343.433 202.653 341.045 202.648 338.316 202.118L338.221 202.608C337.225 202.415 336.191 202.153 335.121 201.833L335.265 201.354C333.104 200.707 330.791 199.814 328.345 198.742L328.145 199.2C327.192 198.783 326.22 198.339 325.231 197.874L325.445 197.421C323.298 196.41 321.067 195.294 318.766 194.116L318.538 194.561C317.602 194.081 316.656 193.592 315.698 193.096L315.929 192.652C315.225 192.287 314.516 191.918 313.801 191.546C312.321 190.777 310.819 189.996 309.298 189.213L309.069 189.658C308.127 189.173 307.177 188.688 306.22 188.205L306.446 187.758C305.339 187.199 304.222 186.642 303.098 186.091L302.878 186.54L303.098 186.091C302.021 185.563 300.953 185.069 299.894 184.608L299.694 185.066C298.762 184.66 297.838 184.279 296.92 183.922L297.102 183.456C294.835 182.574 292.613 181.84 290.437 181.238L290.304 181.719C289.331 181.45 288.367 181.207 287.413 180.99L287.524 180.502C285.154 179.962 282.841 179.576 280.588 179.323L280.533 179.82C279.524 179.707 278.529 179.621 277.545 179.56L277.576 179.061C275.157 178.91 272.812 178.91 270.544 179.031L270.57 179.531C269.56 179.585 268.564 179.663 267.584 179.763L267.534 179.266C265.121 179.512 262.802 179.89 260.578 180.361L260.682 180.85C259.691 181.059 258.719 181.288 257.766 181.532L257.642 181.047C255.284 181.651 253.044 182.348 250.927 183.087L251.091 183.559C250.129 183.895 249.191 184.239 248.279 184.589L248.1 184.122C245.772 185.013 243.61 185.93 241.623 186.794L241.822 187.253C241.219 187.515 240.632 187.772 240.061 188.023C239.725 188.17 239.395 188.314 239.071 188.456L238.871 187.998C236.372 189.09 234.23 190 232.433 190.542L232.578 191.021C231.479 191.352 230.503 191.55 229.652 191.572L229.639 191.072C228.433 191.103 227.59 190.75 227.005 189.928L227.005 189.928C226.434 189.126 226.303 188.22 226.583 187.192L226.101 187.06C226.319 186.262 226.755 185.42 227.387 184.548L227.792 184.841C228.816 183.427 230.392 181.906 232.429 180.336L232.124 179.94C232.842 179.387 233.614 178.831 234.435 178.273L234.716 178.687C236.392 177.547 238.279 176.4 240.334 175.268L240.093 174.83C240.905 174.382 241.743 173.937 242.604 173.496L242.832 173.941C244.717 172.975 246.715 172.026 248.8 171.108L248.598 170.651C249.456 170.273 250.328 169.901 251.212 169.536L251.403 169.998C253.4 169.172 255.461 168.378 257.565 167.627L257.397 167.156C258.285 166.839 259.181 166.53 260.084 166.229L260.242 166.703C262.321 166.01 264.433 165.361 266.557 164.767L266.423 164.286C267.336 164.031 268.252 163.786 269.168 163.551L269.292 164.036C271.441 163.487 273.595 162.998 275.731 162.58L275.635 162.089C276.571 161.906 277.504 161.737 278.432 161.582L278.514 162.075C280.728 161.704 282.914 161.416 285.049 161.222L285.003 160.724C285.959 160.637 286.904 160.569 287.837 160.52L287.863 161.02C288.976 160.962 290.07 160.932 291.144 160.932C292.319 160.932 293.508 160.956 294.708 161.003L294.728 160.503C295.745 160.543 296.769 160.599 297.799 160.672L297.764 161.171C300.112 161.336 302.488 161.586 304.868 161.916L304.936 161.421C305.95 161.561 306.965 161.716 307.978 161.885L307.896 162.378C310.246 162.769 312.59 163.236 314.903 163.774L315.017 163.287C316.018 163.52 317.014 163.766 318.003 164.025L317.876 164.509C320.209 165.12 322.499 165.803 324.721 166.552L324.881 166.078C325.861 166.408 326.828 166.752 327.78 167.108L327.605 167.576C329.895 168.432 332.095 169.36 334.175 170.353L334.39 169.902C335.329 170.351 336.245 170.813 337.133 171.288L336.898 171.729C339.094 172.903 341.122 174.154 342.941 175.473L343.235 175.068C344.085 175.684 344.89 176.315 345.648 176.961L345.323 177.342C347.255 178.989 348.857 180.722 350.067 182.524L350.482 182.245C351.07 183.122 351.569 184.016 351.972 184.928L351.515 185.13C352.472 187.295 352.862 189.545 352.587 191.867L353.084 191.926C352.967 192.908 352.737 193.902 352.384 194.909L351.912 194.743C351.55 195.779 351.052 196.831 350.408 197.898Z" fill="white" fill-opacity="0.3" stroke="white" stroke-dasharray="7 3"/>
<path d="M10.6129 197.898L10.6129 197.898C9.96902 196.831 9.47124 195.779 9.10849 194.743L8.63662 194.909C8.28409 193.902 8.05349 192.908 7.93726 191.926L8.4338 191.867C8.15885 189.545 8.54904 187.295 9.50594 185.13L9.04863 184.928C9.45158 184.016 9.95094 183.122 10.5391 182.245L10.9542 182.524C12.164 180.722 13.7661 178.989 15.6976 177.342L15.3732 176.961C16.1305 176.315 16.9362 175.684 17.786 175.068L18.0795 175.473C19.8991 174.154 21.9273 172.903 24.1234 171.729L23.8877 171.288C24.7763 170.813 25.6916 170.351 26.6308 169.902L26.8463 170.353C28.9264 169.36 31.1262 168.432 33.4157 167.576L33.2407 167.108C34.1927 166.752 35.1598 166.408 36.14 166.078L36.2998 166.552C38.5218 165.803 40.8119 165.12 43.1447 164.509L43.018 164.025C44.0065 163.766 45.0026 163.52 46.0043 163.287L46.1176 163.774C48.431 163.236 50.7747 162.769 53.1252 162.378L53.043 161.885C54.0563 161.716 55.0708 161.561 56.0846 161.421L56.1532 161.916C58.5333 161.586 60.9094 161.336 63.257 161.171L63.2219 160.672C64.2517 160.599 65.2762 160.543 66.2934 160.503L66.313 161.003C67.5128 160.956 68.7019 160.932 69.8771 160.932C70.9506 160.932 72.0452 160.962 73.1577 161.02L73.1837 160.52C74.1171 160.569 75.0624 160.637 76.0175 160.724L75.9722 161.222C78.1069 161.416 80.2927 161.704 82.5067 162.075L82.5892 161.582C83.5172 161.737 84.4499 161.906 85.3855 162.089L85.2895 162.58C87.4264 162.998 89.5797 163.487 91.7292 164.036L91.853 163.551C92.7694 163.786 93.6851 164.031 94.5984 164.286L94.4638 164.767C96.588 165.361 98.6997 166.01 100.779 166.703L100.937 166.229C101.84 166.53 102.736 166.839 103.624 167.156L103.456 167.627C105.56 168.378 107.621 169.172 109.618 169.998L109.809 169.536C110.693 169.901 111.565 170.273 112.423 170.651L112.221 171.108C114.306 172.026 116.304 172.975 118.189 173.941L118.417 173.496C119.278 173.937 120.116 174.382 120.928 174.83L120.687 175.268C122.742 176.4 124.629 177.547 126.305 178.687L126.586 178.273C127.407 178.831 128.179 179.387 128.896 179.94L128.591 180.336C130.629 181.906 132.205 183.427 133.229 184.841L133.634 184.548C134.266 185.42 134.702 186.262 134.92 187.06L134.438 187.192C134.718 188.22 134.587 189.126 134.016 189.928L134.016 189.928C133.431 190.75 132.588 191.103 131.382 191.072L131.369 191.572C130.518 191.55 129.542 191.352 128.443 191.021L128.588 190.542C126.791 190 124.649 189.09 122.15 187.998L121.95 188.456C121.626 188.314 121.296 188.17 120.96 188.023C120.389 187.772 119.802 187.515 119.199 187.253L119.398 186.794C117.411 185.93 115.249 185.013 112.921 184.122L112.742 184.589C111.83 184.239 110.892 183.895 109.93 183.559L110.094 183.087C107.977 182.348 105.737 181.651 103.378 181.047L103.254 181.532C102.302 181.288 101.33 181.059 100.339 180.85L100.443 180.361C98.2194 179.89 95.8999 179.512 93.4873 179.266L93.4364 179.763C92.4565 179.663 91.4611 179.585 90.4506 179.531L90.4773 179.031C88.2087 178.91 85.8638 178.91 83.445 179.061L83.476 179.56C82.4924 179.621 81.4964 179.707 80.4883 179.82L80.4326 179.323C78.1799 179.576 75.8674 179.962 73.4966 180.502L73.6077 180.99C72.6537 181.207 71.69 181.45 70.7169 181.719L70.5835 181.238C68.408 181.84 66.1862 182.574 63.9192 183.456L64.1005 183.922C63.1833 184.279 62.2587 184.66 61.3265 185.066L61.1267 184.608C60.068 185.069 59 185.563 57.9226 186.091L58.1426 186.54L57.9226 186.091C56.7987 186.642 55.6824 187.199 54.575 187.758L54.8005 188.205C53.8443 188.688 52.8944 189.173 51.9517 189.658L51.723 189.213C50.2023 189.996 48.6996 190.777 47.2201 191.546C46.5052 191.918 45.7957 192.287 45.0923 192.652L45.3225 193.096C44.3654 193.592 43.4185 194.081 42.4827 194.561L42.2548 194.116C39.9537 195.294 37.7234 196.41 35.5764 197.421L35.7894 197.874C34.8007 198.339 33.8291 198.783 32.8761 199.2L32.6755 198.742C30.2301 199.814 27.9168 200.707 25.7562 201.354L25.8997 201.833C24.8304 202.153 23.7962 202.415 22.7999 202.608L22.7044 202.118C19.976 202.648 17.5875 202.653 15.5686 201.997L15.4142 202.473C14.3953 202.142 13.4573 201.649 12.6067 200.974L12.9176 200.582C12.0592 199.901 11.2875 199.017 10.6129 197.898Z" fill="white" fill-opacity="0.3" stroke="white" stroke-dasharray="7 3"/>
<g filter="url(#filter0_d_3716_609)">
<rect x="42.1992" y="379.124" width="23.9424" height="23.9423" rx="11.9712" fill="white" fill-opacity="0.5" shape-rendering="crispEdges"/>
<ellipse cx="54.1722" cy="391.095" rx="5.38703" ry="5.38703" fill="white"/>
</g>
<g filter="url(#filter1_d_3716_609)">
<rect x="166.188" y="544.904" width="23.9424" height="23.9423" rx="11.9712" fill="white" fill-opacity="0.5" shape-rendering="crispEdges"/>
<ellipse cx="178.16" cy="556.875" rx="5.38703" ry="5.38703" fill="white"/>
</g>
<g filter="url(#filter2_d_3716_609)">
<rect x="26.2695" y="167.665" width="23.9424" height="23.9423" rx="11.9712" fill="white" fill-opacity="0.5" shape-rendering="crispEdges"/>
<ellipse cx="38.2425" cy="179.636" rx="5.38703" ry="5.38703" fill="white"/>
</g>
<g filter="url(#filter3_d_3716_609)">
<rect x="67.1992" y="239.124" width="23.9424" height="23.9423" rx="11.9712" fill="white" fill-opacity="0.5" shape-rendering="crispEdges"/>
<ellipse cx="79.1722" cy="251.095" rx="5.38703" ry="5.38703" fill="white"/>
</g>
<g filter="url(#filter4_d_3716_609)">
<rect x="55.1992" y="294.124" width="23.9424" height="23.9423" rx="11.9712" fill="white" fill-opacity="0.5" shape-rendering="crispEdges"/>
<ellipse cx="67.1722" cy="306.095" rx="5.38703" ry="5.38703" fill="white"/>
</g>
<path d="M71.7739 530.021C71.8065 529.735 71.9357 528.313 72.1316 526.107L71.6336 526.063C71.72 525.09 71.8196 523.962 71.9299 522.708L72.428 522.751C72.6267 520.493 72.8602 517.826 73.1141 514.917L72.616 514.873C72.711 513.786 72.8087 512.665 72.9087 511.518L73.4068 511.562C73.6263 509.043 73.8561 506.403 74.0882 503.735L73.5901 503.692C73.6871 502.576 73.7846 501.455 73.8819 500.336L74.38 500.379L75.0606 492.549L74.5625 492.505C74.6618 491.364 74.7592 490.242 74.8543 489.149L75.3524 489.192L75.6922 485.284L75.6923 485.284C75.8414 483.565 76.6236 482.144 77.7466 481.14L77.4133 480.767C78.5072 479.789 79.9009 479.178 81.3637 479.034L81.4124 479.532C82.9121 479.385 84.4901 479.768 85.8613 480.815L85.8614 480.815C86.7567 481.498 87.7052 482.212 88.7036 482.954L89.0019 482.553C89.7945 483.142 90.6188 483.748 91.473 484.369L91.179 484.773C92.9922 486.091 94.9401 487.474 97.0074 488.9L97.2913 488.488C98.1152 489.057 98.9581 489.632 99.819 490.212L99.5396 490.626C101.45 491.914 103.449 493.227 105.526 494.55L105.795 494.128C106.645 494.67 107.508 495.213 108.383 495.756L108.12 496.181C110.1 497.41 112.143 498.642 114.242 499.864L114.494 499.432C115.369 499.942 116.254 500.449 117.147 500.955L116.901 501.39C118.95 502.548 121.045 503.691 123.181 504.809L123.413 504.366C124.313 504.837 125.22 505.304 126.133 505.765L125.908 506.212C128.023 507.28 130.172 508.319 132.351 509.319L132.559 508.865C133.484 509.29 134.415 509.708 135.349 510.118L135.149 510.575C137.331 511.532 139.538 512.446 141.763 513.307L141.943 512.841C142.895 513.209 143.849 513.568 144.806 513.915L144.636 514.385C146.886 515.203 149.152 515.963 151.427 516.654L151.572 516.176C152.55 516.473 153.529 516.758 154.51 517.029L154.377 517.511C156.694 518.151 159.018 518.717 161.341 519.197L161.443 518.708C162.445 518.915 163.446 519.106 164.447 519.28L164.362 519.772C166.738 520.186 169.111 520.504 171.472 520.716L171.517 520.218C172.537 520.309 173.554 520.381 174.568 520.431L174.543 520.931C175.744 520.991 176.941 521.021 178.133 521.021C179.329 521.021 180.523 520.997 181.715 520.949L181.695 520.449C182.713 520.408 183.729 520.35 184.744 520.276L184.78 520.775C187.166 520.599 189.539 520.334 191.896 519.986L191.823 519.492C192.831 519.343 193.836 519.18 194.837 519.002L194.925 519.494C197.278 519.076 199.613 518.58 201.926 518.014L201.807 517.529C202.797 517.287 203.782 517.032 204.763 516.765L204.895 517.247C207.203 516.619 209.486 515.925 211.74 515.174L211.582 514.7C212.549 514.377 213.511 514.044 214.467 513.701L214.636 514.172C216.892 513.363 219.116 512.501 221.304 511.593L221.112 511.131C222.055 510.74 222.992 510.34 223.921 509.933L224.122 510.391C226.323 509.426 228.485 508.419 230.603 507.38L230.383 506.931C231.301 506.48 232.211 506.024 233.112 505.562L233.34 506.007C235.489 504.905 237.589 503.773 239.633 502.623L239.388 502.187C240.282 501.685 241.166 501.178 242.038 500.67L242.29 501.101C244.39 499.876 246.427 498.636 248.394 497.395L248.128 496.972C248.998 496.422 249.855 495.872 250.698 495.323L250.971 495.742C253.031 494.401 255.006 493.064 256.888 491.748L256.601 491.339C257.452 490.744 258.283 490.155 259.095 489.571L259.387 489.977C261.422 488.513 263.334 487.086 265.112 485.722L264.807 485.325C265.644 484.683 266.45 484.054 267.225 483.442L267.535 483.835C268.509 483.065 269.435 482.322 270.308 481.609C271.67 480.498 273.261 480.07 274.784 480.189L274.823 479.691C276.31 479.807 277.736 480.407 278.858 481.386L278.529 481.763C279.682 482.769 280.489 484.206 280.643 485.953L280.977 489.802L281.475 489.759C281.569 490.838 281.665 491.943 281.762 493.065L281.264 493.109C281.482 495.617 281.708 498.217 281.934 500.822L282.432 500.778C282.528 501.882 282.624 502.986 282.72 504.084L282.222 504.128C282.451 506.76 282.677 509.36 282.893 511.839L283.392 511.795C283.49 512.925 283.587 514.029 283.68 515.1L283.182 515.144C283.433 518.011 283.663 520.636 283.859 522.859L284.357 522.815C284.466 524.051 284.564 525.162 284.65 526.12L284.152 526.165C284.287 527.678 284.39 528.817 284.451 529.465H284.43L284.493 530.021C284.62 531.146 284.656 532.304 284.604 533.49L285.103 533.512C285.059 534.506 284.953 535.519 284.789 536.546L284.295 536.467C283.944 538.657 283.318 540.923 282.434 543.241L282.902 543.42C282.547 544.351 282.151 545.289 281.716 546.233L281.262 546.023C280.321 548.063 279.193 550.132 277.889 552.215L278.313 552.48C277.78 553.331 277.218 554.183 276.629 555.037L276.218 554.752C274.922 556.627 273.49 558.506 271.929 560.377L272.313 560.698C271.671 561.468 271.007 562.237 270.323 563.003L269.95 562.67C268.416 564.387 266.777 566.094 265.04 567.78L265.388 568.139C264.664 568.843 263.922 569.542 263.164 570.238L262.826 569.87C261.117 571.438 259.323 572.986 257.451 574.504L257.766 574.892C256.982 575.528 256.185 576.158 255.375 576.782L255.07 576.386C253.222 577.81 251.306 579.205 249.326 580.563L249.609 580.975C248.774 581.548 247.928 582.114 247.071 582.673L246.797 582.255C244.839 583.533 242.823 584.775 240.755 585.974L241.006 586.407C240.127 586.916 239.239 587.418 238.341 587.912L238.1 587.474C236.047 588.604 233.945 589.692 231.8 590.732L232.018 591.182C231.104 591.625 230.182 592.06 229.253 592.485L229.045 592.03C226.908 593.008 224.731 593.938 222.518 594.814L222.702 595.279C221.757 595.653 220.806 596.017 219.848 596.371L219.675 595.902C217.467 596.719 215.226 597.481 212.955 598.185L213.103 598.662C212.133 598.963 211.156 599.253 210.175 599.532L210.039 599.051C207.772 599.695 205.478 600.28 203.161 600.8L203.271 601.287C202.279 601.51 201.283 601.721 200.283 601.92L200.186 601.429C197.874 601.889 195.541 602.283 193.19 602.608L193.258 603.103C192.251 603.242 191.241 603.368 190.228 603.481L190.173 602.984C188.999 603.116 187.821 603.229 186.639 603.324L186.639 603.324L186.627 603.326C186.118 603.38 185.06 603.423 183.683 603.454L183.694 603.954C182.917 603.971 182.047 603.984 181.128 603.993L181.123 603.493C179.2 603.511 177.066 603.511 175.144 603.493L175.139 603.993C174.22 603.984 173.349 603.971 172.572 603.954L172.583 603.454C171.207 603.423 170.148 603.38 169.64 603.326L169.64 603.325L169.627 603.324C168.446 603.229 167.268 603.116 166.094 602.984L166.038 603.481C165.025 603.368 164.015 603.242 163.008 603.103L163.077 602.608C160.726 602.283 158.393 601.889 156.081 601.429L155.984 601.92C154.984 601.721 153.988 601.51 152.996 601.288L153.106 600.8C150.789 600.28 148.495 599.695 146.229 599.051L146.092 599.532C145.111 599.253 144.135 598.963 143.164 598.662L143.312 598.185C141.042 597.481 138.801 596.719 136.593 595.902L136.419 596.371C135.462 596.017 134.511 595.653 133.566 595.279L133.75 594.814C131.537 593.938 129.36 593.008 127.223 592.03L127.015 592.485C126.086 592.059 125.164 591.625 124.25 591.182L124.468 590.732C122.323 589.692 120.222 588.604 118.168 587.473L117.927 587.911C117.03 587.417 116.142 586.915 115.263 586.406L115.514 585.973C113.446 584.774 111.43 583.532 109.472 582.254L109.198 582.672C108.341 582.113 107.495 581.547 106.661 580.974L106.943 580.562C104.963 579.204 103.047 577.809 101.2 576.385L100.895 576.781C100.085 576.157 99.2877 575.526 98.5043 574.891L98.8193 574.503C96.9473 572.984 95.1538 571.437 93.4444 569.868L93.1063 570.236C92.3484 569.541 91.6068 568.841 90.8822 568.137L91.2305 567.779C89.4933 566.092 87.8545 564.386 86.3211 562.668L85.9481 563.001C85.2638 562.235 84.6002 561.466 83.958 560.696L84.342 560.376C82.7815 558.504 81.3492 556.625 80.0538 554.751L79.6425 555.035C79.0529 554.182 78.4913 553.329 77.9586 552.479L78.3824 552.213C77.0783 550.131 75.95 548.062 75.0094 546.022L74.5554 546.232C74.1201 545.288 73.7242 544.35 73.3691 543.419L73.8363 543.241C72.952 540.922 72.3258 538.656 71.9742 536.467L71.4805 536.546C71.3155 535.518 71.2097 534.506 71.165 533.512L71.6645 533.49C71.6113 532.304 71.6468 531.147 71.7739 530.021ZM71.7739 530.021L71.2771 529.965L71.7739 530.021C71.7739 530.021 71.7739 530.021 71.7739 530.021Z" fill="white" fill-opacity="0.3" stroke="white" stroke-dasharray="7 3"/>
<path d="M220.632 169.258L220.632 169.258C219.548 168.648 218.614 167.997 217.822 167.313L217.495 167.692C216.538 166.867 215.772 165.989 215.183 165.069L215.605 164.799C214.352 162.842 213.942 160.682 214.235 158.404L213.739 158.34C213.882 157.231 214.185 156.099 214.631 154.956L215.097 155.137C215.854 153.199 217.043 151.212 218.592 149.237L218.198 148.929C218.898 148.036 219.669 147.149 220.502 146.271L220.865 146.615C222.381 145.019 224.112 143.453 226.012 141.952L225.702 141.56C226.606 140.845 227.548 140.146 228.523 139.465L228.809 139.875C230.673 138.572 232.658 137.336 234.729 136.193L234.488 135.756C235.508 135.192 236.549 134.652 237.607 134.136L237.826 134.586C239.911 133.57 242.06 132.652 244.242 131.857L244.07 131.387C245.174 130.984 246.287 130.613 247.404 130.275L247.549 130.753C248.666 130.415 249.787 130.111 250.908 129.844L250.927 129.839L250.944 129.834C252.1 129.465 253.251 129.137 254.398 128.846L254.276 128.362C255.46 128.062 256.639 127.802 257.813 127.579L257.906 128.07C260.309 127.615 262.687 127.319 265.032 127.163L264.999 126.664C266.215 126.582 267.422 126.538 268.62 126.528L268.624 127.028C271.061 127.008 273.458 127.132 275.803 127.375L275.855 126.878C277.066 127.004 278.264 127.161 279.446 127.348L279.369 127.841C281.781 128.221 284.13 128.72 286.406 129.311L286.532 128.827C287.715 129.134 288.877 129.466 290.018 129.818L289.87 130.296C292.23 131.025 294.496 131.844 296.657 132.718L296.844 132.254C297.982 132.715 299.091 133.19 300.168 133.676L299.962 134.132C302.267 135.172 304.427 136.26 306.42 137.345L306.659 136.906C307.763 137.507 308.816 138.108 309.814 138.699L309.559 139.13C311.89 140.51 313.923 141.842 315.614 143.017L315.899 142.607C317.042 143.401 318.03 144.125 318.848 144.746L318.546 145.144C319.451 145.83 320.148 146.389 320.617 146.775C320.852 146.968 321.03 147.118 321.148 147.219C321.208 147.27 321.252 147.308 321.282 147.334L321.314 147.362L321.322 147.369L321.324 147.371L321.324 147.371L321.359 147.402L321.399 147.426C322.272 147.947 323.02 148.457 323.654 148.953L323.962 148.559C324.815 149.226 325.475 149.872 325.967 150.488L325.576 150.8C326.378 151.805 326.658 152.666 326.632 153.344C326.606 154.01 326.283 154.574 325.718 155.003L326.021 155.401C325.364 155.901 324.459 156.217 323.424 156.302L323.383 155.804C322.592 155.869 321.71 155.788 320.802 155.532L320.666 156.013L320.802 155.532C319.658 155.209 318.526 154.906 317.406 154.622L317.283 155.107C316.148 154.82 315.026 154.552 313.915 154.304L314.024 153.816C311.689 153.293 309.405 152.855 307.171 152.493L307.091 152.987C305.936 152.8 304.794 152.634 303.666 152.487L303.73 151.991C301.356 151.683 299.04 151.462 296.781 151.32L296.75 151.819C295.579 151.745 294.423 151.693 293.283 151.66L293.298 151.161C290.909 151.093 288.588 151.113 286.331 151.209L286.353 151.709C285.177 151.759 284.019 151.83 282.879 151.921L282.84 151.422C280.453 151.612 278.143 151.886 275.908 152.23L275.984 152.724C274.825 152.902 273.686 153.099 272.566 153.314L272.472 152.823C270.122 153.272 267.858 153.796 265.678 154.376L265.806 154.859C264.671 155.161 263.559 155.478 262.469 155.808L262.325 155.329C260.024 156.025 257.822 156.776 255.716 157.559L255.891 158.027C254.784 158.438 253.704 158.858 252.65 159.282L252.463 158.819C250.212 159.726 248.077 160.655 246.056 161.573L246.262 162.028C245.18 162.519 244.129 163.007 243.109 163.486L242.896 163.034C241.812 163.543 240.773 164.038 239.767 164.517C238.685 165.032 237.642 165.529 236.627 166.004L236.839 166.456C235.74 166.971 234.685 167.454 233.672 167.896L233.472 167.437C231.072 168.485 228.936 169.29 227.03 169.729L227.143 170.217C225.91 170.501 224.765 170.638 223.7 170.593L223.721 170.094C222.583 170.046 221.56 169.78 220.632 169.258Z" fill="white" fill-opacity="0.3" stroke="white" stroke-dasharray="7.18 3.59"/>
<path d="M148.159 174.522L148.159 174.522C149.343 173.933 150.368 173.294 151.246 172.611L151.553 173.006C152.612 172.184 153.47 171.295 154.144 170.353L153.737 170.062C155.175 168.05 155.728 165.778 155.54 163.343L156.038 163.304C155.947 162.121 155.688 160.906 155.277 159.67L154.803 159.828C154.105 157.73 152.952 155.559 151.417 153.382L151.826 153.094C151.133 152.11 150.365 151.128 149.529 150.153L149.15 150.479C147.629 148.704 145.879 146.951 143.947 145.257L144.277 144.881C143.358 144.076 142.398 143.284 141.403 142.509L141.096 142.904C139.191 141.422 137.155 140.005 135.022 138.682L135.286 138.257C134.235 137.605 133.162 136.976 132.07 136.373L131.828 136.811C129.674 135.621 127.446 134.532 125.177 133.571L125.372 133.11C124.225 132.624 123.067 132.17 121.902 131.751L121.733 132.222C120.567 131.803 119.395 131.42 118.222 131.076L118.204 131.071L118.186 131.064C116.982 130.611 115.779 130.2 114.579 129.83L114.727 129.353C113.489 128.971 112.253 128.631 111.022 128.332L110.904 128.818C108.383 128.205 105.879 127.763 103.402 127.469L103.461 126.973C102.177 126.821 100.9 126.708 99.6325 126.633L99.6029 127.132C97.0209 126.979 94.4749 126.98 91.9764 127.111L91.9502 126.611C90.6603 126.679 89.3831 126.781 88.1203 126.914L88.1727 127.411C85.5962 127.682 83.0793 128.084 80.6356 128.587L80.5349 128.097C79.2657 128.358 78.0165 128.646 76.7889 128.958L76.9119 129.443C74.3725 130.087 71.9262 130.832 69.5899 131.64L69.4263 131.168C68.1957 131.594 66.9958 132.038 65.8288 132.494L66.0109 132.96C63.512 133.937 61.165 134.972 58.9944 136.014L58.778 135.564C57.5764 136.14 56.4287 136.719 55.3391 137.292L55.5716 137.734C53.0272 139.071 50.8008 140.371 48.9454 141.525L48.6814 141.101C47.4279 141.88 46.3427 142.594 45.4419 143.207L45.7232 143.62C44.727 144.298 43.9587 144.852 43.4404 145.236C43.1812 145.427 42.9846 145.577 42.8533 145.678C42.7877 145.728 42.7383 145.766 42.7057 145.792L42.6693 145.821L42.6605 145.827L42.6585 145.829L42.6581 145.829L42.6218 145.858L42.5807 145.88C41.6265 146.385 40.8059 146.886 40.1065 147.377L39.8191 146.968C38.8796 147.628 38.1451 148.277 37.5907 148.903L37.965 149.234C37.0575 150.259 36.7101 151.162 36.7011 151.891C36.6922 152.608 37.0086 153.232 37.5894 153.722L37.2668 154.104C37.9359 154.669 38.8776 155.053 39.9684 155.199L40.0347 154.704C40.873 154.816 41.8151 154.778 42.7945 154.555L42.9056 155.042L42.7945 154.555C44.0231 154.275 45.2384 154.015 46.4406 153.776L46.5384 154.266C47.7557 154.023 48.9595 153.801 50.1497 153.598L50.0657 153.105C52.5669 152.678 55.0093 152.338 57.3943 152.076L57.4488 152.573C58.6825 152.437 59.9007 152.323 61.1036 152.229L61.0647 151.731C63.5963 151.533 66.0608 151.425 68.4601 151.396L68.466 151.896C69.7102 151.882 70.9367 151.889 72.1459 151.916L72.1572 151.416C74.6903 151.474 77.1475 151.621 79.5315 151.845L79.4846 152.343C80.7271 152.46 81.9495 152.598 83.1522 152.756L83.2172 152.26C85.734 152.59 88.165 153.006 90.5136 153.491L90.4124 153.981C91.6304 154.232 92.8262 154.503 94.0002 154.791L94.1191 154.305C96.5839 154.909 98.9527 155.586 101.23 156.318L101.077 156.794C102.263 157.176 103.423 157.572 104.56 157.98L104.729 157.509C107.128 158.371 109.418 159.286 111.606 160.228L111.408 160.688C112.557 161.183 113.679 161.686 114.772 162.193L114.982 161.739C117.318 162.822 119.528 163.922 121.619 165.003L121.39 165.447C122.51 166.026 123.597 166.6 124.651 167.163L124.886 166.722C126.006 167.319 127.081 167.9 128.12 168.462C129.239 169.067 130.317 169.65 131.366 170.207L131.131 170.649C132.267 171.253 133.359 171.822 134.407 172.345L134.63 171.897C137.117 173.138 139.337 174.106 141.335 174.676L141.198 175.157C142.488 175.525 143.694 175.732 144.823 175.743L144.828 175.243C146.04 175.254 147.143 175.027 148.159 174.522Z" fill="white" fill-opacity="0.3" stroke="white" stroke-dasharray="7.18 3.59"/>
<path d="M131.313 229.765L131.312 229.765C130.395 230.377 129.271 231.041 127.929 231.726L127.701 231.281C126.668 231.808 125.502 232.349 124.196 232.887L124.386 233.35C122.296 234.212 119.854 235.067 117.038 235.855L116.903 235.373C115.723 235.703 114.476 236.022 113.16 236.323L113.272 236.811C110.949 237.344 108.414 237.825 105.658 238.23L105.586 237.736C104.355 237.917 103.08 238.082 101.76 238.231L101.816 238.727C99.3973 238.999 96.8275 239.212 94.1014 239.353L94.0755 238.854C92.8242 238.918 91.5396 238.968 90.2213 239.001L90.2337 239.5C88.9726 239.532 87.6808 239.548 86.3579 239.548C85.1023 239.548 83.8509 239.521 82.6059 239.468L82.627 238.968C81.379 238.916 80.1372 238.838 78.9036 238.736L78.8626 239.235C76.3405 239.027 73.8534 238.724 71.4187 238.343L71.496 237.849C70.2564 237.655 69.0303 237.441 67.82 237.209L67.726 237.701C65.2152 237.22 62.7727 236.664 60.4191 236.056L60.5443 235.571C59.3195 235.255 58.1189 234.924 56.9453 234.581L56.8053 235.061C54.2978 234.33 51.9132 233.548 49.6799 232.746L49.8489 232.275C48.6401 231.841 47.4759 231.401 46.3607 230.96L46.1768 231.425C43.6104 230.41 41.3013 229.389 39.3046 228.423L39.5224 227.973C38.2933 227.378 37.184 226.804 36.2075 226.264L35.9659 226.702C34.6475 225.974 33.5612 225.305 32.7419 224.729C31.9132 224.147 31.1049 223.761 30.3393 223.539L30.4785 223.059C29.4738 222.768 28.5194 222.734 27.6564 222.907L27.7549 223.397C26.0252 223.745 24.6946 225.02 24.1875 226.768L23.7073 226.628C23.458 227.488 23.3927 228.446 23.5528 229.455L24.0466 229.377C24.1747 230.185 24.4591 231.036 24.9304 231.9L24.4914 232.14L24.9305 231.9C25.3627 232.694 25.9844 233.642 26.7895 234.711L26.3902 235.012C27.0142 235.84 27.743 236.734 28.5716 237.677L28.9472 237.347C30.2864 238.871 31.8911 240.527 33.741 242.244L33.4009 242.61C34.2161 243.367 35.0783 244.135 35.9857 244.908L36.3099 244.527C37.9612 245.934 39.7635 247.358 41.706 248.764L41.4129 249.169C42.3275 249.831 43.2729 250.488 44.2481 251.137L44.5252 250.721C46.3726 251.952 48.3274 253.153 50.3819 254.299L50.1383 254.735C51.1321 255.29 52.1492 255.831 53.1887 256.357L53.4143 255.911C55.4144 256.922 57.4976 257.875 59.6579 258.748L59.4705 259.212C60.5284 259.64 61.6048 260.048 62.6989 260.435L62.8657 259.964C64.9879 260.715 67.1768 261.385 69.4273 261.956L69.3044 262.44C70.4108 262.721 71.5321 262.978 72.6677 263.208L72.7673 262.718C74.9728 263.167 77.2321 263.517 79.5408 263.753L79.49 264.25C80.626 264.366 81.7739 264.455 82.9333 264.514L82.9588 264.015C84.0906 264.072 85.2333 264.102 86.3864 264.102C87.5484 264.102 88.6898 264.076 89.8108 264.025L89.8334 264.525C91.0016 264.472 92.1479 264.393 93.2725 264.289L93.2265 263.791C95.5776 263.573 97.8329 263.247 99.9943 262.83L100.089 263.321C101.234 263.1 102.353 262.854 103.446 262.585L103.326 262.1C105.622 261.534 107.803 260.867 109.872 260.122L110.041 260.592C111.14 260.196 112.207 259.779 113.244 259.343L113.05 258.882C115.238 257.961 117.287 256.958 119.2 255.905L119.441 256.344C120.472 255.776 121.464 255.195 122.418 254.604L122.154 254.179C124.205 252.908 126.076 251.595 127.773 250.291L128.078 250.688C129.024 249.961 129.916 249.237 130.755 248.525L130.432 248.144C132.384 246.487 134.049 244.894 135.439 243.477L135.796 243.827C136.699 242.907 137.485 242.061 138.16 241.319L137.79 240.983C138.203 240.528 138.578 240.108 138.913 239.733C139.394 239.195 139.792 238.749 140.1 238.428C140.967 237.525 141.554 236.545 141.898 235.561L142.37 235.726C142.793 234.514 142.876 233.285 142.667 232.155L142.175 232.246C141.766 230.031 140.152 228.253 137.767 227.883L137.844 227.389C136.782 227.224 135.58 227.315 134.27 227.736L134.423 228.212C133.455 228.523 132.414 229.027 131.313 229.765Z" fill="white" fill-opacity="0.3" stroke="white" stroke-dasharray="7.18 3.59"/>
<path d="M230.547 229.742L230.547 229.741C229.446 229.004 228.404 228.5 227.437 228.189L227.59 227.713C226.279 227.292 225.077 227.201 224.016 227.365L224.092 227.859C221.708 228.229 220.094 230.008 219.684 232.222L219.192 232.131C218.983 233.261 219.066 234.49 219.49 235.703L219.962 235.538C220.305 236.521 220.892 237.501 221.76 238.405M230.547 229.742L221.76 238.405M230.547 229.742C231.465 230.353 232.588 231.018 233.931 231.703L234.158 231.258C235.191 231.785 236.358 232.325 237.664 232.864L237.473 233.326C239.564 234.188 242.005 235.044 244.821 235.831L244.956 235.35C246.136 235.68 247.383 235.998 248.699 236.3L248.587 236.787C250.911 237.32 253.445 237.802 256.201 238.207L256.274 237.712C257.504 237.893 258.779 238.059 260.099 238.207L260.043 238.704C262.462 238.976 265.032 239.189 267.758 239.329L267.784 238.83C269.035 238.895 270.32 238.944 271.638 238.977L271.626 239.477C272.887 239.508 274.179 239.525 275.501 239.525C276.757 239.525 278.008 239.497 279.253 239.445L279.232 238.945C280.48 238.892 281.722 238.814 282.956 238.713L282.997 239.211C285.519 239.004 288.006 238.7 290.441 238.32L290.363 237.826C291.603 237.632 292.829 237.418 294.039 237.186L294.133 237.677C296.644 237.197 299.087 236.641 301.44 236.032L301.315 235.548C302.54 235.231 303.74 234.9 304.914 234.558L305.054 235.038C307.562 234.307 309.946 233.524 312.179 232.722L312.01 232.252C313.219 231.817 314.384 231.377 315.499 230.936L315.683 231.401C318.249 230.386 320.558 229.366 322.555 228.399L322.337 227.949C323.566 227.354 324.675 226.78 325.652 226.241L325.894 226.679C327.212 225.951 328.298 225.282 329.118 224.706C329.946 224.123 330.754 223.738 331.52 223.516L331.381 223.036C332.386 222.745 333.34 222.71 334.203 222.883L334.104 223.374C335.834 223.721 337.165 224.997 337.672 226.744L338.152 226.605C338.401 227.464 338.467 228.423 338.307 229.432L337.813 229.354C337.685 230.161 337.4 231.012 336.929 231.877L337.368 232.116L336.929 231.877C336.497 232.67 335.875 233.619 335.07 234.687L335.469 234.988C334.845 235.816 334.116 236.71 333.288 237.653L332.912 237.323C331.573 238.847 329.968 240.504 328.118 242.22L328.458 242.587C327.643 243.343 326.781 244.111 325.874 244.884L325.549 244.504C323.898 245.91 322.096 247.335 320.153 248.74L320.446 249.145C319.532 249.807 318.586 250.465 317.611 251.114L317.334 250.698C315.487 251.928 313.532 253.129 311.478 254.275L311.721 254.712C310.727 255.266 309.71 255.808 308.671 256.333L308.445 255.887C306.445 256.899 304.362 257.852 302.201 258.725L302.389 259.189C301.331 259.616 300.255 260.025 299.16 260.412L298.994 259.941C296.871 260.692 294.683 261.362 292.432 261.932L292.555 262.417C291.449 262.697 290.327 262.954 289.192 263.185L289.092 262.695C286.887 263.143 284.627 263.493 282.319 263.729L282.369 264.226C281.233 264.343 280.085 264.431 278.926 264.49L278.901 263.991C277.769 264.049 276.626 264.079 275.473 264.079C274.311 264.079 273.17 264.053 272.049 264.002L272.026 264.501C270.858 264.448 269.711 264.369 268.587 264.265L268.633 263.767C266.282 263.55 264.026 263.224 261.865 262.807L261.77 263.298C260.625 263.077 259.507 262.831 258.414 262.562L258.533 262.076C256.237 261.511 254.056 260.844 251.987 260.098L251.818 260.569C250.719 260.173 249.652 259.755 248.616 259.319L248.809 258.858C246.622 257.938 244.573 256.935 242.66 255.882L242.419 256.32C241.387 255.753 240.395 255.171 239.442 254.58L239.705 254.155C237.655 252.885 235.783 251.572 234.086 250.268L233.781 250.664C232.836 249.938 231.943 249.214 231.104 248.502L231.427 248.12C229.475 246.464 227.81 244.871 226.42 243.453L226.063 243.803C225.161 242.883 224.374 242.037 223.7 241.295L224.07 240.959C223.657 240.505 223.281 240.085 222.946 239.709C222.466 239.171 222.067 238.726 221.76 238.405M230.547 229.742L221.399 238.751L221.76 238.405" fill="white" fill-opacity="0.3" stroke="white" stroke-dasharray="7.18 3.59"/>
<path d="M227.84 264.112L227.872 264.086L227.899 264.055C228.459 263.417 229.342 263.107 230.653 263.12L230.658 262.62C231.626 262.63 232.754 262.806 234.033 263.105L233.919 263.592C235.771 264.025 237.95 264.722 240.439 265.556L240.598 265.082C241.218 265.289 241.855 265.505 242.51 265.726C242.946 265.874 243.389 266.023 243.84 266.175L243.68 266.649C245.708 267.332 247.893 268.056 250.217 268.764L250.362 268.286C251.433 268.612 252.533 268.935 253.661 269.248L253.527 269.73C255.656 270.322 257.885 270.881 260.206 271.371L260.309 270.882C261.412 271.115 262.536 271.332 263.679 271.53L263.594 272.022C265.8 272.403 268.08 272.711 270.425 272.916L270.469 272.418C271.593 272.516 272.733 272.591 273.887 272.639L273.867 273.138C276.115 273.231 278.418 273.223 280.768 273.09L280.74 272.59C281.868 272.526 283.007 272.433 284.157 272.309L284.211 272.806C286.446 272.563 288.72 272.202 291.029 271.704L290.923 271.215C292.025 270.977 293.135 270.707 294.252 270.404L294.383 270.886C295.479 270.589 296.582 270.259 297.691 269.895C298.788 269.535 299.861 269.161 300.912 268.773L300.739 268.304C301.816 267.907 302.869 267.497 303.899 267.075L304.089 267.538C306.254 266.651 308.318 265.713 310.289 264.742L310.068 264.293C311.099 263.786 312.105 263.269 313.087 262.745L313.322 263.187C315.394 262.082 317.357 260.95 319.225 259.813L318.965 259.386C319.95 258.786 320.908 258.186 321.841 257.587L322.111 258.008C324.103 256.73 325.981 255.463 327.76 254.243L327.477 253.831C328.344 253.236 329.188 252.652 330.011 252.082C330.096 252.023 330.182 251.964 330.267 251.905L330.551 252.316C332.536 250.942 334.39 249.663 336.147 248.529L335.875 248.109C336.867 247.469 337.828 246.874 338.764 246.336L339.013 246.77C341.174 245.527 343.171 244.602 345.073 244.101L344.946 243.618C346.083 243.319 347.195 243.165 348.292 243.182L348.284 243.682C349.346 243.698 350.393 243.883 351.439 244.262C352.522 244.654 353.363 245.377 353.997 246.402L354.423 246.139C355.012 247.092 355.424 248.271 355.679 249.637L355.188 249.729C355.567 251.758 355.593 254.237 355.324 257.039L355.822 257.086C355.709 258.27 355.544 259.507 355.333 260.784L354.839 260.703C354.46 263.005 353.928 265.447 353.278 267.967L353.762 268.092C353.456 269.277 353.124 270.477 352.77 271.688L352.29 271.548C351.605 273.887 350.835 276.265 350.004 278.636L350.476 278.801C350.064 279.976 349.638 281.148 349.199 282.313L348.731 282.137C347.846 284.487 346.912 286.808 345.953 289.052L346.413 289.248C345.917 290.41 345.414 291.55 344.908 292.665L344.452 292.458C343.372 294.835 342.277 297.09 341.2 299.16L341.644 299.391C341.045 300.543 340.451 301.638 339.868 302.667L339.433 302.42C338.784 303.565 338.149 304.625 337.537 305.585C336.819 306.552 336.105 307.512 335.393 308.463L335.794 308.763C335.071 309.73 334.351 310.69 333.635 311.642L333.235 311.342C331.774 313.283 330.327 315.192 328.894 317.068L329.291 317.371C328.556 318.333 327.825 319.286 327.098 320.231L326.702 319.926C325.217 321.854 323.749 323.747 322.298 325.602L322.692 325.91C321.946 326.863 321.206 327.806 320.47 328.739L320.077 328.429C318.563 330.349 317.068 332.227 315.594 334.062L315.984 334.375C315.226 335.32 314.473 336.252 313.726 337.174L313.338 336.859C311.798 338.76 310.282 340.612 308.791 342.415L309.176 342.733C308.402 343.67 307.634 344.593 306.873 345.503L306.49 345.183C304.911 347.072 303.362 348.904 301.844 350.678L302.224 351.003C301.433 351.928 300.65 352.837 299.876 353.73L299.498 353.402C297.877 355.273 296.294 357.073 294.753 358.802L295.126 359.134C294.313 360.046 293.511 360.937 292.721 361.809L292.351 361.473C290.675 363.322 289.051 365.079 287.483 366.744L287.847 367.087C287.002 367.984 286.173 368.854 285.361 369.698L285.001 369.351C283.236 371.181 281.55 372.883 279.947 374.454L280.297 374.811C279.407 375.683 278.542 376.515 277.703 377.306L277.36 376.942C275.436 378.755 273.652 380.351 272.017 381.724L272.339 382.107C271.349 382.938 270.413 383.688 269.532 384.357L269.229 383.958C268.179 384.755 267.213 385.431 266.332 385.986C265.492 386.516 264.63 386.723 263.801 386.677L263.774 387.177C262.799 387.124 261.856 386.759 261.023 386.154L261.317 385.749C260.616 385.24 259.993 384.537 259.508 383.687C258.964 382.732 258.405 381.709 257.833 380.624L257.391 380.857C256.867 379.862 256.333 378.815 255.79 377.721L256.238 377.499C255.26 375.526 254.255 373.397 253.231 371.138L252.775 371.344C252.303 370.302 251.828 369.233 251.349 368.138L251.807 367.938C250.901 365.866 249.985 363.703 249.066 361.466L248.603 361.657C248.161 360.582 247.719 359.491 247.276 358.385L247.741 358.199C246.888 356.067 246.035 353.879 245.186 351.647L244.719 351.824C244.304 350.735 243.891 349.635 243.48 348.526L243.949 348.352C243.141 346.176 242.34 343.966 241.55 341.732L241.079 341.899C240.688 340.796 240.301 339.687 239.916 338.575L240.389 338.411C239.626 336.201 238.875 333.974 238.14 331.74L237.665 331.897C237.298 330.781 236.936 329.663 236.577 328.545L237.054 328.393C236.336 326.152 235.637 323.91 234.96 321.678L234.482 321.823C234.14 320.693 233.803 319.566 233.473 318.442L233.953 318.301C233.285 316.026 232.643 313.767 232.032 311.535L231.55 311.667C231.237 310.526 230.933 309.391 230.637 308.265L231.12 308.138C230.511 305.82 229.938 303.538 229.408 301.307L228.921 301.423C228.647 300.267 228.383 299.125 228.132 297.999L228.62 297.89C228.09 295.519 227.614 293.218 227.198 291.002L226.707 291.095C226.485 289.911 226.279 288.752 226.092 287.619L226.586 287.537C226.179 285.081 225.859 282.754 225.634 280.583L225.137 280.634C225.011 279.414 224.914 278.243 224.85 277.124L225.349 277.095C225.197 274.452 225.224 272.121 225.452 270.16L224.955 270.102C225.107 268.792 225.347 267.638 225.682 266.658L226.155 266.82C226.58 265.578 227.146 264.68 227.84 264.112Z" fill="white" fill-opacity="0.3" stroke="white" stroke-dasharray="7.18 3.59"/>
<path d="M132.257 264.112L132.226 264.086L132.198 264.055C131.639 263.417 130.756 263.107 129.445 263.12L129.44 262.62C128.472 262.63 127.343 262.806 126.065 263.105L126.179 263.592C124.327 264.025 122.148 264.722 119.658 265.556L119.5 265.082C118.88 265.289 118.243 265.505 117.588 265.726C117.152 265.874 116.709 266.023 116.258 266.175L116.418 266.649C114.389 267.332 112.205 268.056 109.881 268.764L109.735 268.286C108.665 268.612 107.565 268.935 106.437 269.248L106.57 269.73C104.442 270.322 102.213 270.881 99.8921 271.371L99.7888 270.882C98.6856 271.115 97.562 271.332 96.4189 271.53L96.5039 272.022C94.2975 272.403 92.018 272.711 89.6727 272.916L89.6291 272.418C88.5043 272.516 87.3645 272.591 86.2104 272.639L86.2311 273.138C83.9827 273.231 81.6801 273.223 79.3292 273.09L79.3576 272.59C78.2295 272.526 77.0904 272.433 75.9408 272.309L75.8869 272.806C73.6518 272.563 71.3775 272.202 69.0688 271.704L69.1744 271.215C68.0724 270.977 66.9625 270.707 65.8453 270.404L65.7142 270.886C64.6184 270.589 63.5157 270.259 62.4065 269.895C61.3096 269.535 60.2362 269.161 59.1854 268.773L59.3583 268.304C58.2815 267.907 57.2286 267.497 56.1987 267.075L56.0091 267.538C53.844 266.651 51.78 265.713 49.8086 264.742L50.0295 264.293C48.9984 263.786 47.9926 263.269 47.011 262.745L46.7758 263.187C44.7042 262.082 42.7402 260.95 40.8727 259.813L41.1327 259.386C40.148 258.786 39.1899 258.186 38.2568 257.587L37.9869 258.008C35.9943 256.73 34.1163 255.463 32.3377 254.243L32.6206 253.831C31.7536 253.236 30.9097 252.652 30.087 252.082C30.0014 252.023 29.916 251.964 29.8308 251.905L29.5462 252.316C27.5613 250.942 25.7073 249.663 23.9511 248.529L24.2223 248.109C23.2306 247.469 22.2694 246.874 21.3339 246.336L21.0846 246.77C18.9237 245.527 16.9265 244.602 15.0249 244.101L15.1521 243.618C14.0142 243.319 12.9028 243.165 11.8061 243.182L11.8139 243.682C10.7512 243.698 9.70441 243.883 8.65845 244.262C7.57593 244.654 6.73419 245.377 6.10034 246.402L5.67513 246.139C5.08563 247.092 4.67363 248.271 4.41847 249.637L4.90997 249.729C4.53098 251.758 4.50505 254.237 4.77335 257.039L4.27563 257.086C4.38902 258.27 4.55391 259.507 4.76486 260.784L5.25818 260.703C5.63814 263.005 6.16925 265.447 6.81996 267.967L6.33583 268.092C6.64151 269.277 6.97325 270.477 7.32773 271.688L7.80759 271.548C8.4922 273.887 9.26224 276.265 10.0936 278.636L9.6218 278.801C10.0335 279.976 10.4601 281.148 10.8987 282.313L11.3667 282.137C12.2517 284.487 13.1857 286.808 14.1447 289.052L13.685 289.248C14.1811 290.41 14.6839 291.55 15.1901 292.665L15.6453 292.458C16.7254 294.835 17.8203 297.09 18.8973 299.16L18.4537 299.391C19.0529 300.543 19.6468 301.638 20.2299 302.667L20.6649 302.42C21.3139 303.565 21.9486 304.625 22.5611 305.585C23.2785 306.552 23.9929 307.512 24.7042 308.463L24.3037 308.763C25.0267 309.73 25.7465 310.69 26.4631 311.642L26.8626 311.342C28.3237 313.283 29.771 315.192 31.204 317.068L30.8066 317.371C31.5414 318.333 32.2724 319.286 32.9994 320.231L33.3956 319.926C34.8803 321.854 36.3486 323.747 37.7998 325.602L37.406 325.91C38.1513 326.863 38.892 327.806 39.6281 328.739L40.0207 328.429C41.535 330.349 43.0296 332.227 44.5034 334.062L44.1135 334.375C44.8716 335.32 45.6242 336.252 46.3712 337.174L46.7597 336.859C48.2998 338.76 49.8159 340.612 51.3068 342.415L50.9214 342.733C51.6959 343.67 52.4635 344.593 53.2242 345.503L53.6078 345.183C55.187 347.072 56.7361 348.904 58.2535 350.678L57.8735 351.003C58.6649 351.928 59.4477 352.837 60.2217 353.73L60.5996 353.402C62.2209 355.273 63.8034 357.073 65.345 358.802L64.9719 359.134C65.7849 360.046 66.5865 360.937 67.3765 361.809L67.7469 361.473C69.4231 363.322 71.0467 365.079 72.6149 366.744L72.2509 367.087C73.0958 367.984 73.9246 368.854 74.7371 369.698L75.0971 369.351C76.8614 371.181 78.5475 372.883 80.1507 374.454L79.8009 374.811C80.6911 375.683 81.5561 376.515 82.395 377.306L82.738 376.942C84.6614 378.755 86.4453 380.351 88.0804 381.724L87.7589 382.107C88.7487 382.938 89.6851 383.688 90.5659 384.357L90.8682 383.958C91.9184 384.755 92.8851 385.431 93.7652 385.986C94.6053 386.516 95.468 386.723 96.2969 386.677L96.3242 387.177C97.299 387.124 98.242 386.759 99.0745 386.154L98.7804 385.749C99.4812 385.24 100.105 384.537 100.59 383.687C101.134 382.732 101.693 381.709 102.264 380.624L102.707 380.857C103.231 379.862 103.765 378.815 104.307 377.721L103.859 377.499C104.837 375.526 105.843 373.397 106.867 371.138L107.322 371.344C107.794 370.302 108.27 369.233 108.749 368.138L108.291 367.938C109.196 365.866 110.112 363.703 111.032 361.466L111.495 361.657C111.936 360.582 112.379 359.491 112.821 358.385L112.357 358.199C113.21 356.067 114.063 353.879 114.912 351.647L115.379 351.824C115.793 350.735 116.206 349.635 116.618 348.526L116.149 348.352C116.956 346.176 117.757 343.966 118.548 341.732L119.019 341.899C119.409 340.796 119.797 339.687 120.181 338.575L119.709 338.411C120.472 336.201 121.223 333.974 121.957 331.74L122.432 331.897C122.799 330.781 123.162 329.663 123.52 328.545L123.044 328.393C123.762 326.152 124.461 323.91 125.137 321.678L125.616 321.823C125.958 320.693 126.294 319.566 126.624 318.442L126.145 318.301C126.813 316.026 127.455 313.767 128.066 311.535L128.548 311.667C128.861 310.526 129.165 309.391 129.461 308.265L128.977 308.138C129.587 305.82 130.159 303.538 130.69 301.307L131.176 301.423C131.451 300.267 131.714 299.125 131.966 297.999L131.478 297.89C132.007 295.519 132.483 293.218 132.899 291.002L133.391 291.095C133.613 289.911 133.818 288.752 134.005 287.619L133.512 287.537C133.918 285.081 134.239 282.754 134.463 280.583L134.961 280.634C135.087 279.414 135.183 278.243 135.248 277.124L134.749 277.095C134.901 274.452 134.873 272.121 134.646 270.16L135.142 270.102C134.99 268.792 134.751 267.638 134.416 266.658L133.942 266.82C133.518 265.578 132.952 264.68 132.257 264.112Z" fill="white" fill-opacity="0.3" stroke="white" stroke-dasharray="7.18 3.59"/>
<path d="M134.855 396.115C133.559 396.014 132.34 395.912 131.195 395.811L131.239 395.312C129.926 395.196 128.712 395.081 127.596 394.969C127.393 394.948 127.195 394.906 127.003 394.845L126.85 395.321C126.624 395.248 126.406 395.152 126.2 395.034L126.448 394.6C126.273 394.5 126.108 394.381 125.956 394.246C125.804 394.11 125.667 393.959 125.548 393.797L125.145 394.093C125.004 393.902 124.884 393.696 124.786 393.48L125.241 393.273C125.158 393.09 125.093 392.897 125.049 392.698C125.005 392.499 124.982 392.297 124.981 392.095L124.481 392.1C124.478 391.862 124.501 391.625 124.548 391.392L125.038 391.491C125.078 391.293 125.138 391.099 125.219 390.912C125.3 390.724 125.4 390.547 125.516 390.383L125.108 390.094C125.245 389.9 125.402 389.721 125.576 389.56L125.916 389.927C126.064 389.79 126.226 389.668 126.401 389.563C127.434 388.95 128.536 388.3 129.691 387.623L129.438 387.192C130.501 386.569 131.61 385.924 132.752 385.264L133.002 385.697C135.127 384.468 137.369 383.19 139.652 381.913L139.408 381.476C140.518 380.855 141.638 380.235 142.759 379.62L143 380.059C145.269 378.815 147.542 377.598 149.748 376.457L149.518 376.013C150.679 375.412 151.821 374.832 152.934 374.28L153.156 374.728C155.652 373.49 157.997 372.397 160.075 371.527L159.882 371.066C161.19 370.518 162.394 370.057 163.466 369.705L163.622 370.18C165.16 369.673 166.368 369.41 167.19 369.41C168.202 369.41 169.115 369.455 169.942 369.536L169.991 369.039C171.033 369.141 171.946 369.3 172.754 369.501L172.634 369.986C174.918 370.553 176.318 371.459 177.428 372.339L177.739 371.947C178.037 372.183 178.313 372.417 178.58 372.642C179.042 373.033 179.472 373.397 179.924 373.698L179.647 374.114C180.453 374.65 181.347 375.014 182.558 375.014C184.458 375.014 185.9 374.119 187.271 373.107L186.974 372.704C187.226 372.518 187.479 372.325 187.736 372.129C188.717 371.381 189.752 370.592 190.992 369.982L191.213 370.431C192.438 369.829 193.872 369.41 195.69 369.41C196.368 369.41 197.513 369.707 199.065 370.291L199.241 369.823C200.244 370.201 201.385 370.684 202.634 371.253L202.427 371.708C204.391 372.603 206.628 373.713 209.019 374.958L209.25 374.515C210.311 375.067 211.401 375.646 212.511 376.244L212.274 376.684C214.377 377.817 216.549 379.02 218.72 380.244L218.966 379.808C220.038 380.412 221.109 381.022 222.172 381.631L221.923 382.064C224.109 383.317 226.257 384.567 228.294 385.764L228.547 385.333C229.643 385.977 230.706 386.606 231.726 387.212L231.47 387.642C232.58 388.301 233.637 388.933 234.628 389.528C234.801 389.632 234.962 389.754 235.109 389.89L235.449 389.523C235.621 389.683 235.777 389.861 235.913 390.053L235.505 390.342C235.621 390.505 235.72 390.681 235.8 390.867C235.881 391.052 235.941 391.244 235.982 391.44L236.472 391.34C236.519 391.571 236.543 391.806 236.542 392.041L236.042 392.039C236.041 392.24 236.02 392.44 235.977 392.638C235.935 392.836 235.873 393.028 235.792 393.21L236.249 393.413C236.154 393.628 236.036 393.833 235.899 394.025L235.493 393.733C235.376 393.895 235.242 394.046 235.093 394.182C234.944 394.319 234.781 394.439 234.609 394.54L234.864 394.971C234.661 395.091 234.446 395.189 234.223 395.265L234.063 394.791C233.874 394.856 233.677 394.9 233.477 394.925C232.449 395.046 231.327 395.17 230.107 395.294L230.157 395.792C229.101 395.899 227.972 396.007 226.767 396.114L226.723 395.616C224.686 395.797 222.432 395.974 219.948 396.141L219.981 396.64C218.894 396.713 217.763 396.784 216.586 396.853L216.557 396.354C214.441 396.477 212.179 396.593 209.764 396.697L209.785 397.196C208.684 397.244 207.551 397.289 206.385 397.331L206.367 396.832C204.213 396.91 201.948 396.979 199.569 397.037L199.582 397.537C198.471 397.563 197.335 397.588 196.173 397.61L196.164 397.11C193.987 397.151 191.721 397.183 189.364 397.204L189.368 397.704C188.256 397.714 187.123 397.721 185.969 397.726L185.967 397.226C184.85 397.231 183.714 397.233 182.558 397.233C181.314 397.233 180.088 397.231 178.882 397.226L178.88 397.726C177.638 397.72 176.416 397.712 175.214 397.702L175.219 397.202C172.682 397.179 170.235 397.146 167.876 397.103L167.867 397.602C166.619 397.58 165.396 397.554 164.197 397.526L164.209 397.026C161.651 396.966 159.205 396.895 156.87 396.814L156.852 397.314C155.597 397.271 154.374 397.225 153.183 397.177L153.203 396.677C150.611 396.572 148.169 396.457 145.875 396.334L145.848 396.833C144.583 396.765 143.362 396.695 142.186 396.623L142.216 396.124C139.549 395.961 137.109 395.79 134.894 395.616L134.855 396.115Z" fill="white" fill-opacity="0.3" stroke="white" stroke-dasharray="7.18 3.59"/>
<path d="M226.364 400.963C227.677 400.794 228.908 400.625 230.058 400.457L233.818 400.38C233.818 400.38 233.818 400.38 233.818 400.38C234.016 400.347 234.216 400.335 234.415 400.343L234.436 399.844C234.67 399.854 234.902 399.888 235.129 399.945L235.006 400.43C235.199 400.478 235.387 400.547 235.568 400.635C235.749 400.723 235.919 400.829 236.076 400.951L236.382 400.555C236.568 400.699 236.738 400.861 236.89 401.039L236.509 401.364C236.638 401.515 236.752 401.68 236.849 401.856C236.945 402.033 237.023 402.218 237.081 402.408L237.559 402.262C237.628 402.486 237.673 402.717 237.694 402.95L237.196 402.995C237.214 403.194 237.211 403.394 237.188 403.594C237.165 403.794 237.121 403.989 237.059 404.178L237.533 404.336C237.459 404.558 237.363 404.772 237.245 404.975L236.813 404.724C236.713 404.896 236.595 405.058 236.461 405.208L236.46 405.208C235.684 406.076 234.836 406.994 233.918 407.948L234.278 408.295C233.448 409.158 232.56 410.051 231.616 410.964L231.269 410.605C229.587 412.232 227.728 413.921 225.699 415.616L226.019 416C225.077 416.786 224.099 417.574 223.085 418.358L222.779 417.962C220.871 419.437 218.836 420.895 216.68 422.298L216.953 422.717C215.914 423.392 214.848 424.056 213.754 424.702L213.5 424.272C211.397 425.514 209.194 426.694 206.893 427.78L207.107 428.232C205.982 428.763 204.835 429.272 203.665 429.756L203.474 429.294C201.209 430.229 198.859 431.068 196.429 431.784L196.57 432.264C195.376 432.616 194.162 432.939 192.929 433.229L192.815 432.742C190.434 433.303 187.982 433.742 185.461 434.038L185.519 434.535C184.287 434.679 183.038 434.79 181.773 434.864L181.744 434.365C180.513 434.437 179.267 434.474 178.006 434.474C176.843 434.474 175.69 434.432 174.547 434.349L174.511 434.847C173.342 434.763 172.184 434.636 171.037 434.472L171.108 433.977C168.804 433.647 166.545 433.161 164.336 432.544L164.201 433.025C163.076 432.711 161.964 432.363 160.865 431.985L161.028 431.512C158.829 430.754 156.685 429.873 154.605 428.897L154.392 429.349C153.333 428.852 152.291 428.33 151.266 427.787L151.5 427.346C149.43 426.25 147.43 425.067 145.509 423.827L145.238 424.247C144.251 423.61 143.284 422.958 142.34 422.296L142.627 421.886C140.682 420.522 138.83 419.111 137.077 417.687L136.762 418.075C135.842 417.328 134.949 416.576 134.085 415.827L134.412 415.449C132.57 413.852 130.86 412.262 129.295 410.73L128.945 411.087C128.079 410.239 127.257 409.409 126.482 408.605L126.842 408.258C125.994 407.379 125.201 406.531 124.467 405.724C124.332 405.575 124.214 405.413 124.113 405.241L123.682 405.493C123.563 405.29 123.466 405.075 123.391 404.853L123.865 404.694C123.802 404.505 123.758 404.309 123.735 404.108C123.711 403.908 123.709 403.707 123.726 403.508L123.228 403.464C123.249 403.23 123.294 402.998 123.363 402.774L123.841 402.919C123.899 402.728 123.977 402.543 124.074 402.366C124.171 402.189 124.285 402.024 124.415 401.872L124.035 401.547C124.187 401.369 124.358 401.206 124.544 401.063L124.849 401.459C125.007 401.337 125.178 401.231 125.36 401.143C125.541 401.055 125.73 400.987 125.923 400.938L125.802 400.453C126.03 400.396 126.263 400.363 126.498 400.354L126.517 400.853C126.716 400.846 126.917 400.858 127.116 400.892L127.117 400.892C128.146 401.063 129.266 401.238 130.48 401.412L130.552 400.917C131.602 401.068 132.724 401.22 133.92 401.369L133.858 401.865C135.897 402.12 138.149 402.371 140.628 402.606L140.675 402.108C141.758 402.211 142.885 402.312 144.057 402.408L144.015 402.907C146.132 403.082 148.393 403.245 150.805 403.392L150.836 402.893C151.934 402.96 153.065 403.023 154.227 403.083L154.201 403.582C156.356 403.693 158.621 403.791 160.999 403.872L161.016 403.373C162.124 403.411 163.257 403.445 164.416 403.476L164.402 403.976C166.58 404.034 168.845 404.079 171.202 404.109L171.209 403.609C172.319 403.623 173.45 403.633 174.601 403.641L174.598 404.141C175.715 404.147 176.85 404.151 178.006 404.151C179.272 404.151 180.517 404.146 181.744 404.138L181.74 403.638C183.002 403.629 184.242 403.616 185.462 403.598L185.469 404.098C188.049 404.061 190.537 404.005 192.933 403.933L192.918 403.434C194.185 403.396 195.427 403.353 196.643 403.307L196.663 403.806C199.265 403.706 201.75 403.588 204.122 403.454L204.093 402.955C205.367 402.883 206.607 402.807 207.814 402.727L207.847 403.226C210.484 403.051 212.964 402.858 215.291 402.654L215.247 402.156C216.529 402.043 217.765 401.926 218.954 401.807L219.003 402.305C221.717 402.032 224.19 401.747 226.428 401.459L226.364 400.963Z" fill="white" fill-opacity="0.3" stroke="white" stroke-dasharray="7.18 3.59"/>
<path d="M235.771 348.879L235.77 348.875C235.59 348.445 235.39 347.943 235.177 347.404C234.976 346.899 234.764 346.363 234.543 345.827L235.006 345.636C234.609 344.672 234.165 343.647 233.662 342.642L233.215 342.866C232.203 340.843 230.981 338.963 229.477 337.806L229.782 337.409C228.894 336.726 227.903 336.271 226.794 336.158L226.743 336.655C225.867 336.565 224.889 336.709 223.792 337.181M235.771 348.879L223.792 337.181M235.771 348.879L235.771 348.879L235.771 348.879L235.773 348.882L235.777 348.892L235.795 348.934L235.865 349.099C235.926 349.245 236.016 349.459 236.132 349.736C236.362 350.29 236.691 351.092 237.089 352.083L237.553 351.897C237.926 352.828 238.359 353.926 238.825 355.143L238.358 355.322C239.102 357.265 239.93 359.509 240.736 361.859L241.209 361.697C241.582 362.784 241.95 363.894 242.303 365.006L241.826 365.158C242.546 367.429 243.201 369.709 243.7 371.833L244.187 371.718C244.469 372.916 244.702 374.065 244.871 375.137L244.377 375.215C244.576 376.479 244.682 377.62 244.673 378.594C244.663 379.562 244.429 380.581 244.035 381.473L244.492 381.675C244.019 382.745 243.333 383.642 242.537 384.11L242.284 383.679C241.917 383.895 241.546 383.988 241.178 383.95C240.81 383.913 240.397 383.742 239.955 383.35L239.623 383.724L239.955 383.35C239.083 382.578 238.221 381.831 237.367 381.107L237.044 381.489C236.158 380.737 235.282 380.012 234.415 379.31L234.73 378.922C232.872 377.419 231.058 376.028 229.289 374.743L228.995 375.147C228.052 374.462 227.121 373.806 226.203 373.179L226.485 372.766C224.5 371.411 222.574 370.19 220.709 369.091L220.455 369.522C219.443 368.926 218.45 368.366 217.474 367.841L217.711 367.401C215.565 366.245 213.504 365.253 211.531 364.407L211.334 364.867C210.253 364.403 209.199 363.984 208.172 363.605L208.345 363.136C206.012 362.274 203.814 361.62 201.756 361.135L201.642 361.622C200.482 361.348 199.368 361.129 198.299 360.957L198.379 360.463C195.827 360.053 193.53 359.908 191.495 359.935L191.501 360.435C190.266 360.451 189.13 360.532 188.094 360.655M235.771 348.879L188.094 360.655M223.792 337.181L223.594 336.722L115.895 376.304C115.887 375.373 115.984 374.315 116.167 373.164L115.673 373.085C115.833 372.078 116.056 371.011 116.328 369.906L116.814 370.026C117.301 368.043 117.947 365.937 118.662 363.849L118.189 363.687C118.542 362.657 118.91 361.633 119.285 360.632L119.753 360.807C120.564 358.639 121.401 356.577 122.155 354.796L121.695 354.601C122.167 353.485 122.607 352.479 122.987 351.626L123.444 351.829C123.848 350.921 124.185 350.187 124.42 349.681C124.538 349.428 124.63 349.232 124.692 349.099C124.724 349.033 124.748 348.982 124.764 348.949L124.782 348.911L124.787 348.901L124.788 348.899L124.788 348.898L124.788 348.898L124.788 348.898L124.788 348.898L124.793 348.887L124.798 348.875C124.978 348.445 125.178 347.943 125.391 347.404C125.592 346.899 125.804 346.363 126.025 345.827L125.562 345.636C125.959 344.672 126.403 343.647 126.906 342.642L127.353 342.866C128.365 340.843 129.587 338.963 131.091 337.806L130.786 337.409C131.674 336.726 132.665 336.271 133.774 336.158L133.825 336.655C134.701 336.565 135.679 336.709 136.776 337.181C137.92 337.674 139.075 338.141 140.237 338.586L140.416 338.119C141.575 338.562 142.742 338.982 143.91 339.381L143.749 339.854C146.136 340.668 148.53 341.389 150.886 342.029L151.017 341.546C152.229 341.875 153.43 342.182 154.616 342.469L154.499 342.955C157.018 343.564 159.467 344.082 161.788 344.522L161.881 344.031C163.141 344.269 164.363 344.485 165.539 344.679L165.457 345.173C168.209 345.628 170.707 345.969 172.833 346.221L172.892 345.725C174.3 345.892 175.544 346.021 176.591 346.119L176.545 346.617C177.717 346.727 178.644 346.798 179.279 346.842C179.597 346.864 179.841 346.88 180.006 346.889C180.089 346.894 180.152 346.898 180.194 346.9L180.243 346.902L180.255 346.903L180.258 346.903L180.259 346.903L180.26 346.903L180.26 346.903L180.284 346.404M223.792 337.181C222.648 337.674 221.493 338.141 220.331 338.586L220.152 338.119C218.993 338.562 217.826 338.982 216.658 339.381L216.819 339.854C214.432 340.668 212.038 341.389 209.682 342.029L209.551 341.546C208.339 341.875 207.138 342.182 205.952 342.469L206.069 342.955C203.55 343.564 201.101 344.082 198.78 344.522L198.687 344.031C197.427 344.269 196.205 344.485 195.029 344.679L195.111 345.173C192.359 345.628 189.861 345.969 187.735 346.221L187.676 345.725C186.268 345.892 185.024 346.021 183.977 346.119L184.023 346.617C182.851 346.727 181.924 346.798 181.289 346.842C180.971 346.864 180.727 346.88 180.562 346.889C180.479 346.894 180.416 346.898 180.374 346.9L180.325 346.902L180.313 346.903L180.31 346.903L180.309 346.903L180.308 346.903L180.308 346.903L180.284 346.404M180.284 346.404L180.308 346.903L180.284 346.904L180.26 346.903L180.284 346.404ZM116.078 379.387C116.551 380.457 117.239 381.355 118.033 381.824L118.287 381.394C118.656 381.611 119.027 381.704 119.394 381.667C119.761 381.629 120.171 381.457 120.611 381.063L120.613 381.061C121.485 380.289 122.348 379.543 123.202 378.821L123.524 379.203C124.411 378.454 125.288 377.731 126.155 377.035L125.842 376.645C127.706 375.147 129.527 373.768 131.302 372.499L131.593 372.905C132.542 372.227 133.478 371.58 134.401 370.964L134.124 370.548C136.126 369.212 138.068 368.018 139.949 366.953L140.195 367.388C141.216 366.81 142.218 366.27 143.202 365.767L142.974 365.321C145.148 364.209 147.233 363.273 149.229 362.489L149.412 362.955C150.506 362.525 151.572 362.142 152.611 361.802L152.455 361.327C154.821 360.552 157.046 359.996 159.126 359.617L159.216 360.109C160.386 359.895 161.51 359.738 162.586 359.63L162.536 359.133C165.103 358.874 167.407 358.887 169.442 359.067L169.398 359.565C170.624 359.674 171.75 359.844 172.774 360.051L172.873 359.561C174.143 359.818 175.259 360.132 176.22 360.458M116.078 379.387L178.916 361.59L178.982 361.094C178.047 360.97 177.122 360.758 176.22 360.458M116.078 379.387L116.535 379.184C116.14 378.292 115.904 377.274 115.895 376.305L116.078 379.387ZM176.22 360.458C176.22 360.458 176.221 360.459 176.221 360.459L176.06 360.932L176.218 360.458C176.219 360.458 176.219 360.458 176.22 360.458ZM188.094 360.655L188.035 360.158C186.744 360.311 185.605 360.529 184.621 360.771L184.619 360.772C183.696 361.004 182.757 361.146 181.816 361.2L181.844 361.7L188.094 360.655Z" fill="white" fill-opacity="0.3" stroke="white" stroke-dasharray="7.18 3.59"/>
<path d="M326.194 346.402L326.692 346.444C326.608 347.454 326.512 348.466 326.404 349.479L325.907 349.427C325.66 351.751 325.352 354.087 324.984 356.43L325.478 356.507C325.322 357.504 325.155 358.501 324.978 359.5L324.485 359.413C324.075 361.718 323.609 364.029 323.087 366.343L323.574 366.453C323.352 367.44 323.119 368.428 322.876 369.416L322.39 369.297C321.831 371.572 321.219 373.849 320.554 376.124L321.034 376.264C320.751 377.233 320.459 378.202 320.157 379.171L319.68 379.022C318.982 381.262 318.235 383.499 317.439 385.73L317.91 385.898C317.569 386.852 317.22 387.805 316.863 388.756L316.395 388.58C315.568 390.778 314.695 392.968 313.776 395.15L314.236 395.344C313.844 396.275 313.443 397.205 313.034 398.132L312.577 397.931C311.629 400.081 310.637 402.221 309.601 404.348L310.051 404.567C309.608 405.479 309.156 406.387 308.697 407.294L308.251 407.068C307.188 409.165 306.083 411.249 304.937 413.317L305.374 413.559C304.884 414.444 304.387 415.325 303.882 416.203L303.448 415.954C302.275 417.995 301.062 420.018 299.81 422.021L300.234 422.286C299.697 423.145 299.153 424.001 298.602 424.853L298.182 424.581C296.903 426.558 295.585 428.515 294.231 430.449L294.64 430.736C294.059 431.565 293.472 432.39 292.877 433.211L292.472 432.918C291.09 434.826 289.671 436.711 288.217 438.569L288.611 438.877C287.987 439.675 287.356 440.468 286.719 441.256L286.33 440.942C284.847 442.775 283.33 444.581 281.779 446.357L282.155 446.685C281.489 447.449 280.816 448.206 280.137 448.958L279.766 448.623C278.185 450.374 276.571 452.094 274.925 453.78L275.283 454.129C274.575 454.855 273.861 455.574 273.141 456.287L272.789 455.931C271.112 457.592 269.404 459.217 267.665 460.806L268.002 461.175C267.254 461.858 266.5 462.534 265.74 463.204L265.41 462.829C263.64 464.389 261.839 465.911 260.009 467.392L260.323 467.781C259.535 468.419 258.741 469.05 257.942 469.673L257.634 469.278C255.773 470.729 253.883 472.138 251.964 473.501L252.254 473.909C251.428 474.496 250.597 475.075 249.76 475.646L249.479 475.233C247.53 476.562 245.553 477.846 243.549 479.081L243.812 479.507C242.949 480.039 242.081 480.562 241.208 481.076L240.954 480.646C238.922 481.842 236.864 482.989 234.78 484.084L235.012 484.527C234.115 484.998 233.213 485.46 232.307 485.912L232.084 485.464C229.974 486.515 227.84 487.513 225.682 488.455L225.882 488.913C224.953 489.318 224.02 489.713 223.083 490.098L222.893 489.635C220.714 490.528 218.512 491.364 216.288 492.141L216.453 492.613C215.496 492.947 214.536 493.269 213.572 493.581L213.418 493.105C211.18 493.828 208.92 494.491 206.64 495.09L206.767 495.574C205.787 495.832 204.804 496.078 203.816 496.312L203.701 495.825C201.415 496.368 199.11 496.847 196.785 497.26L196.873 497.752C195.878 497.929 194.88 498.093 193.878 498.246L193.803 497.752C192.639 497.929 191.47 498.09 190.298 498.234L190.289 498.235L190.28 498.236C189.577 498.347 188.11 498.437 186.199 498.5L186.215 498.999C185.136 499.035 183.926 499.062 182.649 499.08L182.642 498.58C179.97 498.618 177.004 498.618 174.333 498.58L174.326 499.08C173.049 499.062 171.839 499.035 170.759 498.999L170.776 498.5C168.864 498.437 167.397 498.347 166.694 498.236L166.686 498.235L166.677 498.234C165.508 498.09 164.342 497.927 163.178 497.745L163.101 498.239C162.099 498.083 161.099 497.912 160.101 497.727L160.192 497.236C157.879 496.808 155.577 496.305 153.287 495.732L153.166 496.217C152.184 495.97 151.204 495.711 150.227 495.439L150.361 494.958C148.096 494.327 145.845 493.628 143.61 492.863L143.448 493.336C142.489 493.008 141.534 492.668 140.581 492.316L140.754 491.847C138.549 491.033 136.36 490.156 134.189 489.219L133.991 489.678C133.061 489.277 132.134 488.864 131.21 488.441L131.418 487.986C129.281 487.007 127.162 485.97 125.062 484.88L124.832 485.323C123.934 484.857 123.04 484.38 122.149 483.894L122.389 483.455C120.325 482.329 118.281 481.15 116.258 479.922L115.999 480.35C115.132 479.823 114.269 479.288 113.41 478.744L113.677 478.322C111.69 477.063 109.724 475.757 107.781 474.408L107.496 474.819C106.664 474.241 105.837 473.655 105.014 473.061L105.306 472.656C103.396 471.278 101.509 469.858 99.6486 468.399L99.3402 468.793C98.5427 468.167 97.75 467.535 96.962 466.896L97.277 466.508C95.4461 465.023 93.6411 463.5 91.8637 461.943L91.5343 462.319C90.7712 461.651 90.0133 460.976 89.2605 460.296L89.5959 459.925C87.8457 458.342 86.1235 456.727 84.431 455.081L84.0824 455.44C83.355 454.732 82.633 454.02 81.9165 453.302L82.2705 452.948C80.6018 451.276 78.9635 449.575 77.3569 447.848L76.9908 448.189C76.2995 447.445 75.6141 446.698 74.9348 445.945L75.3058 445.61C73.7205 443.855 72.1679 442.074 70.6496 440.272L70.2673 440.595C69.6139 439.819 68.9669 439.04 68.3264 438.257L68.7134 437.94C67.2143 436.107 65.7506 434.254 64.3239 432.383L63.9263 432.686C63.3091 431.876 62.6987 431.063 62.0954 430.248L62.4974 429.95C61.0876 428.044 59.7162 426.121 58.3849 424.184L57.9729 424.467C57.3975 423.63 56.8295 422.79 56.2691 421.948L56.6854 421.671C55.3696 419.695 54.0959 417.705 52.8659 415.707L52.4401 415.969C51.9073 415.103 51.3827 414.236 50.8664 413.367L51.2962 413.112C50.0814 411.067 48.9128 409.015 47.7922 406.959L47.3532 407.198C46.8652 406.302 46.3863 405.406 45.9166 404.509L46.3595 404.277C45.2546 402.167 44.2008 400.053 43.2001 397.941L42.7483 398.155C42.3138 397.238 41.8894 396.321 41.475 395.404L41.9306 395.198C40.9473 393.023 40.0213 390.851 39.1546 388.685L38.6904 388.871C38.3102 387.921 37.9414 386.972 37.5841 386.024L38.0519 385.848C37.2084 383.612 36.4295 381.384 35.7175 379.171L35.2415 379.324C34.9298 378.355 34.6309 377.389 34.3449 376.425L34.8242 376.283C34.1419 373.984 33.5338 371.703 33.0025 369.444L32.5158 369.558C32.2821 368.565 32.0631 367.575 31.8592 366.591L32.3488 366.489C31.863 364.144 31.4628 361.826 31.1511 359.541L30.6557 359.609C30.5165 358.588 30.3948 357.574 30.2909 356.566L30.7883 356.515C30.542 354.127 30.3967 351.78 30.3558 349.48L29.8559 349.489C29.8376 348.464 29.8399 347.449 29.8632 346.443L30.3631 346.454C30.3904 345.273 30.4467 344.106 30.5326 342.954L30.5326 342.954C30.621 341.752 31.0568 340.718 31.6772 339.964L31.291 339.646C31.984 338.804 32.896 338.261 33.8636 338.151L33.9203 338.648C34.7939 338.548 35.7593 338.862 36.6395 339.833L36.64 339.833C37.392 340.661 38.1652 341.526 38.9592 342.426L39.3342 342.095C39.9735 342.82 40.6261 343.568 41.2919 344.336L40.914 344.663C42.3649 346.338 43.8787 348.114 45.4546 349.974L45.8361 349.651C46.4756 350.406 47.1251 351.175 47.7846 351.956L47.4024 352.279C48.077 353.078 48.7631 353.892 49.4597 354.719C50.2576 355.666 51.0693 356.629 51.8934 357.606L52.2755 357.283C52.9162 358.042 53.5652 358.81 54.2222 359.586L53.8406 359.909C55.3084 361.643 56.8167 363.416 58.3649 365.221L58.7444 364.895C59.3926 365.651 60.0477 366.412 60.7097 367.177L60.3315 367.504C61.8286 369.236 63.3611 370.992 64.9285 372.765L65.3031 372.434C65.9605 373.177 66.624 373.924 67.2936 374.673L66.9208 375.006C68.4578 376.726 70.027 378.459 71.6276 380.197L71.9955 379.859C72.6662 380.587 73.3424 381.317 74.0242 382.047L73.6587 382.388C75.2372 384.079 76.8451 385.773 78.4821 387.464L78.8413 387.117C79.5342 387.832 80.2321 388.547 80.9353 389.262L80.579 389.612C82.2059 391.265 83.8604 392.912 85.5421 394.548L85.8907 394.19C86.6058 394.886 87.3258 395.58 88.0506 396.271L87.7055 396.633C89.3885 398.238 91.0978 399.83 92.833 401.403L93.1689 401.033C93.9072 401.702 94.6501 402.369 95.3977 403.031L95.0661 403.405C96.811 404.951 98.5811 406.476 100.376 407.975L100.697 407.591C101.463 408.231 102.234 408.866 103.01 409.496L102.694 409.884C104.507 411.357 106.344 412.801 108.205 414.212L108.507 413.813C109.303 414.416 110.104 415.013 110.909 415.604L110.613 416.007C112.498 417.39 114.408 418.738 116.342 420.044L116.622 419.629C117.451 420.189 118.284 420.741 119.121 421.285L118.849 421.704C120.813 422.98 122.801 424.211 124.812 425.393L125.065 424.962C125.926 425.468 126.792 425.965 127.662 426.452L127.417 426.888C129.463 428.034 131.532 429.126 133.624 430.16L133.845 429.712C134.741 430.155 135.641 430.587 136.546 431.008L136.335 431.462C138.46 432.451 140.608 433.378 142.779 434.238L142.963 433.773C143.893 434.141 144.826 434.496 145.764 434.839L145.592 435.309C147.792 436.113 150.015 436.846 152.261 437.504L152.401 437.024C153.359 437.304 154.321 437.571 155.288 437.823L155.161 438.306C157.424 438.897 159.709 439.408 162.016 439.835L162.107 439.343C163.088 439.524 164.072 439.69 165.061 439.84L164.986 440.335C167.293 440.685 169.621 440.95 171.97 441.123L172.007 440.624C172.998 440.697 173.992 440.754 174.991 440.794L174.971 441.293C176.14 441.34 177.315 441.364 178.494 441.364C179.686 441.364 180.87 441.344 182.046 441.307L182.03 440.807C183.033 440.775 184.031 440.729 185.022 440.669L185.052 441.169C187.429 441.027 189.772 440.808 192.082 440.518L192.02 440.022C193.025 439.896 194.024 439.756 195.017 439.602L195.094 440.096C197.441 439.734 199.753 439.297 202.031 438.791L201.923 438.302C202.903 438.084 203.877 437.854 204.845 437.61L204.967 438.095C207.266 437.516 209.53 436.867 211.759 436.152L211.606 435.676C212.565 435.368 213.518 435.048 214.465 434.716L214.63 435.188C216.861 434.405 219.056 433.558 221.215 432.65L221.022 432.189C221.949 431.799 222.869 431.398 223.784 430.986L223.989 431.442C226.141 430.473 228.258 429.444 230.339 428.362L230.108 427.918C231 427.455 231.885 426.981 232.763 426.498L233.004 426.936C235.07 425.801 237.1 424.613 239.096 423.378L238.833 422.953C239.688 422.424 240.537 421.886 241.38 421.34L241.652 421.76C243.629 420.479 245.571 419.153 247.48 417.788L247.189 417.381C248.006 416.797 248.817 416.205 249.622 415.606L249.921 416.007C251.811 414.601 253.668 413.158 255.491 411.683L255.176 411.294C255.957 410.662 256.732 410.024 257.502 409.38L257.822 409.764C259.63 408.252 261.403 406.71 263.144 405.145L262.81 404.773C263.559 404.1 264.302 403.422 265.039 402.74L265.379 403.107C267.11 401.505 268.808 399.881 270.474 398.241L270.123 397.885C270.841 397.179 271.552 396.47 272.258 395.758L272.613 396.11C274.277 394.432 275.908 392.74 277.506 391.041L277.142 390.698C277.831 389.966 278.514 389.233 279.191 388.498L279.558 388.837C281.164 387.095 282.736 385.348 284.276 383.603L283.901 383.272C284.569 382.515 285.231 381.759 285.886 381.003L286.264 381.331C287.818 379.54 289.338 377.754 290.824 375.981L290.441 375.66C291.093 374.882 291.739 374.107 292.379 373.334L292.764 373.653C294.282 371.819 295.764 370.003 297.213 368.211L296.824 367.897C297.462 367.107 298.094 366.322 298.72 365.542L299.11 365.855C300.607 363.988 302.066 362.154 303.489 360.361L303.097 360.05C303.661 359.341 304.219 358.637 304.771 357.941C304.839 357.854 304.908 357.768 304.976 357.682L305.368 357.992C306.864 356.106 308.318 354.273 309.731 352.505L309.341 352.193C309.982 351.391 310.615 350.603 311.24 349.829L311.629 350.143C313.164 348.242 314.649 346.429 316.088 344.721L315.705 344.399C316.363 343.618 317.011 342.858 317.65 342.121L318.028 342.449C318.816 341.54 319.589 340.667 320.348 339.834L320.348 339.833C321.229 338.862 322.194 338.548 323.068 338.648L323.124 338.151C324.092 338.261 325.004 338.804 325.697 339.646L325.311 339.964C325.909 340.692 326.336 341.68 326.445 342.828L326.441 342.889C326.375 344.056 326.292 345.228 326.194 346.402Z" fill="white" fill-opacity="0.3" stroke="white" stroke-dasharray="7 3"/>
<path d="M321.9 59.9985C321.551 59.0367 321.191 58.0894 320.82 57.1566L320.356 57.341C319.469 55.1069 318.524 52.9564 317.52 50.8866L317.97 50.6684C317.523 49.7471 317.065 48.8416 316.594 47.9516L316.152 48.1852C315.036 46.0716 313.853 44.0467 312.605 42.1071L313.025 41.8365C312.472 40.9772 311.906 40.1344 311.327 39.308L310.917 39.5949C309.553 37.6486 308.117 35.7933 306.607 34.0252L306.988 33.7006C306.328 32.9283 305.655 32.1724 304.968 31.4327L304.602 31.773C302.998 30.0464 301.318 28.4085 299.561 26.8554L299.892 26.4808C299.133 25.8103 298.361 25.1556 297.574 24.5162L297.258 24.9042C295.445 23.4306 293.555 22.0388 291.587 20.7252L291.865 20.3094C291.025 19.7487 290.172 19.2023 289.304 18.6697L289.043 19.0958C287.065 17.8817 285.014 16.7398 282.889 15.6666L283.114 15.2203C282.214 14.7657 281.301 14.3234 280.374 13.8932L280.164 14.3467C278.066 13.3723 275.899 12.4597 273.664 11.6059L273.842 11.1388C272.903 10.7802 271.953 10.4319 270.99 10.0938L270.824 10.5655C268.641 9.79895 266.396 9.0844 264.087 8.41924L264.226 7.93879C263.262 7.66117 262.288 7.39216 261.303 7.13155L261.175 7.61492C258.937 7.02286 256.642 6.47418 254.291 5.9666L254.396 5.47786C253.417 5.26644 252.427 5.06215 251.428 4.86483L251.331 5.35536C249.059 4.90659 246.735 4.49385 244.36 4.11518L244.439 3.62142C243.447 3.46329 242.447 3.31111 241.437 3.16473L241.365 3.65955C239.072 3.32707 236.733 3.0245 234.347 2.75018L234.404 2.25345C233.401 2.13813 232.39 2.0278 231.37 1.92233L231.319 2.41968C229.013 2.18114 226.666 1.96749 224.275 1.77731L224.315 1.27888C223.31 1.19891 222.298 1.12309 221.278 1.0513L221.243 1.55006C218.921 1.38665 216.561 1.24418 214.161 1.12136L214.187 0.622013C213.187 0.570851 212.181 0.523099 211.168 0.478665L211.146 0.978185C208.821 0.876212 206.461 0.791727 204.065 0.72362L204.079 0.223822C203.065 0.195003 202.045 0.169114 201.018 0.146072L201.007 0.645946C198.679 0.593701 196.318 0.556099 193.923 0.532158L193.928 0.032183C192.927 0.0221679 191.919 0.014542 190.906 0.00923325L190.904 0.509226C189.723 0.503038 188.534 0.5 187.337 0.5H182.805V0H178.921V0.5H174.389C173.192 0.5 172.003 0.503037 170.822 0.509226L170.819 0.00923317C169.806 0.0145419 168.799 0.0221678 167.797 0.0321829L167.802 0.532158C165.408 0.556098 163.047 0.593701 160.719 0.645946L160.708 0.146072C159.681 0.169114 158.661 0.195003 157.647 0.223822L157.661 0.72362C155.264 0.791727 152.904 0.876213 150.579 0.978186L150.557 0.478666C149.544 0.5231 148.538 0.570852 147.539 0.622014L147.564 1.12136C145.165 1.24418 142.804 1.38665 140.483 1.55006L140.448 1.0513C139.428 1.12309 138.415 1.19891 137.41 1.27888L137.45 1.77731C135.06 1.9675 132.712 2.18114 130.407 2.41968L130.355 1.92234C129.336 2.0278 128.325 2.13813 127.322 2.25345L127.379 2.75018C124.993 3.0245 122.653 3.32707 120.36 3.65956L120.288 3.16473C119.279 3.31111 118.278 3.4633 117.287 3.62142L117.365 4.11518C114.99 4.49385 112.667 4.90659 110.394 5.35536L110.297 4.86483C109.298 5.06216 108.309 5.26644 107.329 5.47786L107.435 5.96661C105.083 6.47418 102.788 7.02286 100.55 7.61493L100.422 7.13156C99.4373 7.39216 98.4631 7.66117 97.4996 7.93879L97.6381 8.41924C95.3297 9.08441 93.0843 9.79895 90.9014 10.5655L90.7358 10.0938C89.7729 10.4319 88.8221 10.7802 87.8833 11.1388L88.0617 11.6059C85.8263 12.4598 83.6599 13.3723 81.5618 14.3467L81.3512 13.8932C80.4248 14.3234 79.5116 14.7657 78.6114 15.2203L78.8368 15.6666C76.7117 16.7398 74.6607 17.8817 72.683 19.0958L72.4214 18.6697C71.554 19.2023 70.7004 19.7488 69.8608 20.3094L70.1384 20.7252C68.171 22.0389 66.2808 23.4306 64.4671 24.9042L64.1518 24.5162C63.3649 25.1556 62.5922 25.8103 61.8337 26.4808L62.1649 26.8554C60.4079 28.4086 58.7278 30.0464 57.1239 31.773L56.7576 31.4327C56.0705 32.1724 55.3973 32.9283 54.7379 33.7006L55.1182 34.0253C53.6088 35.7933 52.1724 37.6486 50.8084 39.5949L50.3989 39.308C49.8197 40.1345 49.2536 40.9772 48.7004 41.8365L49.1208 42.1071C47.8721 44.0467 46.6897 46.0716 45.5732 48.1852L45.1311 47.9516C44.6609 48.8416 44.2025 49.7471 43.7556 50.6684L44.2055 50.8866C43.2017 52.9564 42.2566 55.1069 41.3699 57.341L40.9052 57.1566C40.535 58.0894 40.175 59.0367 39.8251 59.9985L40.295 60.1694C39.8955 61.2679 39.5092 62.3856 39.1361 63.5229L39.1358 63.524C38.8608 64.3557 38.7319 65.2171 38.7428 66.0729L38.2429 66.0793C38.253 66.868 38.3748 67.652 38.6042 68.4065L39.0826 68.2611C39.3317 69.0807 39.7157 69.8631 40.2282 70.5727C40.8551 71.4407 41.432 72.355 41.9613 73.3109L41.5239 73.5531C41.9593 74.3393 42.3624 75.1549 42.7347 75.9974L43.192 75.7954C44.0362 77.7061 44.722 79.7493 45.2657 81.8952L44.781 82.018C45.0015 82.8883 45.1985 83.7765 45.3731 84.6805L45.8641 84.5857C46.2599 86.6351 46.541 88.763 46.7196 90.9467L46.2213 90.9874C46.2948 91.8857 46.3508 92.7941 46.3902 93.7107L46.8897 93.6893C46.9799 95.7875 46.9835 97.928 46.9104 100.092L46.4107 100.075C46.3801 100.98 46.3361 101.889 46.2793 102.8L46.7784 102.831C46.7124 103.891 46.6292 104.955 46.5301 106.021L46.53 106.021C46.4252 107.132 46.5856 108.217 46.9648 109.209L46.4977 109.387C46.8529 110.317 47.3875 111.169 48.0679 111.896L48.4329 111.555C49.1605 112.332 50.0664 112.955 51.1042 113.356C51.8792 113.654 52.9546 113.947 54.3197 114.232L54.2174 114.722C55.1143 114.909 56.1263 115.091 57.2472 115.269L57.3253 114.775C59.2798 115.084 61.5709 115.378 64.1659 115.656L64.1125 116.154C65.1021 116.26 66.1351 116.364 67.2099 116.465L67.257 115.968C69.4124 116.172 71.7364 116.366 74.2141 116.552L74.1767 117.051C75.1309 117.122 76.1078 117.193 77.1065 117.261L77.1408 116.762C79.37 116.916 81.7082 117.063 84.1458 117.203L84.1171 117.702C85.1105 117.759 86.1203 117.815 87.1459 117.87L87.1726 117.371C89.4268 117.491 91.7575 117.606 94.1578 117.716L94.135 118.215C95.145 118.262 96.1673 118.307 97.2014 118.351L97.2227 117.851C99.4883 117.948 101.811 118.041 104.184 118.128L104.166 118.628C105.17 118.665 106.184 118.701 107.206 118.737L107.224 118.237C109.509 118.316 111.839 118.391 114.207 118.462L114.192 118.962C115.194 118.992 116.202 119.021 117.218 119.05L117.232 118.55C119.53 118.614 121.863 118.675 124.226 118.732L124.214 119.232C125.217 119.256 126.225 119.28 127.238 119.302L127.25 118.802C129.555 118.854 131.888 118.903 134.243 118.948L134.234 119.447C135.239 119.467 136.249 119.485 137.263 119.503L137.272 119.003C139.583 119.044 141.914 119.081 144.262 119.115L144.255 119.615C145.261 119.63 146.271 119.644 147.283 119.657L147.29 119.157C149.607 119.187 151.939 119.215 154.284 119.239L154.278 119.739C155.282 119.749 156.288 119.759 157.296 119.768L157.301 119.268C159.627 119.289 161.964 119.307 164.308 119.322L164.305 119.822C165.307 119.828 166.311 119.834 167.316 119.839L167.318 119.339C169.652 119.351 171.992 119.36 174.334 119.366L174.333 119.866C175.335 119.868 176.337 119.87 177.34 119.871L177.34 119.371C179.68 119.374 182.02 119.374 184.359 119.371L184.36 119.871C185.363 119.87 186.365 119.868 187.367 119.866L187.366 119.366C189.708 119.36 192.048 119.351 194.382 119.339L194.384 119.839C195.389 119.834 196.393 119.828 197.395 119.822L197.392 119.322C199.736 119.307 202.072 119.289 204.399 119.268L204.403 119.768C205.411 119.759 206.417 119.749 207.421 119.739L207.416 119.239C209.76 119.215 212.093 119.188 214.41 119.157L214.417 119.657C215.429 119.644 216.439 119.63 217.445 119.615L217.438 119.115C219.786 119.081 222.117 119.044 224.428 119.003L224.437 119.503C225.45 119.485 226.46 119.467 227.466 119.448L227.457 118.948C229.812 118.903 232.144 118.855 234.45 118.803L234.462 119.303C235.475 119.28 236.483 119.256 237.486 119.232L237.474 118.732C239.837 118.675 242.17 118.615 244.468 118.55L244.482 119.05C245.497 119.021 246.506 118.992 247.507 118.962L247.492 118.462C249.861 118.391 252.191 118.316 254.476 118.237L254.494 118.737C255.516 118.701 256.53 118.665 257.534 118.628L257.516 118.128C259.889 118.041 262.211 117.949 264.477 117.852L264.498 118.351C265.532 118.307 266.555 118.262 267.565 118.216L267.542 117.716C269.942 117.607 272.273 117.492 274.527 117.371L274.554 117.87C275.579 117.816 276.589 117.76 277.583 117.703L277.554 117.203C279.992 117.063 282.33 116.916 284.559 116.763L284.593 117.262C285.592 117.193 286.569 117.123 287.523 117.051L287.486 116.553C289.963 116.367 292.287 116.172 294.442 115.968L294.49 116.466C295.564 116.364 296.598 116.26 297.587 116.154L297.534 115.657C300.129 115.378 302.42 115.084 304.375 114.775L304.453 115.269C305.574 115.092 306.586 114.909 307.482 114.722L307.38 114.232C308.745 113.947 309.82 113.654 310.595 113.356C311.633 112.955 312.539 112.332 313.267 111.555L313.632 111.896C314.312 111.169 314.847 110.317 315.202 109.387L314.735 109.209C315.114 108.217 315.275 107.132 315.17 106.021L315.17 106.021C315.07 104.955 314.987 103.892 314.921 102.832L315.42 102.8C315.363 101.889 315.319 100.98 315.289 100.075L314.789 100.092C314.716 97.9285 314.72 95.7879 314.81 93.6894L315.31 93.7109C315.349 92.7943 315.405 91.8859 315.479 90.9875L314.981 90.9468C315.159 88.7634 315.441 86.6355 315.836 84.5859L316.327 84.6807C316.502 83.7767 316.699 82.8886 316.92 82.0182L316.435 81.8955C316.978 79.7496 317.664 77.7063 318.508 75.7956L318.965 75.9976C319.338 75.155 319.741 74.3393 320.176 73.5532L319.739 73.311C320.268 72.355 320.845 71.4407 321.472 70.5727C321.984 69.8631 322.368 69.0807 322.617 68.2611L323.096 68.4065C323.325 67.652 323.447 66.868 323.457 66.0793L322.957 66.0729C322.968 65.2171 322.839 64.3557 322.564 63.524L322.347 62.8671H322.372C322.067 61.9552 321.753 61.056 321.431 60.1694L321.9 59.9985Z" fill="white" fill-opacity="0.3" stroke="white" stroke-dasharray="7 3"/>
<g filter="url(#filter5_d_3716_609)">
<rect x="206.719" y="340.069" width="23.9424" height="23.9423" rx="11.9712" fill="white" fill-opacity="0.5" shape-rendering="crispEdges"/>
<ellipse cx="218.692" cy="352.04" rx="5.38703" ry="5.38703" fill="white"/>
</g>
<g filter="url(#filter6_d_3716_609)">
<rect x="249.461" y="128.182" width="23.9424" height="23.9423" rx="11.9712" fill="white" fill-opacity="0.5" shape-rendering="crispEdges"/>
<ellipse cx="261.434" cy="140.153" rx="5.38703" ry="5.38703" fill="white"/>
</g>
<g filter="url(#filter7_d_3716_609)">
<rect x="326.953" y="88" width="23.9424" height="23.9423" rx="11.9712" fill="white" fill-opacity="0.5" shape-rendering="crispEdges"/>
<ellipse cx="338.926" cy="99.971" rx="5.38703" ry="5.38703" fill="white"/>
</g>
<g filter="url(#filter8_d_3716_609)">
<rect x="169" y="46" width="23.9424" height="23.9423" rx="11.9712" fill="white" fill-opacity="0.5" shape-rendering="crispEdges"/>
<ellipse cx="180.973" cy="57.971" rx="5.38703" ry="5.38703" fill="white"/>
</g>
<defs>
<filter id="filter0_d_3716_609" x="30.228" y="371.941" width="47.8838" height="47.8847" filterUnits="userSpaceOnUse" color-interpolation-filters="sRGB">
<feFlood flood-opacity="0" result="BackgroundImageFix"/>
<feColorMatrix in="SourceAlpha" type="matrix" values="0 0 0 0 0 0 0 0 0 0 0 0 0 0 0 0 0 0 127 0" result="hardAlpha"/>
<feOffset dy="4.78847"/>
<feGaussianBlur stdDeviation="5.98559"/>
<feComposite in2="hardAlpha" operator="out"/>
<feColorMatrix type="matrix" values="0 0 0 0 0.847059 0 0 0 0 0.137255 0 0 0 0 0.164706 0 0 0 0.1 0"/>
<feBlend mode="normal" in2="BackgroundImageFix" result="effect1_dropShadow_3716_609"/>
<feBlend mode="normal" in="SourceGraphic" in2="effect1_dropShadow_3716_609" result="shape"/>
</filter>
<filter id="filter1_d_3716_609" x="154.216" y="537.722" width="47.8838" height="47.8847" filterUnits="userSpaceOnUse" color-interpolation-filters="sRGB">
<feFlood flood-opacity="0" result="BackgroundImageFix"/>
<feColorMatrix in="SourceAlpha" type="matrix" values="0 0 0 0 0 0 0 0 0 0 0 0 0 0 0 0 0 0 127 0" result="hardAlpha"/>
<feOffset dy="4.78847"/>
<feGaussianBlur stdDeviation="5.98559"/>
<feComposite in2="hardAlpha" operator="out"/>
<feColorMatrix type="matrix" values="0 0 0 0 0.847059 0 0 0 0 0.137255 0 0 0 0 0.164706 0 0 0 0.1 0"/>
<feBlend mode="normal" in2="BackgroundImageFix" result="effect1_dropShadow_3716_609"/>
<feBlend mode="normal" in="SourceGraphic" in2="effect1_dropShadow_3716_609" result="shape"/>
</filter>
<filter id="filter2_d_3716_609" x="14.2984" y="160.482" width="47.8838" height="47.8847" filterUnits="userSpaceOnUse" color-interpolation-filters="sRGB">
<feFlood flood-opacity="0" result="BackgroundImageFix"/>
<feColorMatrix in="SourceAlpha" type="matrix" values="0 0 0 0 0 0 0 0 0 0 0 0 0 0 0 0 0 0 127 0" result="hardAlpha"/>
<feOffset dy="4.78847"/>
<feGaussianBlur stdDeviation="5.98559"/>
<feComposite in2="hardAlpha" operator="out"/>
<feColorMatrix type="matrix" values="0 0 0 0 0.847059 0 0 0 0 0.137255 0 0 0 0 0.164706 0 0 0 0.1 0"/>
<feBlend mode="normal" in2="BackgroundImageFix" result="effect1_dropShadow_3716_609"/>
<feBlend mode="normal" in="SourceGraphic" in2="effect1_dropShadow_3716_609" result="shape"/>
</filter>
<filter id="filter3_d_3716_609" x="55.228" y="231.941" width="47.8838" height="47.8847" filterUnits="userSpaceOnUse" color-interpolation-filters="sRGB">
<feFlood flood-opacity="0" result="BackgroundImageFix"/>
<feColorMatrix in="SourceAlpha" type="matrix" values="0 0 0 0 0 0 0 0 0 0 0 0 0 0 0 0 0 0 127 0" result="hardAlpha"/>
<feOffset dy="4.78847"/>
<feGaussianBlur stdDeviation="5.98559"/>
<feComposite in2="hardAlpha" operator="out"/>
<feColorMatrix type="matrix" values="0 0 0 0 0.847059 0 0 0 0 0.137255 0 0 0 0 0.164706 0 0 0 0.1 0"/>
<feBlend mode="normal" in2="BackgroundImageFix" result="effect1_dropShadow_3716_609"/>
<feBlend mode="normal" in="SourceGraphic" in2="effect1_dropShadow_3716_609" result="shape"/>
</filter>
<filter id="filter4_d_3716_609" x="43.228" y="286.941" width="47.8838" height="47.8847" filterUnits="userSpaceOnUse" color-interpolation-filters="sRGB">
<feFlood flood-opacity="0" result="BackgroundImageFix"/>
<feColorMatrix in="SourceAlpha" type="matrix" values="0 0 0 0 0 0 0 0 0 0 0 0 0 0 0 0 0 0 127 0" result="hardAlpha"/>
<feOffset dy="4.78847"/>
<feGaussianBlur stdDeviation="5.98559"/>
<feComposite in2="hardAlpha" operator="out"/>
<feColorMatrix type="matrix" values="0 0 0 0 0.847059 0 0 0 0 0.137255 0 0 0 0 0.164706 0 0 0 0.1 0"/>
<feBlend mode="normal" in2="BackgroundImageFix" result="effect1_dropShadow_3716_609"/>
<feBlend mode="normal" in="SourceGraphic" in2="effect1_dropShadow_3716_609" result="shape"/>
</filter>
<filter id="filter5_d_3716_609" x="194.748" y="332.887" width="47.8838" height="47.8847" filterUnits="userSpaceOnUse" color-interpolation-filters="sRGB">
<feFlood flood-opacity="0" result="BackgroundImageFix"/>
<feColorMatrix in="SourceAlpha" type="matrix" values="0 0 0 0 0 0 0 0 0 0 0 0 0 0 0 0 0 0 127 0" result="hardAlpha"/>
<feOffset dy="4.78847"/>
<feGaussianBlur stdDeviation="5.98559"/>
<feComposite in2="hardAlpha" operator="out"/>
<feColorMatrix type="matrix" values="0 0 0 0 0.847059 0 0 0 0 0.137255 0 0 0 0 0.164706 0 0 0 0.1 0"/>
<feBlend mode="normal" in2="BackgroundImageFix" result="effect1_dropShadow_3716_609"/>
<feBlend mode="normal" in="SourceGraphic" in2="effect1_dropShadow_3716_609" result="shape"/>
</filter>
<filter id="filter6_d_3716_609" x="237.49" y="120.999" width="47.8838" height="47.8847" filterUnits="userSpaceOnUse" color-interpolation-filters="sRGB">
<feFlood flood-opacity="0" result="BackgroundImageFix"/>
<feColorMatrix in="SourceAlpha" type="matrix" values="0 0 0 0 0 0 0 0 0 0 0 0 0 0 0 0 0 0 127 0" result="hardAlpha"/>
<feOffset dy="4.78847"/>
<feGaussianBlur stdDeviation="5.98559"/>
<feComposite in2="hardAlpha" operator="out"/>
<feColorMatrix type="matrix" values="0 0 0 0 0.847059 0 0 0 0 0.137255 0 0 0 0 0.164706 0 0 0 0.1 0"/>
<feBlend mode="normal" in2="BackgroundImageFix" result="effect1_dropShadow_3716_609"/>
<feBlend mode="normal" in="SourceGraphic" in2="effect1_dropShadow_3716_609" result="shape"/>
</filter>
<filter id="filter7_d_3716_609" x="314.982" y="80.8173" width="47.8838" height="47.8847" filterUnits="userSpaceOnUse" color-interpolation-filters="sRGB">
<feFlood flood-opacity="0" result="BackgroundImageFix"/>
<feColorMatrix in="SourceAlpha" type="matrix" values="0 0 0 0 0 0 0 0 0 0 0 0 0 0 0 0 0 0 127 0" result="hardAlpha"/>
<feOffset dy="4.78847"/>
<feGaussianBlur stdDeviation="5.98559"/>
<feComposite in2="hardAlpha" operator="out"/>
<feColorMatrix type="matrix" values="0 0 0 0 0.847059 0 0 0 0 0.137255 0 0 0 0 0.164706 0 0 0 0.1 0"/>
<feBlend mode="normal" in2="BackgroundImageFix" result="effect1_dropShadow_3716_609"/>
<feBlend mode="normal" in="SourceGraphic" in2="effect1_dropShadow_3716_609" result="shape"/>
</filter>
<filter id="filter8_d_3716_609" x="157.029" y="38.8173" width="47.8838" height="47.8847" filterUnits="userSpaceOnUse" color-interpolation-filters="sRGB">
<feFlood flood-opacity="0" result="BackgroundImageFix"/>
<feColorMatrix in="SourceAlpha" type="matrix" values="0 0 0 0 0 0 0 0 0 0 0 0 0 0 0 0 0 0 127 0" result="hardAlpha"/>
<feOffset dy="4.78847"/>
<feGaussianBlur stdDeviation="5.98559"/>
<feComposite in2="hardAlpha" operator="out"/>
<feColorMatrix type="matrix" values="0 0 0 0 0.847059 0 0 0 0 0.137255 0 0 0 0 0.164706 0 0 0 0.1 0"/>
<feBlend mode="normal" in2="BackgroundImageFix" result="effect1_dropShadow_3716_609"/>
<feBlend mode="normal" in="SourceGraphic" in2="effect1_dropShadow_3716_609" result="shape"/>
</filter>
</defs>
</svg>
