<svg width="60" height="59" viewBox="0 0 60 59" fill="none" xmlns="http://www.w3.org/2000/svg">
<path d="M0 24.75C7.5 24.75 7.5 24 15 24C22.5 24 22.5 24.75 30 24.75C37.5 24.75 37.5 24 45 24C52.5 24 52.5 24.75 60 24.75" stroke="white" stroke-width="2" stroke-miterlimit="10"/>
<path d="M0 29.8125C7.5 29.8125 7.5 35.2875 15 35.2875C22.5 35.2875 22.5 29.8125 30 29.8125C37.5 29.8125 37.5 35.2875 45 35.2875C52.5 35.2875 52.5 29.8125 60 29.8125" stroke="white" stroke-width="2" stroke-miterlimit="10"/>
<path d="M28.5 48.6377C30.1569 48.6377 31.5 47.2945 31.5 45.6377C31.5 43.9808 30.1569 42.6377 28.5 42.6377C26.8431 42.6377 25.5 43.9808 25.5 45.6377C25.5 47.2945 26.8431 48.6377 28.5 48.6377Z" stroke="white" stroke-width="2" stroke-miterlimit="10"/>
<path d="M43.5 48.6377C45.1569 48.6377 46.5 47.2945 46.5 45.6377C46.5 43.9808 45.1569 42.6377 43.5 42.6377C41.8431 42.6377 40.5 43.9808 40.5 45.6377C40.5 47.2945 41.8431 48.6377 43.5 48.6377Z" stroke="white" stroke-width="2" stroke-miterlimit="10"/>
<path d="M36 57.8623C37.6569 57.8623 39 56.5192 39 54.8623C39 53.2055 37.6569 51.8623 36 51.8623C34.3431 51.8623 33 53.2055 33 54.8623C33 56.5192 34.3431 57.8623 36 57.8623Z" stroke="white" stroke-width="2" stroke-miterlimit="10"/>
<path d="M21 57.8623C22.6569 57.8623 24 56.5192 24 54.8623C24 53.2055 22.6569 51.8623 21 51.8623C19.3431 51.8623 18 53.2055 18 54.8623C18 56.5192 19.3431 57.8623 21 57.8623Z" stroke="white" stroke-width="2" stroke-miterlimit="10"/>
<path d="M13.5 48.6377C15.1569 48.6377 16.5 47.2945 16.5 45.6377C16.5 43.9808 15.1569 42.6377 13.5 42.6377C11.8431 42.6377 10.5 43.9808 10.5 45.6377C10.5 47.2945 11.8431 48.6377 13.5 48.6377Z" stroke="white" stroke-width="2" stroke-miterlimit="10"/>
<path d="M14.8516 2.1377V15.4127" stroke="white" stroke-width="2" stroke-miterlimit="10"/>
<path d="M9.67578 7.3127L14.8508 2.1377L20.0258 7.3127" stroke="white" stroke-width="2" stroke-miterlimit="10"/>
<path d="M45.1504 2.1377V15.4127" stroke="white" stroke-width="2" stroke-miterlimit="10"/>
<path d="M39.6758 7.6877L45.1508 2.1377L50.7008 7.6877" stroke="white" stroke-width="2" stroke-miterlimit="10"/>
</svg>
