<svg width="547" height="100" viewBox="0 0 547 100" fill="none" xmlns="http://www.w3.org/2000/svg">
<path d="M34.8921 30.7697L35.9061 30.9825L32.3417 42.1715L0.0771484 42.1715L0.0771484 41.0465H1.64428C3.40603 41.0465 4.66588 40.479 5.42384 39.3439C5.85403 38.6952 6.06913 37.1953 6.06913 34.8439L6.06913 8.23971C6.06913 5.66543 5.78233 4.05398 5.20874 3.40534C4.40981 2.51347 3.22166 2.06753 1.64428 2.06753L0.0771484 2.06753L0.0771484 0.94255L18.9442 0.94255V2.06753C16.7318 2.04726 15.1749 2.24996 14.2735 2.67563C13.3927 3.10129 12.7883 3.63845 12.4606 4.28708C12.1328 4.93572 11.9689 6.48636 11.9689 8.93902L11.9689 34.8439C11.9689 36.5263 12.1328 37.6817 12.4606 38.3101C12.7064 38.7358 13.0854 39.0499 13.5975 39.2526C14.1097 39.4553 15.7075 39.5567 18.3911 39.5567H21.4332C24.6289 39.5567 26.8721 39.3236 28.1626 38.8574C29.4532 38.3912 30.6311 37.5702 31.6964 36.3946C32.7616 35.1987 33.8269 33.3237 34.8921 30.7697Z" fill="#333333"/>
<path d="M66.0516 2.06753V0.94255L80.8011 0.94255V2.06753H79.234C77.5952 2.06753 76.3353 2.74657 75.4544 4.10465C75.0242 4.73302 74.8092 6.19245 74.8092 8.48295V25.2056C74.8092 29.3407 74.3892 32.5534 73.5493 34.8439C72.7299 37.1142 71.1013 39.0702 68.6635 40.7121C66.2463 42.3337 62.9481 43.1445 58.7691 43.1445C54.2213 43.1445 50.7695 42.3641 48.4137 40.8033C46.0579 39.2425 44.3883 37.1446 43.405 34.5095C42.7495 32.7055 42.4217 29.3204 42.4217 24.3543L42.4217 8.23971C42.4217 5.70597 42.0632 4.04384 41.3462 3.25332C40.6497 2.46279 39.5128 2.06753 37.9354 2.06753L36.3683 2.06753V0.94255L54.375 0.94255V2.06753L52.7771 2.06753C51.0563 2.06753 49.8272 2.60468 49.0897 3.67899C48.5776 4.4087 48.3215 5.92894 48.3215 8.23971L48.3215 26.209C48.3215 27.8103 48.4649 29.6447 48.7517 31.7122C49.059 33.7798 49.6019 35.3912 50.3803 36.5466C51.1587 37.702 52.2752 38.6547 53.7297 39.4047C55.2046 40.1547 57.0073 40.5296 59.1378 40.5296C61.8624 40.5296 64.3001 39.9418 66.4511 38.7662C68.6021 37.5905 70.0668 36.0905 70.8452 34.2663C71.6442 32.4217 72.0436 29.3103 72.0436 24.932V8.23971C72.0436 5.66543 71.7568 4.05398 71.1832 3.40534C70.3843 2.51347 69.1962 2.06753 67.6188 2.06753H66.0516Z" fill="#333333"/>
<path d="M105.938 19.3375L114.88 32.5332C117.359 36.1818 119.192 38.4925 120.38 39.4655C121.589 40.4182 123.115 40.9452 124.959 41.0465V42.1715L107.075 42.1715V41.0465C108.263 41.0263 109.144 40.9046 109.718 40.6817C110.148 40.4992 110.496 40.2256 110.762 39.8607C111.049 39.4756 111.192 39.0905 111.192 38.7054C111.192 38.2392 111.1 37.7729 110.916 37.3067C110.773 36.9621 110.209 36.0703 109.226 34.6311L102.158 24.0502L93.4316 35.1176C92.5098 36.2932 91.9567 37.0838 91.7723 37.4892C91.5879 37.8743 91.4958 38.2797 91.4958 38.7054C91.4958 39.354 91.7723 39.8911 92.3254 40.3168C92.8785 40.7425 93.9335 40.9857 95.4904 41.0465V42.1715H80.7102V41.0465C81.7549 40.9452 82.6563 40.7323 83.4143 40.408C84.6843 39.881 85.893 39.1716 87.0402 38.2797C88.1874 37.3878 89.4984 36.0196 90.9734 34.175L100.806 21.8915L92.602 10.0032C90.369 6.78028 88.4742 4.67221 86.9173 3.67899C85.3604 2.66549 83.5679 2.12834 81.5398 2.06753V0.94255L100.806 0.94255V2.06753C99.1675 2.12834 98.0408 2.39185 97.4263 2.85805C96.8322 3.32426 96.5352 3.84114 96.5352 4.4087C96.5352 5.15869 97.0268 6.25326 98.0101 7.69242L104.402 17.1483L111.807 7.87485C112.667 6.78028 113.19 6.03029 113.374 5.62489C113.579 5.2195 113.681 4.80396 113.681 4.3783C113.681 3.95263 113.559 3.57764 113.313 3.25332C113.005 2.82765 112.616 2.53374 112.145 2.37158C111.674 2.18915 110.701 2.0878 109.226 2.06753V0.94255L124.006 0.94255V2.06753C122.838 2.12834 121.886 2.31077 121.148 2.61482C120.042 3.08102 119.028 3.70939 118.106 4.49992C117.184 5.29044 115.884 6.74987 114.204 8.87821L105.938 19.3375Z" fill="#333333"/>
<path d="M137.62 3.19251V19.4895L146.777 19.4895C149.153 19.4895 150.741 19.1348 151.54 18.4253C152.605 17.4929 153.199 15.8511 153.322 13.4997H154.459V27.8508H153.322C153.035 25.8441 152.748 24.557 152.462 23.9894C152.093 23.28 151.488 22.7225 150.649 22.3172C149.809 21.9118 148.518 21.7091 146.777 21.7091L137.62 21.7091V35.3C137.62 37.1243 137.702 38.2392 137.866 38.6445C138.03 39.0297 138.316 39.3439 138.726 39.5871C139.136 39.8101 139.914 39.9216 141.061 39.9216H148.129C150.485 39.9216 152.195 39.7594 153.26 39.4351C154.326 39.1108 155.35 38.4723 156.333 37.5196C157.603 36.2628 158.904 34.3676 160.236 31.8339H161.465L157.87 42.1715L125.759 42.1715V41.0465H127.234C128.217 41.0465 129.149 40.8134 130.03 40.3472C130.686 40.0229 131.126 39.5364 131.351 38.8878C131.597 38.2392 131.72 36.9115 131.72 34.9048V8.11809C131.72 5.50328 131.454 3.89182 130.921 3.28372C130.184 2.47293 128.955 2.06753 127.234 2.06753H125.759V0.94255L157.87 0.94255L158.331 9.97279H157.132C156.702 7.80391 156.221 6.31407 155.688 5.50328C155.176 4.69248 154.408 4.07425 153.383 3.64858C152.564 3.34453 151.12 3.19251 149.051 3.19251L137.62 3.19251Z" fill="#333333"/>
<path d="M174.556 3.19251V19.3983H182.146C183.887 19.3983 185.158 19.0233 185.956 18.2733C186.776 17.5031 187.319 15.9929 187.585 13.743H188.722V27.6988L187.585 27.6988C187.565 26.0975 187.349 24.9218 186.94 24.1718C186.551 23.4219 185.997 22.8644 185.28 22.4996C184.584 22.1145 183.539 21.9219 182.146 21.9219H174.556V34.8743C174.556 36.9621 174.689 38.3405 174.956 39.0094C175.161 39.5162 175.591 39.952 176.246 40.3168C177.148 40.8033 178.09 41.0465 179.073 41.0465H180.579V42.1715H162.695V41.0465H164.17C165.891 41.0465 167.141 40.5499 167.919 39.5567C168.411 38.9081 168.656 37.3473 168.656 34.8743V8.23971C168.656 6.15191 168.523 4.77356 168.257 4.10465C168.052 3.59791 167.632 3.1621 166.997 2.79725C166.116 2.31077 165.174 2.06753 164.17 2.06753H162.695V0.94255L193.7 0.94255L194.099 10.0032L193.024 10.0032C192.491 8.07755 191.866 6.66879 191.149 5.77692C190.453 4.86477 189.582 4.206 188.538 3.8006C187.513 3.39521 185.915 3.19251 183.744 3.19251L174.556 3.19251Z" fill="#333333"/>
<path d="M219.574 28.3677L203.442 28.3677L200.615 34.8743C199.918 36.4757 199.57 37.6716 199.57 38.4621C199.57 39.0905 199.867 39.6479 200.461 40.1344C201.076 40.6006 202.387 40.9046 204.395 41.0465V42.1715L191.274 42.1715V41.0465C193.015 40.7425 194.142 40.3472 194.654 39.8607C195.698 38.8878 196.856 36.9115 198.126 33.9318L212.783 0L213.859 0L228.362 34.2967C229.53 37.0534 230.585 38.8472 231.527 39.6783C232.49 40.4891 233.822 40.9452 235.522 41.0465V42.1715H219.083V41.0465C220.742 40.9655 221.858 40.6918 222.432 40.2256C223.026 39.7594 223.323 39.1918 223.323 38.5229C223.323 37.6311 222.913 36.2223 222.094 34.2967L219.574 28.3677ZM218.714 26.1178L211.646 9.4559L204.395 26.1178L218.714 26.1178Z" fill="#333333"/>
<path d="M272.889 0L273.841 14.0166H272.889C271.619 9.82076 269.806 6.80055 267.45 4.95599C265.094 3.11143 262.267 2.18915 258.969 2.18915C256.203 2.18915 253.704 2.88846 251.471 4.28708C249.238 5.66543 247.477 7.87485 246.186 10.9153C244.916 13.9558 244.281 17.7362 244.281 22.2563C244.281 25.986 244.885 29.219 246.094 31.9555C247.302 34.6919 249.115 36.7899 251.533 38.2493C253.97 39.7087 256.746 40.4384 259.86 40.4384C262.564 40.4384 264.951 39.8709 267.02 38.7358C269.089 37.5804 271.363 35.3 273.841 31.8947L274.794 32.5028C272.704 36.1716 270.267 38.8574 267.481 40.5601C264.695 42.2627 261.386 43.1141 257.555 43.1141C250.652 43.1141 245.305 40.5803 241.515 35.5128C238.688 31.7426 237.275 27.3035 237.275 22.1955C237.275 18.0807 238.207 14.3004 240.071 10.8545C241.935 7.40865 244.496 4.74315 247.753 2.85805C251.031 0.952685 254.605 0 258.477 0C261.489 0 264.459 0.729716 267.388 2.18915C268.249 2.63509 268.863 2.85805 269.232 2.85805C269.785 2.85805 270.267 2.66549 270.676 2.28036C271.209 1.73308 271.588 0.972955 271.813 0L272.889 0Z" fill="#333333"/>
<path d="M288.869 3.19251V19.4895H298.026C300.402 19.4895 301.989 19.1348 302.788 18.4253C303.854 17.4929 304.448 15.8511 304.571 13.4997H305.708V27.8508H304.571C304.284 25.8441 303.997 24.557 303.71 23.9894C303.341 23.28 302.737 22.7225 301.897 22.3172C301.057 21.9118 299.767 21.7091 298.026 21.7091H288.869V35.3C288.869 37.1243 288.951 38.2392 289.114 38.6445C289.278 39.0297 289.565 39.3439 289.975 39.5871C290.384 39.8101 291.163 39.9216 292.31 39.9216H299.378C301.733 39.9216 303.444 39.7594 304.509 39.4351C305.574 39.1108 306.599 38.4723 307.582 37.5196C308.852 36.2628 310.153 34.3676 311.484 31.8339H312.714L309.118 42.1715L277.008 42.1715V41.0465H278.482C279.466 41.0465 280.398 40.8134 281.279 40.3472C281.934 40.0229 282.375 39.5364 282.6 38.8878C282.846 38.2392 282.969 36.9115 282.969 34.9048V8.11809C282.969 5.50328 282.702 3.89182 282.17 3.28372C281.432 2.47293 280.203 2.06753 278.482 2.06753L277.008 2.06753V0.94255L309.118 0.94255L309.579 9.97279H308.381C307.951 7.80391 307.469 6.31407 306.937 5.50328C306.425 4.69248 305.656 4.07425 304.632 3.64858C303.813 3.34453 302.368 3.19251 300.299 3.19251L288.869 3.19251Z" fill="#333333"/>
<path d="M373.679 68.14C373.927 68.2013 374.02 68.4161 373.958 68.7843C373.958 69.0912 373.865 69.2446 373.679 69.2446H361.957C359.538 69.2446 355.693 67.2808 350.421 63.3534C345.522 68.0172 339.382 70.3492 332.002 70.3492C328.032 70.3492 324.683 69.7355 321.955 68.5082C319.288 67.2195 317.272 65.5626 315.908 63.5375C314.605 61.451 313.954 59.2111 313.954 56.8178C313.954 53.4427 315.039 50.4971 317.21 47.981C319.381 45.465 322.544 42.7342 326.699 39.7886C325.645 38.3158 324.714 36.7816 323.908 35.1861C322.11 31.4427 321.21 28.0982 321.21 25.1526C321.21 22.3298 321.862 19.7524 323.164 17.4204C324.528 15.0885 326.42 13.2475 328.839 11.8974C331.319 10.486 334.172 9.78027 337.397 9.78027C340.684 9.78027 343.413 10.5167 345.584 11.9895C347.755 13.4623 348.84 15.7635 348.84 18.8932C348.84 21.2252 348.22 23.3423 346.979 25.2447C345.801 27.147 344.343 28.8039 342.607 30.2154C340.87 31.6268 338.452 33.3758 335.351 35.4622L333.49 36.6589C337.831 43.4092 344.343 50.1289 353.026 56.8178C354.639 53.6268 355.445 50.0061 355.445 45.9559C355.445 43.3172 354.949 41.3841 353.956 40.1568C353.026 38.8681 351.228 38.2237 348.561 38.2237C348.375 38.2237 348.251 38.0396 348.189 37.6714C348.189 37.3032 348.313 37.1191 348.561 37.1191L368.841 37.0271C369.089 37.0271 369.213 37.2112 369.213 37.5794C369.213 37.9476 369.089 38.1317 368.841 38.1317C366.794 38.1317 365.275 38.3465 364.283 38.776C363.29 39.1442 362.577 39.7272 362.143 40.525C361.709 41.2614 361.244 42.458 360.748 44.1149C359.011 49.9448 356.995 54.6086 354.701 58.1065C358.546 60.868 362.112 63.1079 365.399 64.8262C368.686 66.5444 371.446 67.649 373.679 68.14ZM327.629 19.9978C327.629 24.7844 329.304 29.9085 332.653 35.3702C335.568 33.0382 337.831 30.7063 339.444 28.3744C341.118 26.0424 341.956 23.4344 341.956 20.5501C341.956 17.85 341.243 15.7328 339.816 14.1987C338.39 12.6645 336.529 11.8974 334.234 11.8974C329.831 11.8974 327.629 14.5976 327.629 19.9978ZM337.118 67.0354C341.832 67.0354 345.832 65.4705 349.119 62.3408L346.7 60.4078C343.103 57.6463 339.599 54.5779 336.188 51.2028C332.839 47.7662 329.955 44.3604 327.536 40.9852C325.49 42.7649 323.877 44.6365 322.699 46.6003C321.582 48.5026 321.024 50.6198 321.024 52.9517C321.024 55.4678 321.706 57.7997 323.071 59.9475C324.435 62.0954 326.327 63.8136 328.746 65.1023C331.164 66.391 333.955 67.0354 337.118 67.0354Z" fill="#E6252D"/>
<path d="M89.6089 87.6252L90.6229 87.838L87.0585 99.027H54.7939V97.902H56.3611C58.1228 97.902 59.3827 97.3344 60.1406 96.1993C60.5708 95.5507 60.7859 94.0507 60.7859 91.6994L60.7859 65.0952C60.7859 62.5209 60.4991 60.9094 59.9255 60.2608C59.1266 59.3689 57.9385 58.923 56.3611 58.923H54.7939V57.798H73.661V58.923C71.4486 58.9027 69.8917 59.1054 68.9903 59.5311C68.1095 59.9568 67.5051 60.4939 67.1774 61.1426C66.8496 61.7912 66.6857 63.3418 66.6857 65.7945V91.6994C66.6857 93.3818 66.8496 94.5372 67.1774 95.1656C67.4232 95.5912 67.8022 95.9054 68.3143 96.1081C68.8265 96.3108 70.4243 96.4122 73.1079 96.4122H76.15C79.3457 96.4122 81.5889 96.1791 82.8794 95.7128C84.17 95.2466 85.3479 94.4257 86.4132 93.2501C87.4784 92.0541 88.5437 90.1792 89.6089 87.6252Z" fill="#333333"/>
<path d="M120.768 58.923V57.798H135.518V58.923H133.951C132.312 58.923 131.052 59.602 130.171 60.9601C129.741 61.5885 129.526 63.0479 129.526 65.3384V82.0611C129.526 86.1961 129.106 89.4089 128.266 91.6994C127.447 93.9696 125.818 95.9257 123.38 97.5675C120.963 99.1891 117.665 99.9999 113.486 99.9999C108.938 99.9999 105.486 99.2195 103.131 97.6588C100.775 96.098 99.1051 94 98.1218 91.365C97.4663 89.5609 97.1385 86.1759 97.1385 81.2097V65.0952C97.1385 62.5614 96.78 60.8993 96.063 60.1088C95.3665 59.3183 94.2296 58.923 92.6522 58.923H91.0851V57.798H109.092V58.923H107.494C105.773 58.923 104.544 59.4601 103.807 60.5345C103.294 61.2642 103.038 62.7844 103.038 65.0952V83.0644C103.038 84.6658 103.182 86.5002 103.469 88.5677C103.776 90.6352 104.319 92.2467 105.097 93.4021C105.876 94.5575 106.992 95.5102 108.446 96.2601C109.921 97.0101 111.724 97.3851 113.855 97.3851C116.579 97.3851 119.017 96.7973 121.168 95.6216C123.319 94.446 124.784 92.946 125.562 91.1217C126.361 89.2772 126.76 86.1657 126.76 81.7874V65.0952C126.76 62.5209 126.474 60.9094 125.9 60.2608C125.101 59.3689 123.913 58.923 122.336 58.923H120.768Z" fill="#333333"/>
<path d="M160.655 76.1929L169.597 89.3886C172.075 93.0372 173.909 95.348 175.097 96.3209C176.306 97.2736 177.832 97.8006 179.675 97.902V99.027L161.792 99.027V97.902C162.98 97.8817 163.861 97.7601 164.434 97.5371C164.865 97.3547 165.213 97.0811 165.479 96.7162C165.766 96.3311 165.909 95.946 165.909 95.5608C165.909 95.0946 165.817 94.6284 165.633 94.1622C165.489 93.8176 164.926 92.9257 163.943 91.4866L156.875 80.9057L148.148 91.9731C147.227 93.1487 146.673 93.9392 146.489 94.3446C146.305 94.7298 146.213 95.1352 146.213 95.5608C146.213 96.2095 146.489 96.7466 147.042 97.1723C147.595 97.5979 148.65 97.8412 150.207 97.902V99.027H135.427V97.902C136.472 97.8006 137.373 97.5878 138.131 97.2635C139.401 96.7365 140.61 96.027 141.757 95.1352C142.904 94.2433 144.215 92.8751 145.69 91.0305L155.523 78.747L147.319 66.8587C145.086 63.6357 143.191 61.5277 141.634 60.5345C140.077 59.521 138.285 58.9838 136.257 58.923V57.798H155.523V58.923C153.884 58.9838 152.758 59.2473 152.143 59.7135C151.549 60.1797 151.252 60.6966 151.252 61.2642C151.252 62.0142 151.744 63.1087 152.727 64.5479L159.118 74.0038L166.524 64.7303C167.384 63.6357 167.907 62.8858 168.091 62.4804C168.296 62.075 168.398 61.6594 168.398 61.2338C168.398 60.8081 168.275 60.4331 168.03 60.1088C167.722 59.6831 167.333 59.3892 166.862 59.227C166.391 59.0446 165.418 58.9433 163.943 58.923V57.798L178.723 57.798V58.923C177.555 58.9838 176.603 59.1662 175.865 59.4703C174.759 59.9365 173.745 60.5649 172.823 61.3554C171.901 62.1459 170.6 63.6053 168.921 65.7337L160.655 76.1929Z" fill="#333333"/>
<path d="M192.337 60.048V76.345H201.494C203.87 76.345 205.458 75.9902 206.257 75.2808C207.322 74.3484 207.916 72.7065 208.039 70.3552H209.176V84.7063H208.039C207.752 82.6996 207.465 81.4124 207.178 80.8449C206.81 80.1354 206.205 79.578 205.365 79.1726C204.526 78.7672 203.235 78.5645 201.494 78.5645H192.337V92.1555C192.337 93.9798 192.419 95.0946 192.583 95.5C192.746 95.8851 193.033 96.1993 193.443 96.4426C193.853 96.6655 194.631 96.777 195.778 96.777H202.846C205.202 96.777 206.912 96.6149 207.977 96.2905C209.043 95.9662 210.067 95.3277 211.05 94.375C212.32 93.1183 213.621 91.2231 214.953 88.6893H216.182L212.587 99.027H180.476V97.902H181.951C182.934 97.902 183.866 97.6689 184.747 97.2027C185.402 96.8784 185.843 96.3919 186.068 95.7433C186.314 95.0946 186.437 93.7669 186.437 91.7602V64.9736C186.437 62.3587 186.171 60.7473 185.638 60.1392C184.9 59.3284 183.671 58.923 181.951 58.923H180.476V57.798L212.587 57.798L213.047 66.8283H211.849C211.419 64.6594 210.937 63.1695 210.405 62.3587C209.893 61.5479 209.124 60.9297 208.1 60.504C207.281 60.2 205.837 60.048 203.768 60.048H192.337Z" fill="#333333"/>
<path d="M245.467 77.9868C248.355 78.5949 250.516 79.5679 251.95 80.9057C253.938 82.7705 254.931 85.0509 254.931 87.7468C254.931 89.794 254.276 91.7602 252.965 93.6453C251.653 95.5102 249.851 96.8784 247.556 97.75C245.282 98.6013 241.8 99.027 237.109 99.027H217.443V97.902H219.01C220.751 97.902 222.001 97.3547 222.759 96.2601C223.23 95.5507 223.465 94.0406 223.465 91.7298V65.0952C223.465 62.5412 223.168 60.9297 222.574 60.2608C221.775 59.3689 220.587 58.923 219.01 58.923H217.443V57.798H235.449C238.809 57.798 241.503 58.0413 243.531 58.5277C246.604 59.2575 248.949 60.5547 250.568 62.4196C252.186 64.2641 252.995 66.3925 252.995 68.8046C252.995 70.8721 252.36 72.7268 251.09 74.3687C249.82 75.9902 247.946 77.1963 245.467 77.9868ZM229.365 76.345C230.123 76.4869 230.984 76.5983 231.946 76.6794C232.93 76.7402 234.005 76.7706 235.173 76.7706C238.164 76.7706 240.407 76.4565 241.902 75.8281C243.418 75.1794 244.576 74.1964 245.375 72.8788C246.174 71.5613 246.573 70.1221 246.573 68.5613C246.573 66.1492 245.58 64.0918 243.592 62.3891C241.605 60.6865 238.707 59.8351 234.896 59.8351C232.848 59.8351 231.004 60.0581 229.365 60.504V76.345ZM229.365 96.0473C231.742 96.5946 234.087 96.8682 236.402 96.8682C240.11 96.8682 242.937 96.0473 244.883 94.4054C246.829 92.7433 247.802 90.6961 247.802 88.2637C247.802 86.6623 247.362 85.1218 246.481 83.6421C245.6 82.1624 244.166 80.9969 242.179 80.1456C240.192 79.2942 237.734 78.8686 234.804 78.8686C233.534 78.8686 232.448 78.8888 231.547 78.9294C230.646 78.9699 229.918 79.0409 229.365 79.1422V96.0473Z" fill="#333333"/>
<path d="M280.129 56.8555C285.538 56.8555 290.218 58.8926 294.172 62.9668C298.146 67.0208 300.133 72.0883 300.133 78.1693C300.133 84.4327 298.136 89.6319 294.141 93.7669C290.147 97.902 285.312 99.9695 279.638 99.9695C273.902 99.9695 269.077 97.9527 265.165 93.919C261.273 89.8853 259.326 84.6658 259.326 78.2605C259.326 71.7133 261.58 66.3722 266.087 62.2371C269.999 58.6494 274.68 56.8555 280.129 56.8555ZM279.546 59.075C275.817 59.075 272.826 60.4432 270.573 63.1797C267.766 66.585 266.363 71.5714 266.363 78.1389C266.363 84.8685 267.818 90.0474 270.727 93.6757C272.959 96.4324 275.909 97.8108 279.576 97.8108C283.489 97.8108 286.715 96.3007 289.256 93.2805C291.816 90.2603 293.097 85.4968 293.097 78.9902C293.097 71.9363 291.693 66.6762 288.887 63.2101C286.633 60.4534 283.52 59.075 279.546 59.075Z" fill="#333333"/>
<path d="M302.409 99.027V97.902H303.976C305.737 97.902 306.987 97.3446 307.724 96.2297C308.175 95.5608 308.4 94.0609 308.4 91.7298V65.0952C308.4 62.5209 308.114 60.9094 307.54 60.2608C306.741 59.3689 305.553 58.923 303.976 58.923H302.409V57.798H319.37C325.598 57.798 330.33 58.4973 333.567 59.896C336.824 61.2946 339.436 63.6256 341.402 66.8891C343.39 70.1525 344.383 73.9227 344.383 78.1997C344.383 83.936 342.621 88.7299 339.098 92.5812C335.144 96.8784 329.121 99.027 321.03 99.027H302.409ZM314.3 96.0473C316.902 96.6149 319.084 96.8986 320.845 96.8986C325.598 96.8986 329.541 95.2466 332.676 91.9426C335.81 88.6387 337.377 84.159 337.377 78.5037C337.377 72.8079 335.81 68.3181 332.676 65.0344C329.541 61.7506 325.516 60.1088 320.6 60.1088C318.756 60.1088 316.656 60.4027 314.3 60.9905V96.0473Z" fill="#333333"/>
<path d="M375.543 57.798L390.077 57.798V58.923H389.278C388.745 58.923 387.967 59.1561 386.943 59.6223C385.919 60.0885 384.986 60.7574 384.147 61.629C383.307 62.5006 382.272 63.9195 381.043 65.8857L370.995 81.5442V91.8818C370.995 94.4156 371.282 95.9966 371.855 96.625C372.634 97.4763 373.863 97.902 375.543 97.902H376.895V99.027H359.195V97.902H360.67C362.432 97.902 363.682 97.375 364.419 96.3209C364.87 95.6723 365.095 94.1926 365.095 91.8818V82.1219L353.664 64.8519C352.312 62.825 351.39 61.5581 350.899 61.0513C350.428 60.5446 349.434 59.9365 347.918 59.227C347.508 59.0243 346.914 58.923 346.136 58.923V57.798H363.958V58.923H363.036C362.073 58.923 361.182 59.146 360.363 59.5919C359.564 60.0378 359.165 60.7067 359.165 61.5986C359.165 62.3283 359.789 63.6459 361.039 65.5513L369.735 78.8382L377.909 66.1289C379.138 64.2236 379.752 62.8047 379.752 61.8723C379.752 61.3047 379.599 60.798 379.291 60.352C379.005 59.9061 378.585 59.5615 378.032 59.3183C377.479 59.0548 376.649 58.923 375.543 58.923V57.798Z" fill="#333333"/>
<line x1="430.577" y1="2.18557e-08" x2="430.577" y2="100" stroke="black" stroke-opacity="0.1"/>
<g clip-path="url(#clip0_319_1521)">
<path d="M502.776 54.4327H491.513V42.9423H502.776V31.7147H514.302V42.9423H525.564V54.4327H514.302V65.3846H547L508.539 0L470.077 65.3846H502.776V54.4327Z" fill="#FF2020"/>
<path d="M481.978 83.4395C482.007 84.917 481.295 86.3145 480.08 87.1702C478.878 88.0484 477.417 88.5004 475.927 88.4619C474.878 88.3978 473.843 88.2087 472.843 87.9042C472.503 87.7952 472.154 87.7119 471.802 87.6542C471.561 87.6542 471.337 87.7792 471.209 87.9811H470.702L470.077 83.5164H470.641C470.901 84.6606 471.523 85.6927 472.414 86.4651C473.314 87.2375 474.471 87.6574 475.664 87.6414C476.68 87.6702 477.677 87.3593 478.497 86.7632C479.314 86.1542 479.785 85.1927 479.763 84.1798C479.657 82.9939 479.026 81.9138 478.042 81.2311C477.106 80.5132 476.132 79.8433 475.122 79.2279C473.971 78.558 472.894 77.7792 471.901 76.8946C470.901 76.0356 470.308 74.8016 470.266 73.4939C470.237 71.8369 471.279 70.3465 472.856 69.792C473.702 69.4106 474.622 69.2183 475.552 69.2343C476.571 69.2375 477.584 69.4106 478.548 69.7439C478.878 69.8721 479.228 69.9491 479.58 69.9747C479.802 69.9747 480.007 69.8593 480.125 69.6766H480.603L481.109 73.417H480.564C480.196 72.433 479.552 71.5741 478.705 70.9395C477.869 70.3016 476.84 69.9619 475.785 69.9747C474.965 69.9395 474.157 70.1798 473.487 70.6478C472.834 71.1382 472.468 71.917 472.513 72.7311C472.603 73.8978 473.221 74.9619 474.196 75.6221C475.135 76.3145 476.109 76.9555 477.116 77.5484C478.292 78.2311 479.391 79.0356 480.394 79.9491C481.398 80.8625 481.984 82.1382 482.019 83.4875" fill="#333333"/>
<path d="M499.674 71.0954C499.767 70.8935 499.818 70.6756 499.831 70.4544C499.831 70.0185 499.529 69.8038 498.936 69.8038H497.69C497.058 69.8038 496.715 70.0025 496.715 70.3871C496.722 70.573 496.763 70.7525 496.84 70.9191L498.318 74.4063L499.67 71.0986L499.674 71.0954ZM512.247 69.8006C511.376 69.6788 510.504 70.0377 509.962 70.7397C509.619 71.323 509.337 71.9416 509.126 72.5858L503.151 88.4576H501.731L497.84 79.1435L494.103 88.4576H492.645L486.513 72.4159C486.267 71.6371 485.84 70.9288 485.267 70.3518C484.584 69.9288 483.786 69.7333 482.991 69.7974H482.824V69.2236H490.513V69.7974H490.017C488.936 69.7974 488.392 70.1435 488.392 70.855C488.404 71.1435 488.472 71.4288 488.587 71.6948L493.988 85.5217L497.199 77.4832L494.786 71.557C494.581 70.9448 494.158 70.4288 493.6 70.1147C493.001 69.8935 492.366 69.8006 491.731 69.839V69.2268H503.866V69.8006C503.267 69.7685 502.667 69.8615 502.103 70.0762C501.555 70.3422 501.132 70.8166 500.927 71.3999L498.981 76.1018L502.872 85.4961L508.126 71.5185C508.273 71.2108 508.324 70.8679 508.283 70.5313C508.167 70.0858 507.417 69.8486 506.055 69.8102V69.2268H512.206L512.254 69.8006H512.247Z" fill="#333333"/>
<path d="M520.615 88.4612H513.365V87.8747C514.032 87.9356 514.692 87.7048 515.186 87.2369C515.522 86.6215 515.667 85.9132 515.596 85.2112V72.0382C515.663 71.4067 515.474 70.7785 515.08 70.2946C514.57 69.9548 513.971 69.7882 513.368 69.817V69.2305H520.59V69.817C519.343 69.817 518.586 70.1311 518.314 70.7593C518.122 71.2529 518.035 71.7882 518.061 72.3202V85.4196C518.061 86.6471 518.381 87.3843 519.035 87.6471C519.538 87.8138 520.064 87.8875 520.593 87.8715L520.622 88.458L520.615 88.4612Z" fill="#333333"/>
<path d="M533.647 83.42C533.667 84.9071 532.936 86.3046 531.702 87.1507C530.503 88.0289 529.045 88.4809 527.558 88.4424C526.522 88.3783 525.5 88.1892 524.513 87.8847C524.17 87.7789 523.817 87.6956 523.461 87.6347C523.218 87.6347 522.993 87.7565 522.868 87.9616H522.372L521.74 83.5001H522.314C522.574 84.6443 523.195 85.6764 524.086 86.4488C524.984 87.2244 526.138 87.6443 527.327 87.6251C528.343 87.6539 529.34 87.3462 530.16 86.7469C530.981 86.1411 531.455 85.1764 531.426 84.1635C531.327 82.9776 530.699 81.8975 529.715 81.2148C528.763 80.4937 527.772 79.8238 526.747 79.2116C525.609 78.5418 524.538 77.7661 523.545 76.8975C522.545 76.0385 521.952 74.8046 521.91 73.4969C521.884 71.8366 522.936 70.343 524.519 69.795C525.365 69.4103 526.285 69.2212 527.215 69.2373C528.234 69.2405 529.247 69.4135 530.211 69.7469C530.542 69.8751 530.891 69.952 531.243 69.9777C531.461 69.9777 531.667 69.8655 531.779 69.6796H532.256L532.772 73.42H532.256C531.881 72.4296 531.221 71.5674 530.359 70.9424C529.522 70.3078 528.493 69.968 527.439 69.9777C526.615 69.9456 525.804 70.1828 525.131 70.6507C524.481 71.1443 524.118 71.9232 524.157 72.7341C524.247 73.9007 524.865 74.9648 525.84 75.6251C526.779 76.3174 527.753 76.9584 528.759 77.5514C529.933 78.2341 531.029 79.0385 532.029 79.952C533.032 80.8655 533.618 82.1411 533.654 83.4905" fill="#333333"/>
<path d="M546.952 83.4392C546.977 84.9264 546.247 86.3302 545.006 87.17C543.808 88.0482 542.349 88.5001 540.862 88.4616C539.846 88.3911 538.84 88.202 537.865 87.9039C537.525 87.7982 537.176 87.7148 536.824 87.6539C536.58 87.6539 536.356 87.7757 536.231 87.9809H535.715L535.093 83.5193H535.666C535.907 84.6603 536.516 85.6956 537.397 86.468C538.291 87.2469 539.449 87.6636 540.638 87.6443C541.654 87.6732 542.65 87.3655 543.471 86.7661C544.291 86.1603 544.766 85.1956 544.737 84.1828C544.631 82.9969 544.006 81.92 543.025 81.2341C542.09 80.5161 541.115 79.8462 540.106 79.2309C538.961 78.5546 537.881 77.7725 536.884 76.8975C535.888 76.0353 535.298 74.8046 535.25 73.4969C535.221 71.8366 536.269 70.3462 537.849 69.795C538.695 69.4103 539.615 69.2212 540.545 69.2373C541.564 69.2405 542.577 69.4135 543.541 69.7469C543.852 69.8687 544.179 69.9456 544.516 69.9777C544.737 69.9777 544.942 69.8623 545.061 69.6796H545.538L546.045 73.42H545.538C545.176 72.4456 544.541 71.593 543.708 70.9616C542.872 70.3238 541.843 69.9841 540.788 69.9969C539.965 69.9648 539.154 70.202 538.481 70.67C537.827 71.1603 537.461 71.9392 537.506 72.7533C537.596 73.92 538.215 74.9841 539.189 75.6443C540.128 76.3366 541.102 76.9809 542.109 77.5706C543.282 78.2565 544.381 79.061 545.388 79.9712C546.388 80.8847 546.971 82.1603 547.003 83.5097" fill="#333333"/>
<path d="M477.427 96.8752C476.904 96.8752 476.648 97.1605 476.648 97.6252V99.2502C475.725 99.7534 474.696 100.01 473.658 100C473.007 100.01 472.366 99.8432 471.795 99.5194C471.222 99.1733 470.763 98.6508 470.481 98.0226C470.218 97.481 470.081 96.8848 470.081 96.2759C470.065 95.2919 470.404 94.34 471.029 93.6092C471.767 92.7278 472.847 92.2502 473.965 92.3143C474.616 92.3367 475.263 92.4489 475.885 92.6509C475.984 92.6893 476.087 92.7182 476.193 92.7342C476.283 92.7438 476.372 92.7118 476.443 92.6509H476.6V94.5227H476.379C476.215 93.3528 475.218 92.513 474.093 92.606C473.234 92.5707 472.408 92.9714 471.879 93.6861C471.359 94.4073 471.093 95.2983 471.129 96.2021C471.074 97.1701 471.417 98.1156 472.071 98.8015C472.581 99.356 473.279 99.6701 474.013 99.6701C474.609 99.6637 475.193 99.5098 475.718 99.2214V97.7246C475.747 97.4714 475.677 97.215 475.52 97.0194C475.311 96.8656 475.058 96.7983 474.805 96.8335H474.411V96.6252H477.424V96.8784L477.427 96.8752Z" fill="#333333"/>
<path d="M491.805 94.5063C491.875 93.7819 491.51 93.0896 490.891 92.7659C490.465 92.58 490.003 92.4903 489.542 92.5095C489.353 92.4999 489.163 92.4999 488.974 92.5095V96.4775H489.712C491.128 96.4775 491.833 95.8044 491.833 94.4582M495.872 99.9967H495.394C494.833 100.022 494.272 99.923 493.75 99.7114C493.199 99.4166 492.699 99.0255 492.276 98.5512L491.538 97.7787C491.176 97.3781 490.779 97.0159 490.353 96.6954H488.99V98.7435C488.99 99.1922 489.115 99.4711 489.365 99.5704C489.538 99.6249 489.721 99.6505 489.904 99.6473H490.17V99.8781H486.897V99.6538H487.096C487.359 99.689 487.625 99.6121 487.833 99.4358C487.981 99.2082 488.048 98.9358 488.026 98.6634V93.5736C488.051 93.3012 487.99 93.0287 487.849 92.8012C487.654 92.6377 487.404 92.5608 487.157 92.5929H486.907V92.3685C487.055 92.3685 487.401 92.3685 487.917 92.314H489.833C490.651 92.2563 491.465 92.4678 492.163 92.9166C492.644 93.2659 492.923 93.8493 492.901 94.4646C492.91 94.9262 492.75 95.3717 492.458 95.7179C492.17 96.064 491.792 96.3108 491.369 96.4294C491.827 96.8204 492.266 97.2403 492.68 97.6826L493.593 98.6409C493.997 99.0896 494.487 99.4454 495.029 99.6762C495.295 99.7787 495.571 99.8429 495.856 99.8621L495.878 99.9935L495.872 99.9967Z" fill="#333333"/>
<path d="M512.263 96.3306C512.295 95.3498 511.978 94.3947 511.372 93.6479C510.798 92.962 509.962 92.5774 509.09 92.5998C508.257 92.587 507.475 93.0229 507.016 93.7537C506.571 94.4139 506.34 95.2056 506.356 96.0133C506.353 96.6607 506.487 97.3018 506.75 97.8883C507.026 98.4428 507.443 98.9043 507.955 99.2216C508.446 99.5421 509.013 99.7088 509.593 99.7024C510.67 99.7505 511.644 99.0421 511.984 97.9684C512.189 97.4492 512.295 96.8883 512.292 96.3274M513.34 95.9364C513.372 97.0357 512.952 98.0966 512.183 98.8434C511.43 99.5934 510.43 100.007 509.391 99.9973C508.712 100.004 508.042 99.853 507.423 99.5614C506.805 99.2761 506.273 98.8146 505.888 98.228C505.526 97.6639 505.334 96.9973 505.343 96.3146C505.334 95.5934 505.513 94.8819 505.859 94.2569C506.205 93.6351 506.721 93.1319 507.337 92.8178C507.987 92.4684 508.709 92.2921 509.439 92.305C510.459 92.2793 511.449 92.6511 512.225 93.3434C512.965 93.978 513.388 94.9332 513.372 95.9332" fill="#333333"/>
<path d="M531.606 92.5316C531.314 92.5123 531.026 92.6085 530.798 92.8008C530.616 93.038 530.529 93.3392 530.555 93.6405V96.8873C530.568 97.5091 530.401 98.1181 530.077 98.6373C529.747 99.1405 529.273 99.5219 528.725 99.7239C528.221 99.9098 527.693 99.9995 527.157 99.9867C526.257 100.048 525.369 99.7335 524.686 99.1149C524.119 98.5572 523.811 97.7687 523.84 96.9546V93.4354C523.84 92.9642 523.721 92.663 523.481 92.6085C523.273 92.554 523.061 92.5251 522.85 92.5251V92.3008H525.792V92.5251H525.689C525.43 92.4867 525.167 92.5572 524.955 92.7174C524.792 92.9065 524.715 93.1598 524.741 93.413V96.7623C524.702 97.4931 524.971 98.2046 525.475 98.7078C526.01 99.1758 526.693 99.4097 527.388 99.3649C529.135 99.3649 530.007 98.4931 530.007 96.7495V93.9482C530.007 93.2239 529.875 92.7976 529.616 92.6662C529.378 92.5796 529.132 92.5315 528.882 92.5283V92.304H531.58L531.609 92.5283L531.606 92.5316Z" fill="#333333"/>
<path d="M545.888 94.3879C545.888 93.1282 545.247 92.4968 543.975 92.4968C543.706 92.4968 543.436 92.5129 543.17 92.5513V96.4616C543.379 96.5161 543.59 96.5481 543.805 96.5545C544.558 96.6154 545.273 96.2084 545.638 95.5161C545.811 95.1763 545.898 94.7981 545.892 94.4135M546.978 94.4135C547.01 95.1379 546.674 95.8238 546.09 96.2116C545.513 96.5866 544.843 96.7725 544.167 96.7436C543.834 96.7436 543.497 96.7148 543.167 96.6507V98.7853C543.129 99.0673 543.206 99.3526 543.382 99.5673C543.597 99.7308 543.863 99.8045 544.126 99.7693H544.484V100.003H541.267V99.7693H541.424C541.629 99.7917 541.837 99.7468 542.02 99.6443C542.164 99.4904 542.234 99.2725 542.206 99.0577V93.2821C542.206 92.8526 542.02 92.6346 541.654 92.6346H541.074V92.4071L542.565 92.3302H544.01C544.863 92.2468 545.715 92.4968 546.401 93.0353C546.792 93.4071 547.01 93.9359 546.997 94.4904" fill="#333333"/>
<path d="M475.237 6.41C475.89 6.46333 476.4 6.63333 476.767 6.92C477.134 7.20667 477.317 7.61333 477.317 8.14C477.317 8.73333 477.084 9.19333 476.617 9.52C476.157 9.84 475.524 10 474.717 10H470.957V3L474.697 3C475.417 3 475.994 3.15667 476.427 3.47C476.867 3.77667 477.087 4.21333 477.087 4.78C477.087 5.26 476.924 5.64 476.597 5.92C476.27 6.19333 475.817 6.35667 475.237 6.41ZM475.917 4.95C475.917 4.62333 475.797 4.37 475.557 4.19C475.324 4.01 475.007 3.92 474.607 3.92L472.137 3.92V6L474.627 6C475.014 6 475.324 5.90667 475.557 5.72C475.797 5.52667 475.917 5.27 475.917 4.95ZM474.607 9.08C475.627 9.08 476.137 8.71333 476.137 7.98C476.137 7.62 476.01 7.35 475.757 7.17C475.504 6.98333 475.147 6.89 474.687 6.89L472.137 6.89V9.08H474.607ZM484.912 3L481.812 7.21V10H480.632V7.21L477.532 3H478.912L481.232 6.29L483.572 3H484.912Z" fill="#2F3133"/>
</g>
<defs>
<clipPath id="clip0_319_1521">
<rect width="76.9231" height="100" fill="white" transform="translate(470.077)"/>
</clipPath>
</defs>
</svg>
