<svg width="40" height="313" viewBox="0 0 40 313" fill="none" xmlns="http://www.w3.org/2000/svg">
<path d="M28.5271 280.047L28.7245 279.104L39.098 282.42L39.098 312.444L38.055 312.444L38.055 310.986C38.055 309.347 37.5288 308.174 36.4764 307.469C35.875 307.069 34.4844 306.869 32.3045 306.869L7.63919 306.869C5.25253 306.869 3.75852 307.135 3.15715 307.669C2.33028 308.413 1.91684 309.518 1.91684 310.986L1.91684 312.444L0.873855 312.444L0.873854 294.888L1.91684 294.888C1.89805 296.946 2.08598 298.395 2.48062 299.234C2.87526 300.054 3.37327 300.616 3.97463 300.921C4.57599 301.226 6.01363 301.378 8.28753 301.378L32.3045 301.378C33.8642 301.378 34.9354 301.226 35.518 300.921C35.9126 300.692 36.2039 300.34 36.3918 299.863C36.5798 299.386 36.6737 297.9 36.6737 295.402L36.6737 292.571C36.6737 289.598 36.4576 287.51 36.0254 286.309C35.5932 285.108 34.8321 284.012 33.7421 283.021C32.6333 282.03 30.895 281.038 28.5271 280.047Z" fill="#333333"/>
<path d="M1.91684 251.051L0.873852 251.051L0.873852 237.326L1.91684 237.326L1.91684 238.784C1.91684 240.31 2.54639 241.482 3.8055 242.302C4.38807 242.702 5.74113 242.902 7.86469 242.902L23.3686 242.902C27.2023 242.902 30.1809 243.293 32.3044 244.074C34.4092 244.837 36.2227 246.352 37.7449 248.621C39.2483 250.87 40 253.939 40 257.828C40 262.06 39.2765 265.272 37.8295 267.465C36.3824 269.657 34.4374 271.21 31.9944 272.125C30.3218 272.735 27.1835 273.04 22.5793 273.04L7.63918 273.04C5.29011 273.04 3.74912 273.374 3.01621 274.041C2.2833 274.689 1.91684 275.747 1.91684 277.215L1.91684 278.673L0.873854 278.673L0.873853 261.917L1.91684 261.917L1.91684 263.404C1.91684 265.005 2.41485 266.149 3.41085 266.835C4.08739 267.312 5.49683 267.55 7.63918 267.55L24.2988 267.55C25.7834 267.55 27.4842 267.417 29.401 267.15C31.3178 266.864 32.8118 266.359 33.883 265.635C34.9542 264.91 35.8375 263.871 36.5328 262.518C37.2281 261.145 37.5758 259.468 37.5758 257.485C37.5758 254.95 37.0308 252.681 35.9408 250.68C34.8508 248.678 33.4602 247.315 31.7689 246.591C30.0587 245.847 27.1741 245.476 23.1149 245.476L7.63918 245.476C5.25252 245.476 3.75851 245.742 3.15715 246.276C2.33028 247.02 1.91684 248.125 1.91684 249.593L1.91684 251.051Z" fill="#333333"/>
<path d="M17.9281 213.935L30.1621 205.614C33.5448 203.307 35.6871 201.601 36.5892 200.496C37.4724 199.371 37.961 197.951 38.055 196.235L39.098 196.235L39.098 212.877L38.055 212.877C38.0362 211.771 37.9234 210.952 37.7167 210.418C37.5476 210.018 37.2939 209.693 36.9556 209.446C36.5986 209.179 36.2415 209.045 35.8844 209.045C35.4522 209.045 35.02 209.131 34.5877 209.303C34.2683 209.436 33.4414 209.96 32.1071 210.875L22.2974 217.452L32.5581 225.573C33.6481 226.431 34.381 226.945 34.7569 227.117C35.1139 227.288 35.4898 227.374 35.8844 227.374C36.4858 227.374 36.9838 227.117 37.3784 226.602C37.7731 226.087 37.9986 225.106 38.055 223.657L39.098 223.657L39.098 237.411L38.055 237.411C37.961 236.439 37.7637 235.6 37.463 234.895C36.9744 233.713 36.3167 232.588 35.4898 231.52C34.6629 230.453 33.3944 229.233 31.6843 227.86L20.296 218.71L9.27414 226.345C6.28612 228.423 4.33169 230.186 3.41085 231.635C2.47122 233.084 1.97322 234.752 1.91684 236.639L0.873852 236.639L0.873851 218.71L1.91684 218.71C1.97322 220.235 2.21752 221.284 2.64975 221.856C3.08198 222.408 3.56119 222.685 4.08738 222.685C4.78271 222.685 5.79751 222.227 7.13178 221.312L15.8985 215.365L7.30091 208.473C6.28611 207.673 5.59079 207.187 5.21494 207.015C4.83909 206.824 4.45384 206.729 4.05919 206.729C3.66455 206.729 3.31689 206.844 3.0162 207.072C2.62156 207.358 2.34907 207.72 2.19873 208.159C2.02959 208.597 1.93563 209.503 1.91684 210.875L0.873851 210.875L0.87385 197.121L1.91684 197.121C1.97322 198.208 2.14235 199.095 2.42424 199.781C2.85647 200.81 3.43904 201.754 4.17195 202.612C4.90486 203.469 6.25793 204.68 8.23115 206.243L17.9281 213.935Z" fill="#333333"/>
<path d="M2.95983 184.453L18.0691 184.453L18.0691 175.932C18.0691 173.721 17.7402 172.243 17.0825 171.5C16.218 170.509 14.6958 169.956 12.5159 169.841L12.5159 168.783L25.821 168.783L25.821 169.841C23.9605 170.108 22.7672 170.375 22.241 170.642C21.5833 170.985 21.0665 171.548 20.6906 172.329C20.3148 173.111 20.1269 174.312 20.1269 175.932L20.1269 184.453L32.7273 184.453C34.4186 184.453 35.4522 184.377 35.8281 184.224C36.1851 184.072 36.4764 183.805 36.7019 183.424C36.9086 183.042 37.012 182.318 37.012 181.251L37.012 174.674C37.012 172.482 36.8617 170.89 36.561 169.899C36.2603 168.907 35.6683 167.954 34.7851 167.039C33.6199 165.857 31.8628 164.647 29.5137 163.408L29.5137 162.264L39.098 165.609L39.098 195.49L38.055 195.49L38.055 194.118C38.055 193.203 37.8389 192.336 37.4066 191.516C37.106 190.906 36.6549 190.496 36.0536 190.286C35.4522 190.058 34.2213 189.943 32.3608 189.943L7.52642 189.943C5.10218 189.943 3.60817 190.191 3.04439 190.687C2.29269 191.373 1.91684 192.517 1.91684 194.118L1.91684 195.491L0.87385 195.491L0.873849 165.609L9.24595 165.181L9.24595 166.296C7.23514 166.696 5.85388 167.144 5.10218 167.64C4.35048 168.116 3.7773 168.831 3.38266 169.784C3.10077 170.547 2.95983 171.891 2.95983 173.816L2.95983 184.453Z" fill="#333333"/>
<path d="M19.5913 135.012C20.155 132.325 21.0571 130.313 22.2974 128.979C24.0263 127.13 26.1405 126.205 28.6399 126.205C30.5379 126.205 32.3608 126.815 34.1085 128.035C35.8374 129.255 37.106 130.933 37.914 133.068C38.7033 135.184 39.098 138.425 39.098 142.79L39.098 161.09L38.055 161.09L38.055 159.632C38.055 158.012 37.5476 156.849 36.5328 156.144C35.875 155.705 34.475 155.486 32.3326 155.486L7.63918 155.486C5.27131 155.486 3.7773 155.762 3.15715 156.315C2.33027 157.059 1.91684 158.164 1.91684 159.632L1.91684 161.09L0.873849 161.09L0.873848 144.334C0.873848 141.208 1.09936 138.701 1.55038 136.814C2.22691 133.954 3.42964 131.772 5.15856 130.266C6.86868 128.76 8.8419 128.007 11.0782 128.007C12.9951 128.007 14.7146 128.598 16.2368 129.78C17.7402 130.962 18.8584 132.706 19.5913 135.012ZM18.0691 149.996C18.2006 149.291 18.304 148.49 18.3791 147.594C18.4355 146.679 18.4637 145.678 18.4637 144.592C18.4637 141.808 18.1724 139.721 17.5899 138.329C16.9885 136.919 16.077 135.842 14.8555 135.098C13.634 134.355 12.2997 133.983 10.8527 133.983C8.61639 133.983 6.70895 134.908 5.13037 136.757C3.55179 138.606 2.7625 141.303 2.7625 144.849C2.7625 146.755 2.96922 148.471 3.38266 149.996L18.0691 149.996ZM36.3355 149.996C36.8429 147.785 37.0966 145.602 37.0966 143.448C37.0966 139.997 36.3355 137.367 34.8133 135.556C33.2723 133.745 31.3742 132.839 29.1191 132.839C27.6345 132.839 26.2063 133.249 24.8344 134.069C23.4625 134.889 22.382 136.223 21.5927 138.072C20.8034 139.921 20.4087 142.209 20.4087 144.935C20.4087 146.117 20.4275 147.127 20.4651 147.966C20.5027 148.804 20.5685 149.481 20.6624 149.996L36.3355 149.996Z" fill="#E6252D"/>
<path d="M-9.16573e-06 102.757C-9.38571e-06 97.7244 1.88865 93.3686 5.66595 89.6894C9.42447 85.9912 14.1226 84.1422 19.7604 84.1422C25.5673 84.1421 30.3876 86.0008 34.2213 89.718C38.055 93.4353 39.9718 97.9341 39.9718 103.215C39.9718 108.552 38.102 113.041 34.3622 116.682C30.6225 120.304 25.7834 122.115 19.845 122.115C13.775 122.115 8.82311 120.018 4.98942 115.825C1.66314 112.184 -8.94408e-06 107.828 -9.16573e-06 102.757ZM2.05778 103.3C2.05778 106.77 3.32628 109.553 5.86328 111.65C9.02043 114.261 13.6434 115.567 19.7322 115.567C25.9713 115.567 30.7728 114.214 34.1367 111.507C36.6925 109.429 37.9704 106.684 37.9704 103.272C37.9704 99.6307 36.5704 96.6283 33.7703 94.2645C30.9702 91.8817 26.5539 90.6902 20.5215 90.6902C13.9817 90.6902 9.105 91.9961 5.89147 94.6077C3.33567 96.7046 2.05778 99.6021 2.05778 103.3Z" fill="#E6252D"/>
<path d="M39.098 82.025L38.055 82.025L38.055 80.5667C38.055 78.9273 37.5382 77.7645 36.5046 77.0782C35.8844 76.6588 34.4938 76.4491 32.3326 76.4491L7.63918 76.4491C5.25252 76.4491 3.75851 76.716 3.15714 77.2498C2.33027 77.9933 1.91683 79.0989 1.91683 80.5667L1.91683 82.025L0.873845 82.025L0.873844 66.241C0.873844 60.4459 1.52219 56.0424 2.81888 53.0304C4.11556 49.9995 6.27671 47.569 9.30232 45.7389C12.3279 43.8898 15.8233 42.9653 19.7886 42.9653C25.1069 42.9653 29.5513 44.6047 33.1219 47.8835C37.1059 51.5626 39.098 57.1671 39.098 64.6969L39.098 82.025ZM36.3355 70.9591C36.8616 68.5381 37.1247 66.5079 37.1247 64.8685C37.1247 60.4459 35.5931 56.7763 32.53 53.8597C29.4668 50.9431 25.3136 49.4848 20.0705 49.4848C14.7898 49.4848 10.6272 50.9431 7.5828 53.8597C4.5384 56.7763 3.0162 60.5222 3.0162 65.0972C3.0162 66.8129 3.28869 68.7668 3.83368 70.9591L36.3355 70.9591Z" fill="#E6252D"/>
<path d="M0.873842 13.9695L0.873842 0.444458L1.91683 0.444458L1.91683 1.1879C1.91683 1.68353 2.13294 2.40793 2.56517 3.36108C2.9974 4.31421 3.61756 5.18158 4.42564 5.96313C5.23372 6.74472 6.5492 7.7074 8.37208 8.85117L22.8894 18.2015L32.4736 18.2015C34.8226 18.2015 36.2885 17.9346 36.871 17.4008C37.6603 16.6765 38.055 15.5327 38.055 13.9695L38.055 12.7114L39.098 12.7114L39.098 29.1817L38.055 29.1817L38.055 27.8091C38.055 26.1697 37.5664 25.0069 36.5891 24.3207C35.9878 23.9013 34.6159 23.6916 32.4736 23.6916L23.4249 23.6916L7.41366 34.3286C5.5344 35.5868 4.35987 36.4446 3.89005 36.9022C3.42024 37.3406 2.85646 38.2651 2.19872 39.6758C2.01079 40.057 1.91683 40.6099 1.91683 41.3343L0.873843 41.3343L0.873843 24.7496L1.91683 24.7496L1.91683 25.6074C1.91683 26.5034 2.12355 27.3326 2.53699 28.0951C2.95042 28.8386 3.57058 29.2103 4.39745 29.2103C5.07399 29.2103 6.2955 28.6289 8.06201 27.466L20.3805 19.3738L8.59759 11.7678C6.83109 10.624 5.51561 10.0521 4.65115 10.0521C4.12496 10.0521 3.65514 10.1951 3.24171 10.481C2.82827 10.7479 2.5088 11.1387 2.28329 11.6534C2.03898 12.1681 1.91683 12.9402 1.91683 13.9695L0.873842 13.9695Z" fill="#E6252D"/>
</svg>
