<svg width="40" height="54" viewBox="0 0 40 54" fill="none" xmlns="http://www.w3.org/2000/svg">
<g clip-path="url(#clip0_1267_1390)">
<path d="M20.0034 33.212C22.1476 33.212 23.8858 31.4738 23.8858 29.3296C23.8858 27.1855 22.1476 25.4473 20.0034 25.4473C17.8593 25.4473 16.1211 27.1855 16.1211 29.3296C16.1211 31.4738 17.8593 33.212 20.0034 33.212Z" stroke="white" stroke-width="2.4" stroke-miterlimit="10"/>
<path d="M20.0069 37.0948C24.2952 37.0948 27.7716 33.6185 27.7716 29.3301C27.7716 25.0418 24.2952 21.5654 20.0069 21.5654C15.7186 21.5654 12.2422 25.0418 12.2422 29.3301C12.2422 33.6185 15.7186 37.0948 20.0069 37.0948Z" stroke="white" stroke-width="2.4" stroke-miterlimit="10"/>
<path d="M20.0047 37.0947C17.4424 37.0947 15.1906 35.8523 13.793 33.9888V50.2947H26.2165V33.9888C24.8189 35.8523 22.5671 37.0947 20.0047 37.0947Z" stroke="white" stroke-width="2.4" stroke-miterlimit="10"/>
<path d="M28.1581 52.6243H11.8522C11.231 52.6243 10.6875 52.0808 10.6875 51.4596C10.6875 50.8385 11.231 50.2949 11.8522 50.2949H28.1581C28.7793 50.2949 29.3228 50.8385 29.3228 51.4596C29.3228 52.0808 28.7793 52.6243 28.1581 52.6243Z" stroke="white" stroke-width="2.4" stroke-miterlimit="10"/>
<path d="M12.3193 30.1064H6.80639C3.77815 30.1064 1.37109 32.5135 1.37109 35.5417C1.37109 38.57 3.77815 40.977 6.80639 40.977H13.7946" stroke="white" stroke-width="2.4" stroke-miterlimit="10"/>
<path d="M26.2188 40.977H33.207C36.2352 40.977 38.6423 38.57 38.6423 35.5417C38.6423 32.5135 36.2352 30.1064 33.207 30.1064H27.694" stroke="white" stroke-width="2.4" stroke-miterlimit="10"/>
<path d="M20.0067 21.5652C20.9385 21.5652 21.8702 21.7205 22.7244 22.1087L21.5597 16.1299H18.4538L17.2891 22.1087C18.1432 21.7205 19.0749 21.5652 20.0067 21.5652Z" stroke="white" stroke-width="2.4" stroke-miterlimit="10"/>
<path d="M20.0078 16.13V0.600586" stroke="white" stroke-width="1.2" stroke-miterlimit="10"/>
</g>
<defs>
<clipPath id="clip0_1267_1390">
<rect width="38.8235" height="52.8" fill="white" transform="translate(0.589844 0.600098)"/>
</clipPath>
</defs>
</svg>
