<svg width="61" height="52" viewBox="0 0 61 52" fill="none" xmlns="http://www.w3.org/2000/svg">
<path d="M1 14.9952C1 24.5646 3.10526 34.3254 9.99522 41.2153L12.4833 43.7034H59.3732L56.8852 41.2153C49.9952 34.3254 47.89 24.5646 47.89 14.9952" stroke="white" stroke-width="2" stroke-miterlimit="10" stroke-linejoin="bevel"/>
<path d="M1 14.9952C1 24.5646 3.10526 34.3254 9.99522 41.2153L12.4833 43.7034H59.3732L56.8852 41.2153C49.9952 34.3254 47.89 24.5646 47.89 14.9952" stroke="white" stroke-width="2" stroke-miterlimit="10" stroke-linejoin="bevel"/>
<path d="M47.8899 43.7034V51.3589H1V14.9952" stroke="white" stroke-width="2" stroke-miterlimit="10"/>
<path d="M37.3638 6.38269L43.1055 6.38269L43.1055 0.641064L37.3638 0.641064L37.3638 6.38269Z" stroke="white" stroke-width="2" stroke-miterlimit="10"/>
<path d="M5.78181 6.38281L11.5234 6.38281L11.5234 0.641186L5.78181 0.641186L5.78181 6.38281Z" stroke="white" stroke-width="2" stroke-miterlimit="10"/>
<path d="M5.78469 3.51196V6.38278H11.5263V3.51196H37.3636V6.38278H43.1053V3.51196H47.8899V14.9952H1V3.51196H5.78469Z" stroke="white" stroke-width="2" stroke-miterlimit="10"/>
</svg>
