<svg width="66" height="62" viewBox="0 0 66 62" fill="none" xmlns="http://www.w3.org/2000/svg">
<path d="M36.4814 7.18158C38.1884 7.18158 39.5722 5.79779 39.5722 4.09079C39.5722 2.38379 38.1884 1 36.4814 1C34.7744 1 33.3906 2.38379 33.3906 4.09079C33.3906 5.79779 34.7744 7.18158 36.4814 7.18158Z" stroke="white" stroke-width="2" stroke-miterlimit="10"/>
<path d="M6.60642 57.6645C8.31341 57.6645 9.69721 56.2807 9.69721 54.5737C9.69721 52.8667 8.31341 51.4829 6.60642 51.4829C4.89942 51.4829 3.51562 52.8667 3.51562 54.5737C3.51562 56.2807 4.89942 57.6645 6.60642 57.6645Z" stroke="white" stroke-width="2" stroke-miterlimit="10"/>
<path d="M5.57418 33.4535C7.85018 33.4535 9.69524 31.6085 9.69524 29.3325C9.69524 27.0565 7.85018 25.2114 5.57418 25.2114C3.29818 25.2114 1.45312 27.0565 1.45312 29.3325C1.45312 31.6085 3.29818 33.4535 5.57418 33.4535Z" stroke="white" stroke-width="2" stroke-miterlimit="10"/>
<path d="M53.2109 60.9999C55.4869 60.9999 57.332 59.1549 57.332 56.8789C57.332 54.6029 55.4869 52.7578 53.2109 52.7578C50.9349 52.7578 49.0898 54.6029 49.0898 56.8789C49.0898 59.1549 50.9349 60.9999 53.2109 60.9999Z" stroke="white" stroke-width="2" stroke-miterlimit="10"/>
<path d="M37.7558 58.9394C38.8938 58.9394 39.8164 58.0169 39.8164 56.8789C39.8164 55.7409 38.8938 54.8184 37.7558 54.8184C36.6178 54.8184 35.6953 55.7409 35.6953 56.8789C35.6953 58.0169 36.6178 58.9394 37.7558 58.9394Z" stroke="white" stroke-width="2" stroke-miterlimit="10"/>
<path d="M29.2695 15.4237L34.4209 6.15137" stroke="white" stroke-width="2" stroke-miterlimit="10"/>
<path d="M61.4541 20.8198C63.1611 20.8198 64.5449 19.436 64.5449 17.729C64.5449 16.022 63.1611 14.6382 61.4541 14.6382C59.7471 14.6382 58.3633 16.022 58.3633 17.729C58.3633 19.436 59.7471 20.8198 61.4541 20.8198Z" stroke="white" stroke-width="2" stroke-miterlimit="10"/>
<path d="M53.2109 29.0619L59.3925 19.7896" stroke="white" stroke-width="2" stroke-miterlimit="10"/>
<path d="M7.63672 52.5131L13.8183 43.2407" stroke="white" stroke-width="2" stroke-miterlimit="10"/>
<path d="M13.8174 18.5146C15.5244 18.5146 16.9081 17.1308 16.9081 15.4238C16.9081 13.7168 15.5244 12.333 13.8174 12.333C12.1104 12.333 10.7266 13.7168 10.7266 15.4238C10.7266 17.1308 12.1104 18.5146 13.8174 18.5146Z" stroke="white" stroke-width="2" stroke-miterlimit="10"/>
<path d="M29.5789 15.4238H16.9067C16.9067 17.1753 15.5673 18.5146 13.8159 18.5146C13.1977 18.5146 12.5795 18.3086 12.0644 17.9995L7.53125 25.7265C8.87059 26.4477 9.6948 27.787 9.6948 29.3324C9.6948 30.8778 8.87059 32.2171 7.53125 32.9383L13.5068 43.241H29.5789L37.615 29.3324L29.5789 15.4238Z" stroke="white" stroke-width="2" stroke-miterlimit="10"/>
<path d="M53.2092 52.7576C54.0335 52.7576 54.8577 52.9636 55.4758 53.4788L61.5544 42.9701L53.5183 29.0615H37.4462L29.4102 42.9701L36.519 55.2302C36.8281 54.9211 37.3432 54.8181 37.7553 54.8181C38.8886 54.8181 39.8158 55.7454 39.8158 56.8786H49.0882C49.0882 54.6121 50.9427 52.7576 53.2092 52.7576Z" stroke="white" stroke-width="2" stroke-miterlimit="10"/>
<path d="M14.8477 25.7266H21.0292" stroke="white" stroke-miterlimit="10"/>
<path d="M23.0898 25.7266H29.2714" stroke="white" stroke-miterlimit="10"/>
<path d="M14.8477 29.8477H29.2713" stroke="white" stroke-miterlimit="10"/>
<path d="M14.8477 33.9688H21.0292" stroke="white" stroke-miterlimit="10"/>
<path d="M27.2109 33.9688H29.2715" stroke="white" stroke-miterlimit="10"/>
<path d="M23.0898 33.9688H25.1504" stroke="white" stroke-miterlimit="10"/>
<path d="M37.7578 39.3643H43.9394" stroke="white" stroke-miterlimit="10"/>
<path d="M46 39.3643H52.1816" stroke="white" stroke-miterlimit="10"/>
<path d="M37.7578 43.4854H52.1815" stroke="white" stroke-miterlimit="10"/>
<path d="M37.7578 47.6064H43.9394" stroke="white" stroke-miterlimit="10"/>
<path d="M50.1211 47.6064H52.1816" stroke="white" stroke-miterlimit="10"/>
<path d="M46 47.6064H48.0605" stroke="white" stroke-miterlimit="10"/>
</svg>
