<svg width="60" height="59" viewBox="0 0 60 59" fill="none" xmlns="http://www.w3.org/2000/svg">
<path d="M0 24.0312C7.5 24.0312 7.5 23.2813 15 23.2813C22.5 23.2813 22.5 24.0312 30 24.0312C37.5 24.0312 37.5 23.2813 45 23.2813C52.5 23.2813 52.5 24.0312 60 24.0312" stroke="white" stroke-width="2" stroke-miterlimit="10"/>
<path d="M0 29.0938C7.5 29.0938 7.5 34.5687 15 34.5687C22.5 34.5687 22.5 29.0938 30 29.0938C37.5 29.0938 37.5 34.5687 45 34.5687C52.5 34.5687 52.5 29.0938 60 29.0938" stroke="white" stroke-width="2" stroke-miterlimit="10"/>
<path d="M28.5 47.9189C30.1569 47.9189 31.5 46.5758 31.5 44.9189C31.5 43.2621 30.1569 41.9189 28.5 41.9189C26.8431 41.9189 25.5 43.2621 25.5 44.9189C25.5 46.5758 26.8431 47.9189 28.5 47.9189Z" stroke="white" stroke-width="2" stroke-miterlimit="10"/>
<path d="M43.5 47.9189C45.1569 47.9189 46.5 46.5758 46.5 44.9189C46.5 43.2621 45.1569 41.9189 43.5 41.9189C41.8431 41.9189 40.5 43.2621 40.5 44.9189C40.5 46.5758 41.8431 47.9189 43.5 47.9189Z" stroke="white" stroke-width="2" stroke-miterlimit="10"/>
<path d="M36 57.1436C37.6569 57.1436 39 55.8004 39 54.1436C39 52.4867 37.6569 51.1436 36 51.1436C34.3431 51.1436 33 52.4867 33 54.1436C33 55.8004 34.3431 57.1436 36 57.1436Z" stroke="white" stroke-width="2" stroke-miterlimit="10"/>
<path d="M21 57.1436C22.6569 57.1436 24 55.8004 24 54.1436C24 52.4867 22.6569 51.1436 21 51.1436C19.3431 51.1436 18 52.4867 18 54.1436C18 55.8004 19.3431 57.1436 21 57.1436Z" stroke="white" stroke-width="2" stroke-miterlimit="10"/>
<path d="M13.5 47.9189C15.1569 47.9189 16.5 46.5758 16.5 44.9189C16.5 43.2621 15.1569 41.9189 13.5 41.9189C11.8431 41.9189 10.5 43.2621 10.5 44.9189C10.5 46.5758 11.8431 47.9189 13.5 47.9189Z" stroke="white" stroke-width="2" stroke-miterlimit="10"/>
<path d="M14.8516 1.41895V14.6939" stroke="white" stroke-width="2" stroke-miterlimit="10"/>
<path d="M9.67578 6.59395L14.8508 1.41895L20.0258 6.59395" stroke="white" stroke-width="2" stroke-miterlimit="10"/>
<path d="M45.1523 1.41895V14.6939" stroke="white" stroke-width="2" stroke-miterlimit="10"/>
<path d="M39.6758 6.96895L45.1508 1.41895L50.7008 6.96895" stroke="white" stroke-width="2" stroke-miterlimit="10"/>
</svg>
