<svg width="57" height="55" viewBox="0 0 57 55" fill="none" xmlns="http://www.w3.org/2000/svg">
<path d="M28.2576 44.9868C40.3738 44.9868 43.1528 33.4263 43.7086 29.647C43.8197 28.98 44.2643 28.3131 44.8201 27.9796C46.154 27.3126 48.266 25.5341 48.266 21.7548C48.266 14.9741 42.7081 19.7539 42.7081 18.42C42.7081 15.0853 39.3734 10.639 32.7039 10.639C28.2576 10.639 20.4766 11.7505 20.4766 2.85791" stroke="white" stroke-width="2.4" stroke-miterlimit="10"/>
<path d="M28.2584 44.9868C16.2534 44.9868 13.4744 33.4264 12.8075 29.5358C12.6963 28.8689 12.2517 28.2019 11.6959 27.8685C10.362 27.2015 8.25 25.423 8.25 21.6436C8.25 14.863 12.6963 22.7552 18.2542 10.5278" stroke="white" stroke-width="2.4" stroke-miterlimit="10"/>
<path d="M53.7105 35.9844C51.265 44.3212 46.2629 50.5461 39.3711 53.7696" stroke="white" stroke-width="2.4" stroke-miterlimit="10"/>
<path d="M56.4443 42.4309C56.4443 42.7114 56.3034 43.0018 56.0117 43.1477L55.9736 43.1672H55.9316C55.6511 43.1672 55.3607 43.0254 55.2148 42.7336L55.2061 42.718L55.2021 42.7004L53.4971 36.4163L48.4893 40.679L48.4883 40.678C48.3478 40.8134 48.1695 40.8879 47.9971 40.8879C47.8186 40.8878 47.637 40.806 47.5449 40.6223L47.5254 40.5842V40.5413C47.5253 40.5398 47.5248 40.5318 47.5176 40.5071C47.5111 40.4851 47.4963 40.4408 47.4873 40.3958C47.4684 40.3009 47.472 40.1915 47.5273 40.0608C47.5279 40.0182 47.5308 39.9612 47.5586 39.9055C47.5761 39.8704 47.5993 39.8426 47.6191 39.8206C47.6387 39.7989 47.663 39.7737 47.6895 39.7473L47.6992 39.7375L53.3682 34.8469C53.4185 34.7965 53.4965 34.7193 53.5996 34.678C53.7257 34.6276 53.8631 34.6374 54.0107 34.7112C54.1304 34.771 54.2328 34.8375 54.3076 34.9124C54.3732 34.978 54.4256 35.0614 54.4385 35.1614L56.4385 42.3831L56.4443 42.4065V42.4309Z" fill="white" stroke="white" stroke-width="0.36"/>
<path d="M28.2576 44.9868C40.3738 44.9868 43.1528 33.4263 43.7086 29.647C43.8197 28.98 44.2643 28.3131 44.8201 27.9796C46.154 27.3126 48.266 25.5341 48.266 21.7548C48.266 14.9741 42.7081 19.7539 42.7081 18.42C42.7081 15.0853 39.3734 10.639 32.7039 10.639C28.2576 10.639 20.4766 11.7505 20.4766 2.85791" stroke="white" stroke-width="2.4" stroke-miterlimit="10"/>
<path d="M17.474 53.8799C10.5822 50.7674 5.35775 44.4314 3.02344 36.0946" stroke="white" stroke-width="2.4" stroke-miterlimit="10"/>
<path d="M2.61328 34.8217C2.76097 34.7479 2.89831 34.738 3.02441 34.7885C3.12723 34.8296 3.20454 34.9069 3.25488 34.9574H3.25586L8.9248 39.849L8.93457 39.8578C8.961 39.8842 8.98632 39.9093 9.00586 39.931C9.02565 39.9531 9.048 39.9811 9.06543 40.016C9.1022 40.0896 9.09863 40.1655 9.09863 40.2074C9.09863 40.3164 9.09951 40.484 8.95312 40.6449C8.85761 40.8116 8.68615 40.8871 8.51562 40.8871C8.34291 40.8871 8.16406 40.813 8.02344 40.6771L3.01562 36.4154L1.31152 42.6996L1.30664 42.7172L1.29883 42.7338C1.15298 43.0252 0.86237 43.1663 0.582031 43.1664C0.492431 43.1664 0.422206 43.1217 0.376953 43.0795C0.330842 43.0364 0.294708 42.9823 0.267578 42.9281C0.213112 42.8192 0.179688 42.6798 0.179688 42.5414V42.517L0.185547 42.4935L2.18652 35.2679C2.20032 35.1698 2.25174 35.0875 2.31641 35.0228C2.39124 34.948 2.49365 34.8815 2.61328 34.8217Z" fill="white" stroke="white" stroke-width="0.36"/>
<path d="M28.2584 44.9868C16.2534 44.9868 13.4744 33.4264 12.8075 29.5358C12.6963 28.8689 12.2517 28.2019 11.6959 27.8685C10.362 27.2015 8.25 25.423 8.25 21.6436C8.25 14.863 12.6963 22.7552 18.2542 10.5278" stroke="white" stroke-width="2.4" stroke-miterlimit="10"/>
<path d="M39.9297 1.07959C39.9297 1.07959 50.2674 6.08169 46.7103 18.0867" stroke="white" stroke-width="2.4" stroke-miterlimit="10"/>
<path d="M33.0344 34.2043C30.4777 36.761 26.2537 36.761 23.5859 34.2043" stroke="white" stroke-width="2.4" stroke-miterlimit="10"/>
<path d="M32.7031 23.3113C34.5928 25.201 37.4829 25.201 39.3726 23.3113L40.4842 23.8671" stroke="white" stroke-width="2.4" stroke-miterlimit="10"/>
<path d="M23.8123 23.3113C21.9226 25.201 19.0325 25.201 17.1428 23.3113L16.0312 23.8671" stroke="white" stroke-width="2.4" stroke-miterlimit="10"/>
</svg>
