<svg width="57" height="60" viewBox="0 0 57 60" fill="none" xmlns="http://www.w3.org/2000/svg">
<g clip-path="url(#clip0_2058_2138)">
<path d="M0 26.3325H56.4263" stroke="white" stroke-width="2" stroke-miterlimit="10"/>
<path d="M11.2852 31.9748V14.1064" stroke="white" stroke-width="2" stroke-miterlimit="10"/>
<path d="M13.6358 0.94043V14.1066H8.93359V0.94043" stroke="white" stroke-width="2" stroke-miterlimit="10"/>
<path d="M6.58203 0.94043H15.9864" stroke="white" stroke-width="2" stroke-miterlimit="10"/>
<path d="M8.93359 8.46387H13.6358" stroke="white" stroke-width="2" stroke-miterlimit="10"/>
<path d="M45.1406 31.9748V14.1064" stroke="white" stroke-width="2" stroke-miterlimit="10"/>
<path d="M47.4913 0.94043V14.1066H42.7891V0.94043" stroke="white" stroke-width="2" stroke-miterlimit="10"/>
<path d="M40.4414 0.94043H49.8458" stroke="white" stroke-width="2" stroke-miterlimit="10"/>
<path d="M42.7891 8.46387H47.4913" stroke="white" stroke-width="2" stroke-miterlimit="10"/>
<path d="M41.7526 44.2007C41.7526 35.8308 35.8278 29.812 28.2103 29.812C19.8404 29.812 14.668 35.8308 14.668 44.2007C14.668 52.5706 21.5332 59.4358 29.9031 59.4358C38.273 59.4358 45.1382 52.6647 45.1382 44.2007V31.975" stroke="white" stroke-miterlimit="10"/>
<path d="M41.7554 44.2008C41.7554 52.5707 34.8902 59.4359 26.5203 59.4359C18.1504 59.4359 11.2852 52.6648 11.2852 44.2008V31.9751" stroke="white" stroke-miterlimit="10"/>
<path d="M0 21.1597C7.05329 21.1597 7.05329 24.9214 14.1066 24.9214C21.1599 24.9214 21.1599 21.1597 28.2132 21.1597C35.2665 21.1597 35.2665 24.9214 42.3197 24.9214C49.373 24.9214 49.373 21.1597 56.4263 21.1597" stroke="white" stroke-width="2" stroke-miterlimit="10"/>
</g>
<defs>
<clipPath id="clip0_2058_2138">
<rect width="56.4263" height="60" fill="white"/>
</clipPath>
</defs>
</svg>
