<svg width="60" height="43" viewBox="0 0 60 43" fill="none" xmlns="http://www.w3.org/2000/svg">
<g clip-path="url(#clip0_2057_1920)">
<path d="M30.0063 33.4112C20.4874 33.4112 10.966 33.4112 1.44711 33.4112C0.292927 33.4112 0 33.1233 0 31.9866C0 21.8018 0 11.6194 0 1.4371C0 0.275402 0.270394 0 1.43459 0C20.4724 0 39.5126 0 58.5529 0C59.7221 0 60 0.277905 60 1.42207C60 11.6044 60 21.7893 60 31.9716C60 33.1158 59.7096 33.4087 58.5654 33.4087C49.0465 33.4087 39.5251 33.4087 30.0063 33.4087V33.4112ZM2.03046 31.3607H57.952V2.0555H2.03046V31.3607Z" fill="white"/>
<path d="M30.0034 38.0329C22.1494 38.0329 14.298 38.0329 6.444 38.0329C6.2362 38.0329 6.02339 38.0479 5.82059 38.0204C5.28231 37.9453 4.92178 37.5046 4.96434 36.9714C5.0069 36.4155 5.32987 36.1076 5.87567 36.0375C6.04091 36.0175 6.20866 36.03 6.3764 36.03C22.1244 36.03 37.8723 36.03 53.6178 36.03C53.7855 36.03 53.9533 36.0175 54.1185 36.0375C54.6668 36.1026 54.9898 36.408 55.0374 36.9638C55.0824 37.4971 54.7219 37.9403 54.1861 38.0204C53.9808 38.0504 53.7705 38.0354 53.5627 38.0354C45.7088 38.0354 37.8573 38.0354 30.0034 38.0354V38.0329Z" fill="white"/>
<path d="M29.9943 42.5795C24.5163 42.5795 19.0383 42.5795 13.5604 42.5795C13.31 42.5795 13.0596 42.5845 12.8118 42.552C12.2835 42.4819 11.9906 42.1589 11.963 41.6356C11.9355 41.1149 12.1808 40.7544 12.7016 40.6267C12.8994 40.5766 13.1122 40.5666 13.32 40.5666C24.4412 40.5641 35.5649 40.5641 46.6862 40.5666C46.9115 40.5666 47.1493 40.5816 47.3621 40.6467C47.8454 40.7919 48.0632 41.1549 48.0331 41.6456C48.0031 42.1389 47.7302 42.4593 47.237 42.5445C46.9941 42.587 46.7387 42.5795 46.4909 42.5795C40.9929 42.5795 35.4948 42.5795 29.9943 42.5795Z" fill="white"/>
<path d="M29.9918 3.90564C36.8218 3.90564 43.6518 3.90564 50.4817 3.90564C51.5833 3.90564 51.7736 4.07338 51.9263 5.15496C52.1667 6.87497 53.2432 7.89896 54.9808 8.0592C55.7494 8.1293 56.1049 8.49233 56.1074 9.27347C56.1124 14.2282 56.1124 19.1829 56.1074 24.1376C56.1074 24.9238 55.797 25.2292 54.9783 25.3269C53.1932 25.5397 52.1492 26.5587 51.9163 28.3162C51.7861 29.3052 51.5257 29.528 50.4867 29.528C39.4907 29.528 28.4972 29.528 17.5011 29.528C14.8147 29.528 12.1283 29.528 9.44187 29.528C8.46294 29.528 8.19755 29.2902 8.06736 28.3212C7.83202 26.5562 6.79801 25.5397 5.01291 25.3269C4.16668 25.2267 3.87876 24.9213 3.87876 24.0826C3.87375 19.1704 3.87375 14.2557 3.87876 9.34357C3.87876 8.46479 4.22176 8.12179 5.12307 8.05669C6.60773 7.94904 7.77444 6.88248 8.01479 5.41033C8.05234 5.18501 8.06486 4.95467 8.10993 4.72934C8.20256 4.24113 8.503 3.96322 9.00123 3.91816C9.22906 3.89813 9.45939 3.90814 9.68723 3.90814C16.4546 3.90814 23.222 3.90814 29.9918 3.90814V3.90564ZM54.102 23.364C54.102 19.0177 54.107 14.6889 54.0845 10.3601C54.0845 10.2023 53.8416 9.96197 53.6639 9.90439C52.2768 9.44622 51.2003 8.61501 50.5143 7.32062C50.2839 6.88498 50.1362 6.40679 49.9459 5.94111H10.0252C9.97264 6.07631 9.92257 6.18897 9.88752 6.30915C9.34172 8.08924 8.18754 9.28849 6.41245 9.8443C5.99434 9.97449 5.87917 10.1548 5.88168 10.5779C5.8992 14.451 5.89169 18.3242 5.89169 22.1948C5.89169 22.5879 5.89169 22.981 5.89169 23.3916C8.0949 23.9549 9.45439 25.3369 10.0177 27.4925C10.1779 27.5026 10.3006 27.5176 10.4258 27.5176C23.4423 27.5176 36.4588 27.5176 49.4753 27.5276C49.8884 27.5276 50.0235 27.3799 50.1462 27.0018C50.702 25.2568 51.8763 24.1051 53.6238 23.5418C53.779 23.4917 53.9318 23.4316 54.107 23.369L54.102 23.364Z" fill="white"/>
<path d="M22.4454 16.7244C22.4254 12.5959 25.7903 9.18344 29.9013 9.16091C34.1299 9.13587 37.5149 12.4507 37.5549 16.6518C37.595 20.8104 34.1675 24.2704 30.0064 24.2755C25.8729 24.2805 22.4654 20.878 22.4454 16.7244ZM35.5345 16.7019C35.5345 13.6224 33.0709 11.1638 29.9839 11.1663C26.937 11.1688 24.4859 13.6149 24.4684 16.6719C24.4483 19.7338 26.9319 22.2475 29.9864 22.26C33.0358 22.2725 35.5345 19.7689 35.5345 16.7019Z" fill="white"/>
<path d="M44.982 17.6833C44.629 17.6833 44.276 17.6983 43.9255 17.6783C43.3922 17.6507 43.0792 17.3303 43.0116 16.8295C42.939 16.2863 43.2094 15.8206 43.7377 15.768C44.5939 15.6829 45.4702 15.6854 46.3265 15.773C46.8698 15.8281 47.0951 16.3063 47.02 16.8471C46.9499 17.3653 46.6244 17.6558 46.0986 17.6808C45.7256 17.6983 45.3525 17.6833 44.9795 17.6833H44.982Z" fill="white"/>
<path d="M14.9649 17.6859C14.6119 17.6859 14.2589 17.6984 13.9084 17.6834C13.3826 17.6609 13.0546 17.378 12.977 16.8597C12.8969 16.3189 13.1147 15.8307 13.658 15.7781C14.5343 15.693 15.4306 15.698 16.3069 15.7881C16.8051 15.8382 17.0555 16.3064 16.9879 16.8196C16.9228 17.3229 16.6173 17.6483 16.0841 17.6809C15.7135 17.7034 15.338 17.6859 14.9649 17.6859Z" fill="white"/>
</g>
<defs>
<clipPath id="clip0_2057_1920">
<rect width="60" height="42.5796" fill="white"/>
</clipPath>
</defs>
</svg>
