<svg width="57" height="62" viewBox="0 0 57 62" fill="none" xmlns="http://www.w3.org/2000/svg">
<path d="M28.3438 60.8993C44.7489 60.8993 48.5464 45.1018 49.4578 39.7853C49.6097 38.8739 50.2173 37.9625 50.9768 37.5068C52.7995 36.5955 55.6856 34.1651 55.6856 29.0005C55.6856 19.7347 48.0907 26.2663 48.0907 24.4436C48.0907 19.8866 43.5337 13.8106 34.4198 13.8106C28.3438 13.8106 17.7109 15.3296 17.7109 3.17773" stroke="white" stroke-width="2" stroke-miterlimit="10"/>
<path d="M28.3418 60.8996C11.9367 60.8996 8.13924 45.1021 7.22785 39.9376C7.07595 39.0262 6.46835 38.1148 5.70886 37.6591C3.88608 36.7477 1 34.3173 1 29.1528C1 19.8869 7.07595 30.6718 14.6709 13.9629" stroke="white" stroke-width="2" stroke-miterlimit="10"/>
<path d="M28.3438 60.8993C44.7489 60.8993 48.5464 45.1018 49.4578 39.7853C49.6097 38.8739 50.2173 37.9625 50.9768 37.5068C52.7995 36.5955 55.6856 34.1651 55.6856 29.0005C55.6856 19.7347 48.0907 26.2663 48.0907 24.4436C48.0907 19.8866 43.5337 13.8106 34.4198 13.8106C28.3438 13.8106 17.7109 15.3296 17.7109 3.17773" stroke="white" stroke-width="2" stroke-miterlimit="10"/>
<path d="M28.3418 60.8996C11.9367 60.8996 8.13924 45.1021 7.22785 39.9376C7.07595 39.0262 6.46835 38.1148 5.70886 37.6591C3.88608 36.7477 1 34.3173 1 29.1528C1 19.8869 7.07595 30.6718 14.6709 13.9629" stroke="white" stroke-width="2" stroke-miterlimit="10"/>
<path d="M44.2891 0.899414C44.2891 0.899414 58.4156 7.73486 53.5549 24.1399" stroke="white" stroke-width="2" stroke-miterlimit="10"/>
<path d="M34.72 46.165C31.2263 49.6587 25.4542 49.6587 21.8086 46.165" stroke="white" stroke-width="2" stroke-miterlimit="10"/>
<path d="M34.418 31.2788C37.0002 33.8611 40.9496 33.8611 43.5319 31.2788L45.0509 32.0383" stroke="white" stroke-width="2" stroke-miterlimit="10"/>
<path d="M22.2657 31.2788C19.6834 33.8611 15.7341 33.8611 13.1518 31.2788L11.6328 32.0383" stroke="white" stroke-width="2" stroke-miterlimit="10"/>
<path d="M36.3906 52.5454L42.0109 60.8998" stroke="white" stroke-miterlimit="10"/>
<path d="M35.1758 56.3426L35.9353 56.4945L36.5429 52.8489L40.1884 53.6084L40.3403 52.8489L35.9353 51.7856L35.1758 56.3426Z" fill="white"/>
<path d="M43.5312 48.7476L49.1515 57.2539" stroke="white" stroke-miterlimit="10"/>
<path d="M45.2031 56.9507L45.355 56.1912L49.0006 56.9507L49.6082 53.3052L50.3677 53.4571L49.6082 57.8621L45.2031 56.9507Z" fill="white"/>
<path d="M20.2921 52.5454L14.6719 60.8998" stroke="white" stroke-miterlimit="10"/>
<path d="M16.3438 52.8489L16.4956 53.6084L20.1412 52.8489L20.7488 56.4945L21.5083 56.3426L20.7488 51.7856L16.3438 52.8489Z" fill="white"/>
<path d="M13.1515 48.7476L7.53125 57.2539" stroke="white" stroke-miterlimit="10"/>
<path d="M6.31641 53.4566L7.0759 53.3047L7.6835 56.9503L11.3291 56.1908L11.481 56.9503L7.0759 57.8616L6.31641 53.4566Z" fill="white"/>
</svg>
