<svg width="25" height="25" viewBox="0 0 25 25" fill="none" xmlns="http://www.w3.org/2000/svg">
<path d="M10.5577 24.7093C5.65091 24.7093 3.11464 24.6263 1.60854 23.0093C0.0556568 21.3403 0.0556641 18.4263 0.0556641 12.6173C0.0556641 0.980309 0.515314 0.52832 12.3495 0.52832C24.1838 0.52832 24.6465 0.980309 24.6465 12.6173C24.6465 24.2543 24.1868 24.7073 12.3495 24.7073H10.5577V24.7093ZM12.3495 2.47333C7.14785 2.47333 4.28006 2.4733 3.15734 3.5733C2.03463 4.6733 2.03871 7.4973 2.03871 12.6123C2.03871 17.7503 2.0387 20.5803 3.07192 21.6913C4.07158 22.7643 6.68514 22.7553 11.3967 22.7593H12.3546C17.5594 22.7593 20.4262 22.7593 21.5499 21.6593C22.6736 20.5593 22.6685 17.7353 22.6685 12.6183C22.6685 7.50132 22.6685 4.68332 21.5499 3.57932C20.4312 2.47532 17.5543 2.4743 12.3495 2.4743V2.47333Z" fill="white"/>
<path d="M12.3492 18.485C11.1694 18.4848 10.0162 18.1406 9.03534 17.4959C8.05449 16.8513 7.29005 15.9351 6.83867 14.8633C6.38728 13.7915 6.26923 12.6121 6.49944 11.4743C6.72965 10.3365 7.29778 9.29135 8.132 8.47104C8.96621 7.65072 10.0291 7.09206 11.1861 6.86569C12.3432 6.63932 13.5426 6.75542 14.6326 7.19928C15.7226 7.64314 16.6543 8.39484 17.3098 9.35934C17.9654 10.3238 18.3154 11.4578 18.3156 12.6179C18.314 14.1735 17.6849 15.6648 16.5663 16.7648C15.4477 17.8647 13.9311 18.4834 12.3492 18.485ZM12.3492 8.50195C11.5214 8.50215 10.7122 8.74371 10.024 9.1961C9.33576 9.6485 8.79942 10.2914 8.48277 11.0435C8.16611 11.7956 8.08336 12.6232 8.24498 13.4215C8.4066 14.2199 8.80534 14.9532 9.39077 15.5287C9.9762 16.1043 10.722 16.4962 11.534 16.6549C12.3459 16.8137 13.1875 16.7321 13.9522 16.4205C14.717 16.109 15.3707 15.5814 15.8306 14.9046C16.2905 14.2277 16.536 13.432 16.536 12.6179C16.5349 11.5265 16.0934 10.48 15.3084 9.70831C14.5235 8.93661 13.4592 8.50275 12.3492 8.50195Z" fill="white"/>
<path d="M19.4493 7.05227C20.0756 7.05227 20.5832 6.55307 20.5832 5.93727C20.5832 5.32147 20.0756 4.82227 19.4493 4.82227C18.8231 4.82227 18.3154 5.32147 18.3154 5.93727C18.3154 6.55307 18.8231 7.05227 19.4493 7.05227Z" fill="white"/>
</svg>
