<svg width="14" height="14" viewBox="0 0 14 14" fill="none" xmlns="http://www.w3.org/2000/svg">
<path d="M11.9571 2.03459C10.7619 0.843759 9.17259 0.126029 7.48525 0.0150936C5.7979 -0.0958419 4.12758 0.407581 2.78541 1.43159C1.44323 2.4556 0.52073 3.93037 0.189734 5.58119C-0.141262 7.23202 0.141818 8.94633 0.986244 10.4048L0 14L3.69486 13.0342C4.71648 13.5899 5.86175 13.8818 7.02592 13.8831C8.40523 13.8838 9.75377 13.4773 10.9009 12.7148C12.048 11.9523 12.9421 10.8682 13.47 9.59972C13.998 8.3312 14.136 6.93528 13.8667 5.58863C13.5974 4.24197 12.9329 3.00511 11.9571 2.03459ZM7.02592 12.7079C5.98713 12.7079 4.96749 12.4297 4.07382 11.9025L3.86255 11.7771L1.66932 12.3495L2.25481 10.2228L2.11649 10.004C1.43363 8.92078 1.13174 7.64239 1.25827 6.36976C1.3848 5.09714 1.93257 3.90246 2.81549 2.97353C3.6984 2.0446 4.86638 1.43409 6.13582 1.23797C7.40526 1.04186 8.70418 1.27126 9.82838 1.89012C10.9526 2.50898 11.8383 3.48219 12.3463 4.65678C12.8544 5.83137 12.9559 7.14072 12.6349 8.379C12.314 9.61729 11.5888 10.7143 10.5733 11.4975C9.55778 12.2808 8.30961 12.7059 7.02497 12.706L7.02592 12.7079Z" fill="#999999"/>
<path fill-rule="evenodd" clip-rule="evenodd" d="M5.28365 4.03725C5.15291 3.74866 5.01554 3.743 4.89237 3.73828H4.55794C4.46972 3.74059 4.38292 3.76106 4.30303 3.79839C4.22314 3.83572 4.15187 3.88911 4.09372 3.9552C3.89757 4.14025 3.74209 4.36377 3.63708 4.61164C3.53207 4.85951 3.47981 5.12636 3.48359 5.39535C3.48359 6.24416 4.10793 7.07222 4.19509 7.18728C4.28225 7.30235 5.40018 9.1122 7.17087 9.80728C8.64124 10.3845 8.94061 10.2694 9.26084 10.2411C9.58106 10.2128 10.2907 9.82143 10.4356 9.41683C10.5806 9.01223 10.5815 8.66233 10.5379 8.59254C10.4944 8.52275 10.3778 8.47653 10.2035 8.38977C10.0292 8.303 9.17273 7.88425 9.01356 7.82389C8.8544 7.76353 8.73787 7.73712 8.62134 7.91066C8.50481 8.08419 8.17227 8.47653 8.06995 8.59065C7.96763 8.70477 7.86721 8.7208 7.69099 8.63404C7.17757 8.43052 6.70372 8.13946 6.29074 7.77391C5.91066 7.42404 5.58469 7.02009 5.32344 6.5752C5.22112 6.40166 5.31207 6.30735 5.40018 6.22153C5.48829 6.1357 5.57355 6.01875 5.66166 5.91784C5.73312 5.83011 5.79151 5.7326 5.83504 5.6283C5.85818 5.58048 5.86899 5.52769 5.86651 5.47467C5.86403 5.42165 5.84833 5.37008 5.82083 5.32462C5.77725 5.23785 5.44187 4.38149 5.28365 4.03725Z" fill="#999999"/>
</svg>
