<svg width="40" height="40" viewBox="0 0 40 40" fill="none" xmlns="http://www.w3.org/2000/svg">
<mask id="mask0_608_215" style="mask-type:alpha" maskUnits="userSpaceOnUse" x="0" y="0" width="40" height="40">
<rect width="40" height="40" fill="#D9D9D9"/>
</mask>
<g mask="url(#mask0_608_215)">
<path d="M20 26.314L12.8847 19.1988L14.641 17.3911L18.75 21.5V7.5H21.2499V21.5L25.3589 17.3911L27.1153 19.1988L20 26.314ZM10.5128 32.4999C9.67094 32.4999 8.95833 32.2083 8.375 31.6249C7.79167 31.0416 7.5 30.329 7.5 29.4871V24.9679H9.99996V29.4871C9.99996 29.6153 10.0534 29.7328 10.1602 29.8397C10.2671 29.9465 10.3846 30 10.5128 30H29.4871C29.6153 30 29.7328 29.9465 29.8397 29.8397C29.9465 29.7328 30 29.6153 30 29.4871V24.9679H32.4999V29.4871C32.4999 30.329 32.2083 31.0416 31.6249 31.6249C31.0416 32.2083 30.329 32.4999 29.4871 32.4999H10.5128Z" fill="white"/>
</g>
</svg>
