<svg width="28" height="30" viewBox="0 0 28 30" fill="none" xmlns="http://www.w3.org/2000/svg">
<path d="M6.63026 17.9545L10.0874 12.5099C10.609 11.6908 11.7008 11.4499 12.5256 11.9558C12.562 11.9799 12.6105 12.004 12.6469 12.0402L15.4005 14.0879C15.6553 14.2806 15.9949 14.2686 16.2496 14.0879L19.9615 11.2933C20.4589 10.9199 21.1018 11.5102 20.7743 12.0281L17.3171 17.4727C16.7955 18.2918 15.7038 18.5327 14.8789 18.0268C14.8425 18.0027 14.794 17.9786 14.7576 17.9425L12.004 15.8947C11.7493 15.702 11.4096 15.7141 11.1549 15.8947L7.44299 18.6893C6.94565 19.0748 6.30274 18.4845 6.63026 17.9545Z" fill="white"/>
<path d="M13.8763 1.49172C20.5062 1.49172 25.81 6.96133 25.81 13.7569C25.81 20.5525 20.5062 26.0221 13.8763 26.0221C12.3846 26.0221 10.8929 25.6906 9.56692 25.1934L6.91499 26.6851L7.57797 24.1989C4.26306 22.0442 1.94261 18.232 1.94261 13.7569C1.94261 7.12707 7.24648 1.49172 13.8763 1.49172ZM13.8763 0C6.41775 0 0.285156 6.29835 0.285156 13.9227C0.285156 18.3978 2.27411 22.3757 5.75477 25.0276L4.92604 30L9.73267 27.1823C11.0586 27.6796 12.5504 27.8453 13.8763 27.8453C21.3349 27.8453 27.4675 21.547 27.4675 13.9227C27.4675 6.29835 21.3349 0 13.8763 0Z" fill="white"/>
</svg>
