<svg width="20" height="20" viewBox="0 0 20 20" fill="none" xmlns="http://www.w3.org/2000/svg">
<path d="M15.9231 19.3617C14.1106 19.3617 12.2584 18.9168 10.3665 18.027C8.4746 17.1372 6.71878 15.8809 5.09901 14.2579C3.47925 12.6349 2.22448 10.8791 1.3347 8.99042C0.444899 7.10174 0 5.25114 0 3.43861C0 3.12486 0.103671 2.86339 0.311014 2.65421C0.518357 2.44503 0.777541 2.34044 1.08856 2.34044H4.08151C4.33985 2.34044 4.56112 2.42463 4.74532 2.59301C4.92953 2.76138 5.0548 2.97587 5.12112 3.23646L5.7104 6.00698C5.74672 6.26643 5.73834 6.49605 5.68527 6.69587C5.63222 6.89569 5.5334 7.06361 5.3888 7.19963L3.04289 9.48396C3.46478 10.2221 3.92101 10.9102 4.41158 11.5484C4.90216 12.1866 5.43285 12.7892 6.00365 13.3561C6.6027 13.9663 7.23982 14.5262 7.91502 15.0358C8.59023 15.5454 9.31486 16.0121 10.0889 16.4356L12.3527 14.1219C12.5161 13.9452 12.7039 13.8247 12.9159 13.7605C13.1279 13.6963 13.3488 13.6809 13.5785 13.7143L16.1253 14.2598C16.3893 14.3223 16.6046 14.4558 16.7713 14.6603C16.9379 14.8648 17.0213 15.0965 17.0213 15.3555V18.2732C17.0213 18.5842 16.9167 18.8434 16.7075 19.0507C16.4983 19.258 16.2369 19.3617 15.9231 19.3617ZM2.42737 8.32359L4.40036 6.41735C4.42818 6.39166 4.4469 6.35635 4.45653 6.31141C4.46616 6.26649 4.4667 6.22477 4.45814 6.18626L3.94852 3.75246C3.93996 3.70109 3.91857 3.66258 3.88434 3.63691C3.85012 3.61123 3.80732 3.59839 3.75596 3.59839H1.39788C1.35938 3.59839 1.32729 3.61123 1.30161 3.63691C1.27592 3.66258 1.26308 3.69467 1.26308 3.73318C1.28962 4.42423 1.39884 5.14929 1.59074 5.90836C1.78265 6.66743 2.06152 7.4725 2.42737 8.32359ZM11.2769 17.0345C11.9543 17.3618 12.6843 17.6152 13.4672 17.7947C14.25 17.9742 14.9704 18.0759 15.6285 18.0999C15.667 18.0999 15.6991 18.0871 15.7248 18.0614C15.7505 18.0357 15.7633 18.0036 15.7633 17.9651V15.625C15.7633 15.5737 15.7505 15.5309 15.7248 15.4966C15.6991 15.4624 15.6606 15.441 15.6093 15.4324L13.395 14.978C13.3565 14.9695 13.3228 14.97 13.2939 14.9796C13.265 14.9893 13.2345 15.008 13.2024 15.0358L11.2769 17.0345Z" fill="white"/>
<path d="M11.8907 6.74563H17.8963V5.74469H11.8907V6.74563ZM11.8907 5.24423H17.8963V4.2433H11.8907V5.24423ZM11.8907 3.74283H17.8963V2.7419H11.8907V3.74283ZM19.9999 10.8511L17.998 8.84922H10.9257C10.6105 8.84922 10.342 8.73825 10.12 8.5163C9.89808 8.29435 9.78711 8.0258 9.78711 7.71065V1.77688C9.78711 1.46173 9.89809 1.19318 10.12 0.971228C10.342 0.74928 10.6105 0.638306 10.9257 0.638306H18.8613C19.1765 0.638306 19.445 0.74928 19.667 0.971228C19.8889 1.19318 19.9999 1.46173 19.9999 1.77688L19.9999 10.8511ZM10.9257 7.71065H18.4234L18.8613 8.13904V1.77688H10.9257V7.71065Z" fill="white"/>
</svg>
